{
customParameters = (
{
name = vendorID;
value = "";
}
);
date = "2017-02-20 08:06:06 +0000";
familyName = "ideicon";
featurePrefixes = (
{
automatic = 1;
code = "languagesystem DFLT dflt;\012";
name = Languagesystems;
}
);
fontMaster = (
{
ascender = 960;
capHeight = 0;
customParameters = (
{
name = typoAscender;
value = 960;
},
{
name = typoDescender;
value = "-64";
},
{
name = typoLineGap;
value = 64;
}
);
descender = "-64";
id = "5789BFD8-8569-4DE2-B3C5-6A0ED3E84C22";
weightValue = 400;
widthValue = 5;
xHeight = 0;
}
);
glyphs = (
{
glyphname = space;
layers = (
{
layerId = "5789BFD8-8569-4DE2-B3C5-6A0ED3E84C22";
name = Regular;
paths = (
{
closed = 1;
nodes = (
"0 0 LINE",
"0 0 LINE"
);
}
);
width = 512;
}
);
unicode = 0020;
},
{
glyphname = uni0000;
layers = (
{
layerId = "5789BFD8-8569-4DE2-B3C5-6A0ED3E84C22";
name = Regular;
paths = (
{
closed = 1;
nodes = (
"0 0 LINE",
"0 0 LINE"
);
}
);
width = 0;
}
);
unicode = 0000;
},
{
glyphname = uni0001;
layers = (
{
layerId = "5789BFD8-8569-4DE2-B3C5-6A0ED3E84C22";
name = Regular;
paths = (
{
closed = 1;
nodes = (
"0 0 LINE",
"0 0 LINE"
);
}
);
width = 0;
}
);
unicode = 0001;
},
{
glyphname = uniE900;
layers = (
{
layerId = "5789BFD8-8569-4DE2-B3C5-6A0ED3E84C22";
name = Regular;
paths = (
{
closed = 1;
nodes = (
"277 960 LINE SMOOTH",
"246 960 OFFCURVE",
"220 935 OFFCURVE",
"220 903 CURVE SMOOTH",
"220 -7 LINE SMOOTH",
"220 -39 OFFCURVE",
"246 -64 OFFCURVE",
"277 -64 CURVE SMOOTH",
"752 -64 LINE SMOOTH",
"784 -64 OFFCURVE",
"809 -39 OFFCURVE",
"809 -7 CURVE SMOOTH",
"809 903 LINE SMOOTH",
"809 935 OFFCURVE",
"784 960 OFFCURVE",
"752 960 CURVE SMOOTH"
);
},
{
closed = 1;
nodes = (
"592 900 LINE",
"592 860 LINE",
"435 860 LINE",
"435 900 LINE"
);
},
{
closed = 1;
nodes = (
"486 -7 OFFCURVE",
"465 14 OFFCURVE",
"465 41 CURVE SMOOTH",
"465 69 OFFCURVE",
"486 90 OFFCURVE",
"513 90 CURVE SMOOTH",
"541 90 OFFCURVE",
"562 69 OFFCURVE",
"562 41 CURVE SMOOTH",
"562 14 OFFCURVE",
"541 -7 OFFCURVE",
"513 -7 CURVE SMOOTH"
);
},
{
closed = 1;
nodes = (
"730 152 LINE",
"300 152 LINE",
"300 801 LINE",
"730 801 LINE"
);
}
);
width = 1024;
}
);
unicode = E900;
},
{
glyphname = uniE901;
layers = (
{
layerId = "5789BFD8-8569-4DE2-B3C5-6A0ED3E84C22";
name = Regular;
paths = (
{
closed = 1;
nodes = (
"905 273 OFFCURVE",
"828 288 OFFCURVE",
"789 252 CURVE",
"728 191 OFFCURVE",
"697 147 OFFCURVE",
"613 191 CURVE",
"561 223 OFFCURVE",
"495 274 OFFCURVE",
"415 354 CURVE SMOOTH",
"336 434 OFFCURVE",
"284 499 OFFCURVE",
"252 552 CURVE",
"208 636 OFFCURVE",
"252 668 OFFCURVE",
"313 728 CURVE SMOOTH",
"350 765 OFFCURVE",
"334 844 OFFCURVE",
"277 900 CURVE SMOOTH",
"221 957 OFFCURVE",
"144 973 OFFCURVE",
"105 936 CURVE SMOOTH",
"64 895 OFFCURVE",
"38 832 OFFCURVE",
"24 770 CURVE SMOOTH",
"10 708 OFFCURVE",
"8 647 OFFCURVE",
"20 607 CURVE",
"20 607 OFFCURVE",
"20 607 OFFCURVE",
"20 607 CURVE SMOOTH",
"20 607 OFFCURVE",
"20 607 OFFCURVE",
"20 607 CURVE",
"29 551 OFFCURVE",
"55 490 OFFCURVE",
"97 424 CURVE SMOOTH",
"139 358 OFFCURVE",
"198 287 OFFCURVE",
"273 212 CURVE SMOOTH",
"348 136 OFFCURVE",
"419 78 OFFCURVE",
"484 36 CURVE SMOOTH",
"549 -6 OFFCURVE",
"611 -32 OFFCURVE",
"667 -41 CURVE",
"667 -41 OFFCURVE",
"667 -41 OFFCURVE",
"667 -41 CURVE SMOOTH",
"667 -41 OFFCURVE",
"667 -41 OFFCURVE",
"667 -41 CURVE",
"706 -52 OFFCURVE",
"769 -50 OFFCURVE",
"831 -37 CURVE SMOOTH",
"893 -24 OFFCURVE",
"955 4 OFFCURVE",
"996 44 CURVE",
"1033 83 OFFCURVE",
"1018 160 OFFCURVE",
"961 216 CURVE SMOOTH"
);
}
);
width = 1024;
}
);
unicode = E901;
},
{
glyphname = uniE902;
layers = (
{
layerId = "5789BFD8-8569-4DE2-B3C5-6A0ED3E84C22";
name = Regular;
paths = (
{
closed = 1;
nodes = (
"494 940 LINE SMOOTH",
"463 952 OFFCURVE",
"431 938 OFFCURVE",
"420 907 CURVE SMOOTH",
"135 172 LINE SMOOTH",
"124 143 OFFCURVE",
"137 110 OFFCURVE",
"168 98 CURVE SMOOTH",
"546 -48 LINE SMOOTH",
"577 -60 OFFCURVE",
"609 -45 OFFCURVE",
"620 -16 CURVE SMOOTH",
"905 720 LINE SMOOTH",
"916 749 OFFCURVE",
"900 782 OFFCURVE",
"872 794 CURVE"
);
},
{
closed = 1;
nodes = (
"597 843 LINE",
"725 794 LINE",
"714 761 LINE",
"586 811 LINE"
);
},
{
closed = 1;
nodes = (
"421 76 OFFCURVE",
"397 64 OFFCURVE",
"374 73 CURVE SMOOTH",
"353 81 OFFCURVE",
"341 105 OFFCURVE",
"350 128 CURVE SMOOTH",
"358 149 OFFCURVE",
"382 161 OFFCURVE",
"405 152 CURVE SMOOTH",
"426 144 OFFCURVE",
"438 118 OFFCURVE",
"430 97 CURVE"
);
},
{
closed = 1;
nodes = (
"250 272 LINE",
"455 804 LINE",
"808 667 LINE",
"603 135 LINE"
);
}
);
width = 1024;
}
);
unicode = E902;
},
{
glyphname = uniE903;
layers = (
{
layerId = "5789BFD8-8569-4DE2-B3C5-6A0ED3E84C22";
name = Regular;
paths = (
{
closed = 1;
nodes = (
"545 150 OFFCURVE",
"530 135 OFFCURVE",
"511 135 CURVE SMOOTH",
"491 135 OFFCURVE",
"476 150 OFFCURVE",
"476 169 CURVE SMOOTH",
"476 188 OFFCURVE",
"491 203 OFFCURVE",
"511 203 CURVE SMOOTH",
"530 203 OFFCURVE",
"545 188 OFFCURVE",
"545 169 CURVE SMOOTH"
);
},
{
closed = 1;
nodes = (
"457 769 LINE",
"566 769 LINE",
"566 741 LINE",
"457 741 LINE"
);
},
{
closed = 1;
nodes = (
"363 700 LINE",
"663 700 LINE",
"663 247 LINE",
"363 247 LINE"
);
},
{
closed = 1;
nodes = (
"368 960 OFFCURVE",
"241 903 OFFCURVE",
"149 811 CURVE SMOOTH",
"56 718 OFFCURVE",
"-1 589 OFFCURVE",
"-1 448 CURVE SMOOTH",
"-1 307 OFFCURVE",
"56 178 OFFCURVE",
"149 86 CURVE SMOOTH",
"241 -7 OFFCURVE",
"368 -64 OFFCURVE",
"511 -64 CURVE SMOOTH",
"652 -64 OFFCURVE",
"780 -7 OFFCURVE",
"873 86 CURVE SMOOTH",
"965 178 OFFCURVE",
"1023 307 OFFCURVE",
"1023 448 CURVE SMOOTH",
"1023 589 OFFCURVE",
"965 718 OFFCURVE",
"873 811 CURVE SMOOTH",
"780 903 OFFCURVE",
"651 960 OFFCURVE",
"511 960 CURVE SMOOTH"
);
},
{
closed = 1;
nodes = (
"718 146 LINE",
"718 118 OFFCURVE",
"695 95 OFFCURVE",
"667 95 CURVE SMOOTH",
"357 95 LINE SMOOTH",
"329 95 OFFCURVE",
"306 118 OFFCURVE",
"306 146 CURVE SMOOTH",
"306 759 LINE SMOOTH",
"306 788 OFFCURVE",
"329 811 OFFCURVE",
"357 811 CURVE SMOOTH",
"666 811 LINE SMOOTH",
"694 811 OFFCURVE",
"717 788 OFFCURVE",
"717 759 CURVE SMOOTH",
"717 146 LINE"
);
}
);
width = 1024;
}
);
unicode = E903;
},
{
glyphname = uniE904;
layers = (
{
layerId = "5789BFD8-8569-4DE2-B3C5-6A0ED3E84C22";
name = Regular;
paths = (
{
closed = 1;
nodes = (
"1024 769 LINE",
"1024 664 LINE",
"963 664 OFFCURVE",
"904 656 OFFCURVE",
"852 640 CURVE",
"837 636 OFFCURVE",
"823 631 OFFCURVE",
"809 626 CURVE",
"795 620 OFFCURVE",
"781 614 OFFCURVE",
"768 609 CURVE",
"756 614 OFFCURVE",
"745 619 OFFCURVE",
"732 624 CURVE SMOOTH",
"667 651 OFFCURVE",
"591 666 OFFCURVE",
"511 666 CURVE SMOOTH",
"450 666 OFFCURVE",
"392 657 OFFCURVE",
"337 641 CURVE SMOOTH",
"308 633 OFFCURVE",
"280 622 OFFCURVE",
"253 610 CURVE",
"248 613 OFFCURVE",
"242 615 OFFCURVE",
"236 618 CURVE SMOOTH",
"230 621 OFFCURVE",
"224 623 OFFCURVE",
"218 626 CURVE",
"153 651 OFFCURVE",
"78 667 OFFCURVE",
"-3 667 CURVE",
"-3 772 LINE",
"1024 772 LINE"
);
},
{
closed = 1;
nodes = (
"641 344 OFFCURVE",
"650 320 OFFCURVE",
"663 300 CURVE SMOOTH",
"676 280 OFFCURVE",
"695 263 OFFCURVE",
"718 255 CURVE",
"734 247 OFFCURVE",
"749 245 OFFCURVE",
"768 245 CURVE SMOOTH",
"795 245 OFFCURVE",
"819 253 OFFCURVE",
"839 266 CURVE",
"859 281 OFFCURVE",
"876 298 OFFCURVE",
"885 321 CURVE",
"892 337 OFFCURVE",
"895 352 OFFCURVE",
"895 371 CURVE SMOOTH",
"895 384 OFFCURVE",
"891 396 OFFCURVE",
"886 411 CURVE SMOOTH",
"881 426 OFFCURVE",
"872 439 OFFCURVE",
"860 454 CURVE SMOOTH",
"839 482 OFFCURVE",
"806 509 OFFCURVE",
"767 532 CURVE",
"735 515 OFFCURVE",
"710 494 OFFCURVE",
"690 474 CURVE",
"669 451 OFFCURVE",
"653 428 OFFCURVE",
"646 407 CURVE",
"645 401 OFFCURVE",
"644 395 OFFCURVE",
"643 389 CURVE SMOOTH",
"642 383 OFFCURVE",
"641 377 OFFCURVE",
"641 371 CURVE SMOOTH"
);
},
{
closed = 1;
nodes = (
"920 492 OFFCURVE",
"940 462 OFFCURVE",
"951 430 CURVE",
"959 411 OFFCURVE",
"961 390 OFFCURVE",
"961 373 CURVE SMOOTH",
"961 333 OFFCURVE",
"949 296 OFFCURVE",
"929 265 CURVE SMOOTH",
"908 233 OFFCURVE",
"879 210 OFFCURVE",
"843 195 CURVE",
"820 184 OFFCURVE",
"795 179 OFFCURVE",
"768 179 CURVE SMOOTH",
"728 179 OFFCURVE",
"691 192 OFFCURVE",
"660 212 CURVE SMOOTH",
"628 233 OFFCURVE",
"605 262 OFFCURVE",
"590 297 CURVE SMOOTH",
"581 320 OFFCURVE",
"575 345 OFFCURVE",
"575 373 CURVE SMOOTH",
"575 402 OFFCURVE",
"584 431 OFFCURVE",
"597 458 CURVE",
"612 485 OFFCURVE",
"632 510 OFFCURVE",
"656 533 CURVE SMOOTH",
"668 545 OFFCURVE",
"682 556 OFFCURVE",
"697 567 CURVE",
"686 572 OFFCURVE",
"677 574 OFFCURVE",
"666 577 CURVE",
"618 592 OFFCURVE",
"566 599 OFFCURVE",
"511 599 CURVE SMOOTH",
"442 599 OFFCURVE",
"380 586 OFFCURVE",
"324 566 CURVE",
"344 551 OFFCURVE",
"363 536 OFFCURVE",
"378 521 CURVE SMOOTH",
"406 492 OFFCURVE",
"425 462 OFFCURVE",
"437 430 CURVE SMOOTH",
"444 411 OFFCURVE",
"447 390 OFFCURVE",
"447 373 CURVE SMOOTH",
"447 333 OFFCURVE",
"434 296 OFFCURVE",
"414 265 CURVE SMOOTH",
"393 233 OFFCURVE",
"364 210 OFFCURVE",
"329 195 CURVE",
"308 183 OFFCURVE",
"281 178 OFFCURVE",
"256 178 CURVE SMOOTH",
"216 178 OFFCURVE",
"179 191 OFFCURVE",
"148 210 CURVE SMOOTH",
"116 231 OFFCURVE",
"93 260 OFFCURVE",
"78 296 CURVE SMOOTH",
"69 319 OFFCURVE",
"63 344 OFFCURVE",
"63 371 CURVE SMOOTH",
"63 402 OFFCURVE",
"72 429 OFFCURVE",
"85 457 CURVE",
"100 484 OFFCURVE",
"120 509 OFFCURVE",
"144 532 CURVE SMOOTH",
"156 543 OFFCURVE",
"170 555 OFFCURVE",
"185 566 CURVE",
"174 570 OFFCURVE",
"165 573 OFFCURVE",
"154 576 CURVE",
"106 591 OFFCURVE",
"56 599 OFFCURVE",
"0 599 CURVE",
"0 97 LINE",
"1024 97 LINE",
"1024 599 LINE",
"957 599 OFFCURVE",
"894 586 OFFCURVE",
"839 566 CURVE",
"860 551 OFFCURVE",
"877 536 OFFCURVE",
"893 521 CURVE"
);
},
{
closed = 1;
nodes = (
"128 344 OFFCURVE",
"137 320 OFFCURVE",
"149 300 CURVE",
"164 280 OFFCURVE",
"182 263 OFFCURVE",
"205 255 CURVE",
"221 247 OFFCURVE",
"236 245 OFFCURVE",
"255 245 CURVE SMOOTH",
"282 245 OFFCURVE",
"306 253 OFFCURVE",
"326 266 CURVE",
"346 281 OFFCURVE",
"363 298 OFFCURVE",
"371 321 CURVE",
"379 337 OFFCURVE",
"381 352 OFFCURVE",
"381 371 CURVE SMOOTH",
"381 384 OFFCURVE",
"378 396 OFFCURVE",
"373 411 CURVE",
"366 426 OFFCURVE",
"359 439 OFFCURVE",
"347 454 CURVE SMOOTH",
"326 482 OFFCURVE",
"293 509 OFFCURVE",
"253 532 CURVE",
"222 515 OFFCURVE",
"196 494 OFFCURVE",
"176 474 CURVE",
"155 451 OFFCURVE",
"140 428 OFFCURVE",
"132 407 CURVE",
"131 401 OFFCURVE",
"131 395 OFFCURVE",
"130 389 CURVE SMOOTH",
"129 383 OFFCURVE",
"128 377 OFFCURVE",
"128 371 CURVE SMOOTH"
);
}
);
width = 1024;
}
);
unicode = E904;
},
{
glyphname = uniE905;
layers = (
{
layerId = "5789BFD8-8569-4DE2-B3C5-6A0ED3E84C22";
name = Regular;
paths = (
{
closed = 1;
nodes = (
"331 537 OFFCURVE",
"331 533 OFFCURVE",
"332 529 CURVE",
"333 524 OFFCURVE",
"333 520 OFFCURVE",
"333 515 CURVE SMOOTH",
"333 504 OFFCURVE",
"332 495 OFFCURVE",
"331 486 CURVE",
"331 478 OFFCURVE",
"329 470 OFFCURVE",
"326 465 CURVE SMOOTH",
"323 460 OFFCURVE",
"319 455 OFFCURVE",
"311 451 CURVE",
"304 448 OFFCURVE",
"296 445 OFFCURVE",
"284 445 CURVE SMOOTH",
"256 445 LINE",
"256 583 LINE",
"286 583 LINE SMOOTH",
"297 583 OFFCURVE",
"306 582 OFFCURVE",
"311 577 CURVE",
"318 573 OFFCURVE",
"321 568 OFFCURVE",
"324 563 CURVE",
"331 559 OFFCURVE",
"331 550 OFFCURVE",
"331 542 CURVE SMOOTH"
);
},
{
closed = 1;
nodes = (
"1024 715 LINE",
"1024 156 LINE",
"1 156 LINE",
"1 715 LINE"
);
},
{
closed = 1;
nodes = (
"387 540 OFFCURVE",
"385 560 OFFCURVE",
"381 575 CURVE",
"377 588 OFFCURVE",
"372 601 OFFCURVE",
"361 612 CURVE SMOOTH",
"352 621 OFFCURVE",
"340 630 OFFCURVE",
"329 634 CURVE SMOOTH",
"316 639 OFFCURVE",
"303 640 OFFCURVE",
"286 640 CURVE SMOOTH",
"199 640 LINE",
"199 235 LINE",
"257 235 LINE",
"257 393 LINE",
"287 393 LINE SMOOTH",
"308 393 OFFCURVE",
"325 397 OFFCURVE",
"340 404 CURVE",
"353 411 OFFCURVE",
"364 422 OFFCURVE",
"371 435 CURVE",
"379 447 OFFCURVE",
"383 458 OFFCURVE",
"384 471 CURVE",
"387 483 OFFCURVE",
"387 497 OFFCURVE",
"387 516 CURVE SMOOTH"
);
},
{
closed = 1;
nodes = (
"619 567 OFFCURVE",
"610 593 OFFCURVE",
"593 612 CURVE",
"576 629 OFFCURVE",
"550 639 OFFCURVE",
"518 639 CURVE SMOOTH",
"432 639 LINE",
"432 235 LINE",
"512 235 LINE SMOOTH",
"547 235 OFFCURVE",
"573 243 OFFCURVE",
"592 262 CURVE SMOOTH",
"611 281 OFFCURVE",
"619 307 OFFCURVE",
"619 346 CURVE SMOOTH",
"619 535 LINE SMOOTH"
);
},
{
closed = 1;
nodes = (
"673 640 LINE",
"673 235 LINE",
"731 235 LINE",
"731 407 LINE",
"831 407 LINE",
"831 462 LINE",
"731 462 LINE",
"731 585 LINE",
"846 585 LINE",
"846 640 LINE"
);
},
{
closed = 1;
nodes = (
"488 585 LINE",
"488 289 LINE",
"515 289 LINE SMOOTH",
"531 289 OFFCURVE",
"544 293 OFFCURVE",
"549 302 CURVE",
"556 310 OFFCURVE",
"559 323 OFFCURVE",
"559 340 CURVE SMOOTH",
"559 535 LINE SMOOTH",
"559 550 OFFCURVE",
"556 563 OFFCURVE",
"549 572 CURVE",
"545 580 OFFCURVE",
"532 585 OFFCURVE",
"515 585 CURVE SMOOTH"
);
}
);
width = 1024;
}
);
unicode = E905;
},
{
glyphname = uniE906;
layers = (
{
layerId = "5789BFD8-8569-4DE2-B3C5-6A0ED3E84C22";
name = Regular;
paths = (
{
closed = 1;
nodes = (
"-3 156 LINE",
"1020 156 LINE",
"1020 715 LINE",
"-3 715 LINE"
);
},
{
closed = 1;
nodes = (
"289 371 LINE",
"239 235 LINE",
"178 235 LINE",
"260 447 LINE",
"185 640 LINE",
"246 640 LINE",
"290 521 LINE",
"334 640 LINE",
"395 640 LINE",
"319 447 LINE",
"401 235 LINE",
"340 235 LINE"
);
},
{
closed = 1;
nodes = (
"600 235 LINE",
"427 235 LINE",
"427 640 LINE",
"485 640 LINE",
"485 293 LINE",
"600 293 LINE"
);
},
{
closed = 1;
nodes = (
"825 523 LINE",
"767 523 LINE",
"767 536 LINE SMOOTH",
"767 549 OFFCURVE",
"764 561 OFFCURVE",
"757 570 CURVE SMOOTH",
"749 581 OFFCURVE",
"740 585 OFFCURVE",
"725 585 CURVE SMOOTH",
"717 585 OFFCURVE",
"712 583 OFFCURVE",
"705 580 CURVE",
"700 577 OFFCURVE",
"697 573 OFFCURVE",
"694 569 CURVE SMOOTH",
"691 565 OFFCURVE",
"689 559 OFFCURVE",
"688 552 CURVE",
"687 549 OFFCURVE",
"687 546 OFFCURVE",
"687 543 CURVE SMOOTH",
"687 539 OFFCURVE",
"687 535 OFFCURVE",
"687 532 CURVE SMOOTH",
"687 528 OFFCURVE",
"687 524 OFFCURVE",
"687 521 CURVE SMOOTH",
"687 514 OFFCURVE",
"688 509 OFFCURVE",
"689 505 CURVE",
"690 502 OFFCURVE",
"691 500 OFFCURVE",
"693 498 CURVE",
"696 494 OFFCURVE",
"698 491 OFFCURVE",
"703 488 CURVE",
"707 485 OFFCURVE",
"713 482 OFFCURVE",
"721 479 CURVE SMOOTH",
"765 462 LINE",
"778 458 OFFCURVE",
"788 450 OFFCURVE",
"796 445 CURVE",
"805 438 OFFCURVE",
"811 431 OFFCURVE",
"815 422 CURVE",
"819 414 OFFCURVE",
"822 404 OFFCURVE",
"823 391 CURVE",
"826 380 OFFCURVE",
"826 367 OFFCURVE",
"826 351 CURVE SMOOTH",
"826 334 OFFCURVE",
"825 319 OFFCURVE",
"821 304 CURVE",
"817 291 OFFCURVE",
"812 278 OFFCURVE",
"804 267 CURVE",
"796 258 OFFCURVE",
"785 248 OFFCURVE",
"772 243 CURVE SMOOTH",
"760 238 OFFCURVE",
"744 235 OFFCURVE",
"725 235 CURVE SMOOTH",
"712 235 OFFCURVE",
"698 238 OFFCURVE",
"686 242 CURVE SMOOTH",
"673 246 OFFCURVE",
"663 253 OFFCURVE",
"654 262 CURVE SMOOTH",
"646 270 OFFCURVE",
"638 280 OFFCURVE",
"633 292 CURVE SMOOTH",
"628 303 OFFCURVE",
"626 315 OFFCURVE",
"626 330 CURVE SMOOTH",
"626 348 LINE",
"684 348 LINE",
"684 330 LINE SMOOTH",
"684 319 OFFCURVE",
"687 310 OFFCURVE",
"694 302 CURVE",
"699 293 OFFCURVE",
"712 289 OFFCURVE",
"725 289 CURVE SMOOTH",
"736 289 OFFCURVE",
"743 290 OFFCURVE",
"748 293 CURVE SMOOTH",
"753 296 OFFCURVE",
"758 300 OFFCURVE",
"761 304 CURVE",
"764 311 OFFCURVE",
"766 316 OFFCURVE",
"767 323 CURVE",
"768 326 OFFCURVE",
"768 330 OFFCURVE",
"768 335 CURVE SMOOTH",
"768 339 OFFCURVE",
"768 343 OFFCURVE",
"768 348 CURVE SMOOTH",
"768 353 OFFCURVE",
"768 358 OFFCURVE",
"768 363 CURVE SMOOTH",
"768 372 OFFCURVE",
"767 378 OFFCURVE",
"765 384 CURVE SMOOTH",
"763 390 OFFCURVE",
"761 393 OFFCURVE",
"758 397 CURVE",
"755 400 OFFCURVE",
"750 402 OFFCURVE",
"745 405 CURVE",
"742 406 OFFCURVE",
"739 408 OFFCURVE",
"735 410 CURVE",
"694 427 LINE",
"669 436 OFFCURVE",
"653 451 OFFCURVE",
"644 468 CURVE",
"636 485 OFFCURVE",
"631 507 OFFCURVE",
"631 532 CURVE SMOOTH",
"631 548 OFFCURVE",
"633 562 OFFCURVE",
"637 575 CURVE SMOOTH",
"641 587 OFFCURVE",
"647 601 OFFCURVE",
"656 610 CURVE",
"664 621 OFFCURVE",
"674 627 OFFCURVE",
"687 634 CURVE SMOOTH",
"700 641 OFFCURVE",
"714 643 OFFCURVE",
"731 643 CURVE SMOOTH",
"746 643 OFFCURVE",
"758 641 OFFCURVE",
"771 634 CURVE",
"783 629 OFFCURVE",
"794 621 OFFCURVE",
"802 613 CURVE",
"811 605 OFFCURVE",
"818 595 OFFCURVE",
"822 583 CURVE SMOOTH",
"826 572 OFFCURVE",
"829 562 OFFCURVE",
"829 550 CURVE SMOOTH",
"829 523 LINE"
);
}
);
width = 1024;
}
);
unicode = E906;
},
{
glyphname = uniE907;
layers = (
{
layerId = "5789BFD8-8569-4DE2-B3C5-6A0ED3E84C22";
name = Regular;
paths = (
{
closed = 1;
nodes = (
"0 715 LINE",
"0 156 LINE",
"1023 156 LINE",
"1023 715 LINE"
);
},
{
closed = 1;
nodes = (
"181 371 LINE",
"131 235 LINE",
"70 235 LINE",
"152 447 LINE",
"77 640 LINE",
"138 640 LINE",
"182 521 LINE",
"226 640 LINE",
"287 640 LINE",
"210 447 LINE",
"293 235 LINE",
"232 235 LINE"
);
},
{
closed = 1;
nodes = (
"492 235 LINE",
"320 235 LINE",
"320 640 LINE",
"378 640 LINE",
"378 293 LINE",
"494 293 LINE",
"494 235 LINE"
);
},
{
closed = 1;
nodes = (
"718 523 LINE",
"660 523 LINE",
"660 536 LINE SMOOTH",
"660 549 OFFCURVE",
"657 561 OFFCURVE",
"650 570 CURVE",
"645 581 OFFCURVE",
"632 585 OFFCURVE",
"619 585 CURVE SMOOTH",
"610 585 OFFCURVE",
"604 583 OFFCURVE",
"599 580 CURVE",
"596 579 OFFCURVE",
"593 577 OFFCURVE",
"592 575 CURVE SMOOTH",
"591 573 OFFCURVE",
"589 571 OFFCURVE",
"587 569 CURVE",
"584 565 OFFCURVE",
"583 559 OFFCURVE",
"582 552 CURVE",
"581 547 OFFCURVE",
"580 539 OFFCURVE",
"580 532 CURVE SMOOTH",
"580 524 OFFCURVE",
"581 517 OFFCURVE",
"582 512 CURVE",
"582 507 OFFCURVE",
"583 502 OFFCURVE",
"586 498 CURVE SMOOTH",
"589 494 OFFCURVE",
"592 491 OFFCURVE",
"596 488 CURVE SMOOTH",
"600 485 OFFCURVE",
"606 482 OFFCURVE",
"614 479 CURVE SMOOTH",
"658 462 LINE",
"665 460 OFFCURVE",
"671 457 OFFCURVE",
"676 454 CURVE",
"686 447 OFFCURVE",
"695 442 OFFCURVE",
"701 435 CURVE",
"707 427 OFFCURVE",
"710 419 OFFCURVE",
"714 409 CURVE",
"717 399 OFFCURVE",
"718 386 OFFCURVE",
"719 373 CURVE",
"720 366 OFFCURVE",
"720 359 OFFCURVE",
"720 351 CURVE SMOOTH",
"720 334 OFFCURVE",
"718 319 OFFCURVE",
"714 304 CURVE SMOOTH",
"711 291 OFFCURVE",
"705 278 OFFCURVE",
"697 267 CURVE SMOOTH",
"690 258 OFFCURVE",
"678 248 OFFCURVE",
"666 243 CURVE SMOOTH",
"653 238 OFFCURVE",
"638 235 OFFCURVE",
"619 235 CURVE SMOOTH",
"604 235 OFFCURVE",
"591 238 OFFCURVE",
"579 242 CURVE SMOOTH",
"566 246 OFFCURVE",
"556 253 OFFCURVE",
"548 262 CURVE",
"539 270 OFFCURVE",
"531 277 OFFCURVE",
"526 289 CURVE SMOOTH",
"521 300 OFFCURVE",
"519 312 OFFCURVE",
"519 327 CURVE SMOOTH",
"519 348 LINE",
"577 348 LINE",
"577 330 LINE SMOOTH",
"577 319 OFFCURVE",
"580 310 OFFCURVE",
"587 302 CURVE",
"594 293 OFFCURVE",
"604 289 OFFCURVE",
"619 289 CURVE SMOOTH",
"628 289 OFFCURVE",
"636 290 OFFCURVE",
"641 293 CURVE",
"648 296 OFFCURVE",
"651 300 OFFCURVE",
"654 304 CURVE",
"657 311 OFFCURVE",
"659 316 OFFCURVE",
"660 323 CURVE",
"661 326 OFFCURVE",
"661 330 OFFCURVE",
"661 335 CURVE SMOOTH",
"661 339 OFFCURVE",
"661 343 OFFCURVE",
"661 348 CURVE SMOOTH",
"661 353 OFFCURVE",
"661 358 OFFCURVE",
"661 363 CURVE SMOOTH",
"661 368 OFFCURVE",
"661 371 OFFCURVE",
"660 374 CURVE",
"659 381 OFFCURVE",
"657 387 OFFCURVE",
"656 391 CURVE",
"653 395 OFFCURVE",
"650 398 OFFCURVE",
"646 401 CURVE",
"641 404 OFFCURVE",
"636 406 OFFCURVE",
"629 410 CURVE",
"587 427 LINE",
"562 436 OFFCURVE",
"546 451 OFFCURVE",
"538 468 CURVE",
"529 485 OFFCURVE",
"525 507 OFFCURVE",
"525 532 CURVE SMOOTH",
"525 548 OFFCURVE",
"526 562 OFFCURVE",
"530 575 CURVE",
"535 588 OFFCURVE",
"541 601 OFFCURVE",
"549 610 CURVE",
"557 621 OFFCURVE",
"568 627 OFFCURVE",
"580 634 CURVE SMOOTH",
"593 641 OFFCURVE",
"608 643 OFFCURVE",
"624 643 CURVE SMOOTH",
"639 643 OFFCURVE",
"652 641 OFFCURVE",
"664 634 CURVE",
"676 629 OFFCURVE",
"687 621 OFFCURVE",
"695 613 CURVE",
"704 605 OFFCURVE",
"711 595 OFFCURVE",
"715 583 CURVE",
"720 572 OFFCURVE",
"722 562 OFFCURVE",
"722 550 CURVE SMOOTH",
"722 523 LINE"
);
},
{
closed = 1;
nodes = (
"843 371 LINE",
"794 235 LINE",
"732 235 LINE",
"815 447 LINE",
"740 640 LINE",
"801 640 LINE",
"845 521 LINE",
"889 640 LINE",
"950 640 LINE",
"873 447 LINE",
"956 235 LINE",
"895 235 LINE"
);
}
);
width = 1024;
}
);
unicode = E907;
},
{
glyphname = uniE908;
layers = (
{
layerId = "5789BFD8-8569-4DE2-B3C5-6A0ED3E84C22";
name = Regular;
paths = (
{
closed = 1;
nodes = (
"309 563 OFFCURVE",
"311 550 OFFCURVE",
"311 535 CURVE SMOOTH",
"311 340 LINE SMOOTH",
"311 323 OFFCURVE",
"309 310 OFFCURVE",
"302 302 CURVE SMOOTH",
"294 293 OFFCURVE",
"283 289 OFFCURVE",
"267 289 CURVE SMOOTH",
"240 289 LINE",
"240 585 LINE",
"267 585 LINE SMOOTH",
"284 585 OFFCURVE",
"295 580 OFFCURVE",
"302 572 CURVE"
);
},
{
closed = 1;
nodes = (
"1023 715 LINE",
"1023 156 LINE",
"0 156 LINE",
"0 715 LINE"
);
},
{
closed = 1;
nodes = (
"370 535 LINE",
"370 567 OFFCURVE",
"361 593 OFFCURVE",
"344 612 CURVE",
"327 629 OFFCURVE",
"301 639 OFFCURVE",
"269 639 CURVE SMOOTH",
"183 639 LINE",
"183 235 LINE",
"265 235 LINE SMOOTH",
"298 235 OFFCURVE",
"325 243 OFFCURVE",
"344 262 CURVE SMOOTH",
"363 281 OFFCURVE",
"371 307 OFFCURVE",
"371 346 CURVE SMOOTH",
"371 535 LINE"
);
},
{
closed = 1;
nodes = (
"616 559 OFFCURVE",
"614 574 OFFCURVE",
"607 586 CURVE",
"602 599 OFFCURVE",
"594 609 OFFCURVE",
"585 617 CURVE",
"574 626 OFFCURVE",
"565 632 OFFCURVE",
"553 636 CURVE SMOOTH",
"542 640 OFFCURVE",
"530 641 OFFCURVE",
"518 641 CURVE SMOOTH",
"506 641 OFFCURVE",
"495 640 OFFCURVE",
"482 636 CURVE",
"471 632 OFFCURVE",
"460 626 OFFCURVE",
"451 617 CURVE",
"440 609 OFFCURVE",
"433 599 OFFCURVE",
"428 586 CURVE SMOOTH",
"423 573 OFFCURVE",
"420 559 OFFCURVE",
"420 543 CURVE SMOOTH",
"420 330 LINE SMOOTH",
"420 313 OFFCURVE",
"423 298 OFFCURVE",
"428 286 CURVE SMOOTH",
"433 273 OFFCURVE",
"440 263 OFFCURVE",
"451 255 CURVE",
"460 246 OFFCURVE",
"471 240 OFFCURVE",
"482 236 CURVE SMOOTH",
"494 232 OFFCURVE",
"505 230 OFFCURVE",
"518 230 CURVE SMOOTH",
"529 230 OFFCURVE",
"541 232 OFFCURVE",
"553 236 CURVE SMOOTH",
"565 240 OFFCURVE",
"574 246 OFFCURVE",
"585 255 CURVE",
"594 263 OFFCURVE",
"602 273 OFFCURVE",
"607 286 CURVE",
"614 298 OFFCURVE",
"616 313 OFFCURVE",
"616 330 CURVE SMOOTH",
"616 543 LINE SMOOTH"
);
},
{
closed = 1;
nodes = (
"850 546 LINE",
"850 561 OFFCURVE",
"848 573 OFFCURVE",
"843 585 CURVE",
"839 596 OFFCURVE",
"832 607 OFFCURVE",
"823 616 CURVE SMOOTH",
"815 624 OFFCURVE",
"805 632 OFFCURVE",
"794 636 CURVE SMOOTH",
"782 640 OFFCURVE",
"769 643 OFFCURVE",
"757 643 CURVE SMOOTH",
"742 643 OFFCURVE",
"730 640 OFFCURVE",
"718 636 CURVE SMOOTH",
"707 632 OFFCURVE",
"697 624 OFFCURVE",
"688 616 CURVE",
"684 611 OFFCURVE",
"681 607 OFFCURVE",
"678 602 CURVE SMOOTH",
"675 597 OFFCURVE",
"671 591 OFFCURVE",
"668 586 CURVE",
"664 574 OFFCURVE",
"661 562 OFFCURVE",
"661 549 CURVE SMOOTH",
"661 326 LINE SMOOTH",
"661 307 OFFCURVE",
"665 292 OFFCURVE",
"670 280 CURVE SMOOTH",
"675 268 OFFCURVE",
"682 259 OFFCURVE",
"693 250 CURVE SMOOTH",
"701 243 OFFCURVE",
"712 238 OFFCURVE",
"724 235 CURVE SMOOTH",
"735 232 OFFCURVE",
"747 230 OFFCURVE",
"758 230 CURVE SMOOTH",
"771 230 OFFCURVE",
"783 233 OFFCURVE",
"794 238 CURVE SMOOTH",
"805 243 OFFCURVE",
"815 249 OFFCURVE",
"823 257 CURVE SMOOTH",
"832 266 OFFCURVE",
"838 276 OFFCURVE",
"843 287 CURVE SMOOTH",
"848 299 OFFCURVE",
"850 310 OFFCURVE",
"850 323 CURVE SMOOTH",
"850 348 LINE",
"792 348 LINE",
"792 329 LINE SMOOTH",
"792 320 OFFCURVE",
"790 314 OFFCURVE",
"789 309 CURVE",
"786 302 OFFCURVE",
"784 299 OFFCURVE",
"781 296 CURVE",
"779 295 OFFCURVE",
"777 293 OFFCURVE",
"776 292 CURVE",
"772 289 OFFCURVE",
"767 288 OFFCURVE",
"763 288 CURVE",
"761 287 OFFCURVE",
"759 287 OFFCURVE",
"757 287 CURVE SMOOTH",
"744 287 OFFCURVE",
"734 291 OFFCURVE",
"730 299 CURVE",
"723 307 OFFCURVE",
"722 317 OFFCURVE",
"722 329 CURVE SMOOTH",
"722 538 LINE SMOOTH",
"722 551 OFFCURVE",
"725 563 OFFCURVE",
"730 572 CURVE",
"734 580 OFFCURVE",
"743 585 OFFCURVE",
"758 585 CURVE SMOOTH",
"770 585 OFFCURVE",
"777 580 OFFCURVE",
"784 572 CURVE",
"791 563 OFFCURVE",
"794 553 OFFCURVE",
"794 542 CURVE SMOOTH",
"794 522 LINE",
"852 522 LINE",
"852 546 LINE"
);
},
{
closed = 1;
nodes = (
"507 585 OFFCURVE",
"498 582 OFFCURVE",
"491 575 CURVE SMOOTH",
"483 567 OFFCURVE",
"479 558 OFFCURVE",
"479 543 CURVE SMOOTH",
"479 330 LINE SMOOTH",
"479 315 OFFCURVE",
"483 306 OFFCURVE",
"491 299 CURVE",
"498 291 OFFCURVE",
"507 289 OFFCURVE",
"518 289 CURVE SMOOTH",
"527 289 OFFCURVE",
"537 291 OFFCURVE",
"545 299 CURVE SMOOTH",
"552 306 OFFCURVE",
"556 315 OFFCURVE",
"556 330 CURVE SMOOTH",
"556 543 LINE SMOOTH",
"556 558 OFFCURVE",
"552 567 OFFCURVE",
"545 575 CURVE",
"537 582 OFFCURVE",
"529 585 OFFCURVE",
"518 585 CURVE SMOOTH"
);
}
);
width = 1024;
}
);
unicode = E908;
},
{
glyphname = uniE909;
layers = (
{
layerId = "5789BFD8-8569-4DE2-B3C5-6A0ED3E84C22";
name = Regular;
paths = (
{
closed = 1;
nodes = (
"199 563 OFFCURVE",
"202 550 OFFCURVE",
"202 535 CURVE SMOOTH",
"202 340 LINE SMOOTH",
"202 323 OFFCURVE",
"199 310 OFFCURVE",
"192 302 CURVE",
"185 293 OFFCURVE",
"174 289 OFFCURVE",
"158 289 CURVE SMOOTH",
"129 289 LINE",
"129 585 LINE",
"156 585 LINE SMOOTH",
"173 585 OFFCURVE",
"185 580 OFFCURVE",
"192 572 CURVE"
);
},
{
closed = 1;
nodes = (
"399 585 OFFCURVE",
"388 582 OFFCURVE",
"381 575 CURVE",
"374 567 OFFCURVE",
"370 558 OFFCURVE",
"370 543 CURVE SMOOTH",
"370 330 LINE SMOOTH",
"370 315 OFFCURVE",
"374 306 OFFCURVE",
"381 299 CURVE",
"388 291 OFFCURVE",
"399 289 OFFCURVE",
"408 289 CURVE SMOOTH",
"419 289 OFFCURVE",
"428 291 OFFCURVE",
"435 299 CURVE",
"443 306 OFFCURVE",
"447 315 OFFCURVE",
"447 330 CURVE SMOOTH",
"447 543 LINE SMOOTH",
"447 558 OFFCURVE",
"443 567 OFFCURVE",
"435 575 CURVE SMOOTH",
"428 582 OFFCURVE",
"419 585 OFFCURVE",
"408 585 CURVE SMOOTH"
);
},
{
closed = 1;
nodes = (
"1023 715 LINE",
"1023 156 LINE",
"0 156 LINE",
"0 715 LINE"
);
},
{
closed = 1;
nodes = (
"259 567 OFFCURVE",
"250 593 OFFCURVE",
"233 612 CURVE",
"216 629 OFFCURVE",
"190 639 OFFCURVE",
"158 639 CURVE SMOOTH",
"71 639 LINE",
"71 235 LINE",
"152 235 LINE SMOOTH",
"187 235 OFFCURVE",
"213 243 OFFCURVE",
"232 262 CURVE SMOOTH",
"251 281 OFFCURVE",
"259 307 OFFCURVE",
"259 346 CURVE SMOOTH",
"259 535 LINE SMOOTH"
);
},
{
closed = 1;
nodes = (
"505 543 LINE",
"505 559 OFFCURVE",
"503 574 OFFCURVE",
"496 586 CURVE",
"491 597 OFFCURVE",
"483 610 OFFCURVE",
"474 619 CURVE",
"463 627 OFFCURVE",
"454 633 OFFCURVE",
"442 637 CURVE SMOOTH",
"431 641 OFFCURVE",
"419 643 OFFCURVE",
"407 643 CURVE SMOOTH",
"394 643 OFFCURVE",
"384 641 OFFCURVE",
"371 637 CURVE",
"366 635 OFFCURVE",
"362 632 OFFCURVE",
"357 629 CURVE SMOOTH",
"352 626 OFFCURVE",
"346 622 OFFCURVE",
"341 619 CURVE",
"332 610 OFFCURVE",
"324 600 OFFCURVE",
"319 587 CURVE",
"312 575 OFFCURVE",
"310 560 OFFCURVE",
"310 545 CURVE SMOOTH",
"310 331 LINE SMOOTH",
"310 315 OFFCURVE",
"312 300 OFFCURVE",
"319 287 CURVE",
"324 275 OFFCURVE",
"332 264 OFFCURVE",
"341 256 CURVE",
"352 248 OFFCURVE",
"361 242 OFFCURVE",
"373 238 CURVE",
"384 233 OFFCURVE",
"396 232 OFFCURVE",
"408 232 CURVE SMOOTH",
"421 232 OFFCURVE",
"431 233 OFFCURVE",
"444 238 CURVE SMOOTH",
"455 242 OFFCURVE",
"466 248 OFFCURVE",
"475 256 CURVE SMOOTH",
"484 264 OFFCURVE",
"493 275 OFFCURVE",
"498 287 CURVE SMOOTH",
"503 300 OFFCURVE",
"506 315 OFFCURVE",
"506 331 CURVE SMOOTH",
"506 543 LINE"
);
},
{
closed = 1;
nodes = (
"741 546 LINE",
"741 561 OFFCURVE",
"738 573 OFFCURVE",
"734 585 CURVE SMOOTH",
"730 596 OFFCURVE",
"722 607 OFFCURVE",
"714 616 CURVE",
"706 624 OFFCURVE",
"696 632 OFFCURVE",
"684 636 CURVE SMOOTH",
"673 640 OFFCURVE",
"660 643 OFFCURVE",
"647 643 CURVE SMOOTH",
"632 643 OFFCURVE",
"620 640 OFFCURVE",
"609 636 CURVE SMOOTH",
"597 632 OFFCURVE",
"587 624 OFFCURVE",
"579 616 CURVE SMOOTH",
"570 607 OFFCURVE",
"564 597 OFFCURVE",
"559 586 CURVE SMOOTH",
"554 574 OFFCURVE",
"552 562 OFFCURVE",
"552 549 CURVE SMOOTH",
"552 326 LINE SMOOTH",
"552 307 OFFCURVE",
"555 292 OFFCURVE",
"560 280 CURVE",
"567 268 OFFCURVE",
"574 259 OFFCURVE",
"583 250 CURVE",
"592 243 OFFCURVE",
"603 238 OFFCURVE",
"614 235 CURVE SMOOTH",
"626 232 OFFCURVE",
"637 230 OFFCURVE",
"649 230 CURVE SMOOTH",
"661 230 OFFCURVE",
"675 233 OFFCURVE",
"684 238 CURVE",
"696 243 OFFCURVE",
"706 249 OFFCURVE",
"714 257 CURVE",
"722 266 OFFCURVE",
"729 276 OFFCURVE",
"734 287 CURVE",
"738 299 OFFCURVE",
"741 310 OFFCURVE",
"741 323 CURVE SMOOTH",
"741 348 LINE",
"683 348 LINE",
"683 329 LINE SMOOTH",
"683 320 OFFCURVE",
"681 314 OFFCURVE",
"680 309 CURVE",
"677 302 OFFCURVE",
"674 299 OFFCURVE",
"671 296 CURVE",
"669 295 OFFCURVE",
"667 293 OFFCURVE",
"666 292 CURVE",
"662 289 OFFCURVE",
"658 288 OFFCURVE",
"654 288 CURVE",
"651 287 OFFCURVE",
"649 287 OFFCURVE",
"647 287 CURVE SMOOTH",
"635 287 OFFCURVE",
"624 291 OFFCURVE",
"620 299 CURVE",
"615 307 OFFCURVE",
"613 317 OFFCURVE",
"613 329 CURVE SMOOTH",
"613 538 LINE SMOOTH",
"613 551 OFFCURVE",
"616 563 OFFCURVE",
"620 572 CURVE",
"624 580 OFFCURVE",
"634 585 OFFCURVE",
"649 585 CURVE SMOOTH",
"660 585 OFFCURVE",
"669 580 OFFCURVE",
"674 572 CURVE",
"679 563 OFFCURVE",
"684 553 OFFCURVE",
"684 542 CURVE SMOOTH",
"684 522 LINE",
"742 522 LINE",
"742 546 LINE"
);
},
{
closed = 1;
nodes = (
"899 447 LINE",
"976 640 LINE",
"914 640 LINE",
"870 519 LINE",
"826 639 LINE",
"765 639 LINE",
"841 445 LINE",
"759 235 LINE",
"821 235 LINE",
"870 371 LINE",
"922 235 LINE",
"983 235 LINE"
);
}
);
width = 1024;
}
);
unicode = E909;
},
{
glyphname = uniE90A;
layers = (
{
layerId = "5789BFD8-8569-4DE2-B3C5-6A0ED3E84C22";
name = Regular;
paths = (
{
closed = 1;
nodes = (
"579 537 OFFCURVE",
"579 533 OFFCURVE",
"580 529 CURVE",
"580 524 OFFCURVE",
"580 520 OFFCURVE",
"580 515 CURVE SMOOTH",
"580 510 OFFCURVE",
"580 505 OFFCURVE",
"580 500 CURVE SMOOTH",
"580 491 OFFCURVE",
"580 482 OFFCURVE",
"577 475 CURVE",
"574 467 OFFCURVE",
"572 462 OFFCURVE",
"568 458 CURVE SMOOTH",
"563 453 OFFCURVE",
"556 450 OFFCURVE",
"547 447 CURVE",
"542 446 OFFCURVE",
"537 445 OFFCURVE",
"532 445 CURVE SMOOTH",
"503 445 LINE",
"503 583 LINE",
"533 583 LINE SMOOTH",
"545 583 OFFCURVE",
"554 582 OFFCURVE",
"559 577 CURVE",
"564 573 OFFCURVE",
"569 568 OFFCURVE",
"572 563 CURVE",
"576 559 OFFCURVE",
"579 550 OFFCURVE",
"579 542 CURVE SMOOTH"
);
},
{
closed = 1;
nodes = (
"340 570 OFFCURVE",
"335 576 OFFCURVE",
"330 579 CURVE",
"325 583 OFFCURVE",
"316 585 OFFCURVE",
"304 585 CURVE SMOOTH",
"274 585 LINE",
"274 447 LINE",
"303 447 LINE SMOOTH",
"314 447 OFFCURVE",
"325 448 OFFCURVE",
"330 452 CURVE",
"337 455 OFFCURVE",
"341 461 OFFCURVE",
"344 466 CURVE",
"347 473 OFFCURVE",
"349 479 OFFCURVE",
"350 488 CURVE",
"350 492 OFFCURVE",
"350 496 OFFCURVE",
"351 501 CURVE",
"351 506 OFFCURVE",
"351 511 OFFCURVE",
"351 516 CURVE SMOOTH",
"351 521 OFFCURVE",
"351 526 OFFCURVE",
"351 531 CURVE SMOOTH",
"351 539 OFFCURVE",
"349 547 OFFCURVE",
"347 555 CURVE",
"346 558 OFFCURVE",
"344 562 OFFCURVE",
"343 565 CURVE"
);
},
{
closed = 1;
nodes = (
"1023 715 LINE",
"1023 156 LINE",
"0 156 LINE",
"0 715 LINE"
);
},
{
closed = 1;
nodes = (
"402 540 OFFCURVE",
"401 560 OFFCURVE",
"397 575 CURVE",
"393 588 OFFCURVE",
"386 601 OFFCURVE",
"377 612 CURVE",
"366 621 OFFCURVE",
"356 630 OFFCURVE",
"344 634 CURVE",
"332 639 OFFCURVE",
"318 640 OFFCURVE",
"302 640 CURVE SMOOTH",
"215 640 LINE",
"215 235 LINE",
"273 235 LINE",
"273 393 LINE",
"303 393 LINE SMOOTH",
"324 393 OFFCURVE",
"341 397 OFFCURVE",
"356 404 CURVE",
"368 411 OFFCURVE",
"380 422 OFFCURVE",
"387 435 CURVE SMOOTH",
"394 447 OFFCURVE",
"399 458 OFFCURVE",
"400 471 CURVE",
"401 477 OFFCURVE",
"402 484 OFFCURVE",
"402 491 CURVE SMOOTH",
"402 498 OFFCURVE",
"402 507 OFFCURVE",
"402 516 CURVE SMOOTH"
);
},
{
closed = 1;
nodes = (
"634 540 OFFCURVE",
"633 560 OFFCURVE",
"629 575 CURVE",
"624 588 OFFCURVE",
"618 601 OFFCURVE",
"609 612 CURVE",
"598 621 OFFCURVE",
"588 630 OFFCURVE",
"576 634 CURVE",
"563 639 OFFCURVE",
"550 640 OFFCURVE",
"533 640 CURVE SMOOTH",
"447 640 LINE",
"447 235 LINE",
"505 235 LINE",
"505 393 LINE",
"535 393 LINE SMOOTH",
"556 393 OFFCURVE",
"574 397 OFFCURVE",
"587 404 CURVE SMOOTH",
"600 411 OFFCURVE",
"611 422 OFFCURVE",
"619 435 CURVE SMOOTH",
"626 447 OFFCURVE",
"630 458 OFFCURVE",
"631 471 CURVE",
"634 483 OFFCURVE",
"634 497 OFFCURVE",
"634 516 CURVE SMOOTH"
);
},
{
closed = 1;
nodes = (
"649 640 LINE",
"649 586 LINE",
"715 586 LINE",
"715 235 LINE",
"774 235 LINE",
"774 585 LINE",
"841 585 LINE",
"841 640 LINE"
);
}
);
width = 1024;
}
);
unicode = E90A;
},
{
glyphname = uniE90B;
layers = (
{
layerId = "5789BFD8-8569-4DE2-B3C5-6A0ED3E84C22";
name = Regular;
paths = (
{
closed = 1;
nodes = (
"223 537 OFFCURVE",
"223 533 OFFCURVE",
"224 529 CURVE",
"225 524 OFFCURVE",
"225 520 OFFCURVE",
"225 515 CURVE SMOOTH",
"225 504 OFFCURVE",
"224 495 OFFCURVE",
"223 486 CURVE",
"223 478 OFFCURVE",
"221 470 OFFCURVE",
"218 465 CURVE",
"214 460 OFFCURVE",
"211 455 OFFCURVE",
"203 451 CURVE",
"196 448 OFFCURVE",
"188 445 OFFCURVE",
"176 445 CURVE SMOOTH",
"148 445 LINE",
"148 583 LINE",
"178 583 LINE SMOOTH",
"189 583 OFFCURVE",
"198 582 OFFCURVE",
"203 577 CURVE",
"210 573 OFFCURVE",
"213 568 OFFCURVE",
"216 563 CURVE",
"220 559 OFFCURVE",
"222 550 OFFCURVE",
"223 542 CURVE"
);
},
{
closed = 1;
nodes = (
"446 570 OFFCURVE",
"442 576 OFFCURVE",
"437 579 CURVE SMOOTH",
"430 583 OFFCURVE",
"423 585 OFFCURVE",
"411 585 CURVE SMOOTH",
"381 585 LINE",
"381 447 LINE",
"410 447 LINE SMOOTH",
"421 447 OFFCURVE",
"430 448 OFFCURVE",
"437 452 CURVE",
"444 455 OFFCURVE",
"448 461 OFFCURVE",
"451 466 CURVE",
"452 469 OFFCURVE",
"453 473 OFFCURVE",
"454 476 CURVE",
"455 483 OFFCURVE",
"457 492 OFFCURVE",
"458 501 CURVE",
"458 506 OFFCURVE",
"458 511 OFFCURVE",
"458 516 CURVE SMOOTH",
"458 521 OFFCURVE",
"458 526 OFFCURVE",
"458 531 CURVE SMOOTH",
"458 535 OFFCURVE",
"458 539 OFFCURVE",
"457 543 CURVE",
"455 547 OFFCURVE",
"454 551 OFFCURVE",
"453 555 CURVE",
"452 558 OFFCURVE",
"451 562 OFFCURVE",
"449 565 CURVE"
);
},
{
closed = 1;
nodes = (
"1024 715 LINE",
"1024 156 LINE",
"1 156 LINE",
"1 715 LINE"
);
},
{
closed = 1;
nodes = (
"279 540 OFFCURVE",
"277 560 OFFCURVE",
"273 575 CURVE",
"269 588 OFFCURVE",
"264 601 OFFCURVE",
"253 612 CURVE SMOOTH",
"244 621 OFFCURVE",
"232 630 OFFCURVE",
"220 634 CURVE",
"208 639 OFFCURVE",
"195 640 OFFCURVE",
"178 640 CURVE SMOOTH",
"90 640 LINE",
"90 235 LINE",
"148 235 LINE",
"148 393 LINE",
"178 393 LINE SMOOTH",
"199 393 OFFCURVE",
"217 397 OFFCURVE",
"230 404 CURVE SMOOTH",
"243 411 OFFCURVE",
"254 422 OFFCURVE",
"262 435 CURVE SMOOTH",
"269 447 OFFCURVE",
"273 458 OFFCURVE",
"274 471 CURVE",
"278 483 OFFCURVE",
"279 497 OFFCURVE",
"279 516 CURVE SMOOTH"
);
},
{
closed = 1;
nodes = (
"511 540 OFFCURVE",
"509 560 OFFCURVE",
"505 575 CURVE",
"501 588 OFFCURVE",
"494 601 OFFCURVE",
"485 612 CURVE",
"476 621 OFFCURVE",
"464 630 OFFCURVE",
"452 634 CURVE",
"440 639 OFFCURVE",
"426 640 OFFCURVE",
"410 640 CURVE SMOOTH",
"323 640 LINE",
"323 235 LINE",
"381 235 LINE",
"381 393 LINE",
"411 393 LINE SMOOTH",
"432 393 OFFCURVE",
"449 397 OFFCURVE",
"464 404 CURVE",
"476 411 OFFCURVE",
"488 422 OFFCURVE",
"495 435 CURVE SMOOTH",
"502 447 OFFCURVE",
"507 458 OFFCURVE",
"508 471 CURVE SMOOTH",
"509 483 OFFCURVE",
"511 497 OFFCURVE",
"511 516 CURVE SMOOTH"
);
},
{
closed = 1;
nodes = (
"525 640 LINE",
"525 586 LINE",
"592 586 LINE",
"592 235 LINE",
"650 235 LINE",
"650 585 LINE",
"717 585 LINE",
"717 640 LINE"
);
},
{
closed = 1;
nodes = (
"882 447 LINE",
"959 640 LINE",
"897 640 LINE",
"853 519 LINE",
"809 639 LINE",
"748 639 LINE",
"823 445 LINE",
"742 235 LINE",
"804 235 LINE",
"853 371 LINE",
"905 235 LINE",
"966 235 LINE"
);
}
);
width = 1024;
}
);
unicode = E90B;
},
{
glyphname = uniE90C;
layers = (
{
layerId = "5789BFD8-8569-4DE2-B3C5-6A0ED3E84C22";
name = Regular;
paths = (
{
closed = 1;
nodes = (
"536 377 LINE",
"478 377 LINE",
"508 523 LINE"
);
},
{
closed = 1;
nodes = (
"708 585 LINE",
"708 289 LINE",
"735 289 LINE SMOOTH",
"751 289 OFFCURVE",
"764 293 OFFCURVE",
"769 302 CURVE",
"777 310 OFFCURVE",
"779 323 OFFCURVE",
"779 340 CURVE SMOOTH",
"779 535 LINE SMOOTH",
"779 550 OFFCURVE",
"777 563 OFFCURVE",
"769 572 CURVE",
"764 580 OFFCURVE",
"752 585 OFFCURVE",
"735 585 CURVE SMOOTH"
);
},
{
closed = 1;
nodes = (
"1023 715 LINE",
"1023 156 LINE",
"0 156 LINE",
"0 715 LINE"
);
},
{
closed = 1;
nodes = (
"371 546 LINE",
"371 561 OFFCURVE",
"368 573 OFFCURVE",
"364 585 CURVE SMOOTH",
"360 596 OFFCURVE",
"353 607 OFFCURVE",
"344 616 CURVE SMOOTH",
"336 624 OFFCURVE",
"326 632 OFFCURVE",
"314 636 CURVE SMOOTH",
"303 640 OFFCURVE",
"290 643 OFFCURVE",
"277 643 CURVE SMOOTH",
"264 643 OFFCURVE",
"250 640 OFFCURVE",
"239 636 CURVE SMOOTH",
"227 632 OFFCURVE",
"217 624 OFFCURVE",
"209 616 CURVE",
"201 607 OFFCURVE",
"194 597 OFFCURVE",
"189 586 CURVE SMOOTH",
"184 574 OFFCURVE",
"182 562 OFFCURVE",
"182 549 CURVE SMOOTH",
"182 326 LINE SMOOTH",
"182 307 OFFCURVE",
"184 292 OFFCURVE",
"191 280 CURVE",
"196 268 OFFCURVE",
"204 259 OFFCURVE",
"213 250 CURVE",
"222 243 OFFCURVE",
"233 238 OFFCURVE",
"245 235 CURVE SMOOTH",
"256 232 OFFCURVE",
"267 230 OFFCURVE",
"279 230 CURVE SMOOTH",
"291 230 OFFCURVE",
"305 233 OFFCURVE",
"314 238 CURVE",
"326 243 OFFCURVE",
"336 249 OFFCURVE",
"344 257 CURVE SMOOTH",
"353 266 OFFCURVE",
"359 276 OFFCURVE",
"364 287 CURVE",
"368 299 OFFCURVE",
"371 310 OFFCURVE",
"371 323 CURVE SMOOTH",
"371 348 LINE",
"313 348 LINE",
"313 329 LINE SMOOTH",
"313 320 OFFCURVE",
"311 314 OFFCURVE",
"310 309 CURVE",
"307 302 OFFCURVE",
"305 299 OFFCURVE",
"302 296 CURVE",
"299 295 OFFCURVE",
"297 293 OFFCURVE",
"296 292 CURVE",
"292 289 OFFCURVE",
"288 288 OFFCURVE",
"284 288 CURVE",
"282 287 OFFCURVE",
"280 287 OFFCURVE",
"277 287 CURVE SMOOTH",
"265 287 OFFCURVE",
"255 291 OFFCURVE",
"250 299 CURVE SMOOTH",
"245 307 OFFCURVE",
"243 317 OFFCURVE",
"243 329 CURVE SMOOTH",
"243 538 LINE SMOOTH",
"243 551 OFFCURVE",
"246 563 OFFCURVE",
"250 572 CURVE",
"255 580 OFFCURVE",
"264 585 OFFCURVE",
"279 585 CURVE SMOOTH",
"290 585 OFFCURVE",
"299 580 OFFCURVE",
"304 572 CURVE",
"312 563 OFFCURVE",
"314 553 OFFCURVE",
"314 542 CURVE SMOOTH",
"314 522 LINE",
"373 522 LINE",
"373 546 LINE"
);
},
{
closed = 1;
nodes = (
"530 640 LINE",
"484 640 LINE",
"393 235 LINE",
"451 235 LINE",
"468 321 LINE",
"548 321 LINE",
"565 235 LINE",
"622 235 LINE"
);
},
{
closed = 1;
nodes = (
"838 535 LINE",
"838 567 OFFCURVE",
"829 593 OFFCURVE",
"812 612 CURVE",
"795 629 OFFCURVE",
"769 639 OFFCURVE",
"737 639 CURVE SMOOTH",
"651 639 LINE",
"651 235 LINE",
"732 235 LINE SMOOTH",
"767 235 OFFCURVE",
"793 243 OFFCURVE",
"812 262 CURVE SMOOTH",
"831 281 OFFCURVE",
"839 307 OFFCURVE",
"839 346 CURVE SMOOTH",
"839 535 LINE"
);
}
);
width = 1024;
}
);
unicode = E90C;
},
{
glyphname = uniE90D;
layers = (
{
layerId = "5789BFD8-8569-4DE2-B3C5-6A0ED3E84C22";
name = Regular;
paths = (
{
closed = 1;
nodes = (
"710 537 OFFCURVE",
"710 533 OFFCURVE",
"711 529 CURVE",
"711 524 OFFCURVE",
"711 520 OFFCURVE",
"711 515 CURVE SMOOTH",
"711 510 OFFCURVE",
"711 505 OFFCURVE",
"711 500 CURVE SMOOTH",
"711 491 OFFCURVE",
"711 482 OFFCURVE",
"708 475 CURVE",
"705 467 OFFCURVE",
"703 462 OFFCURVE",
"699 458 CURVE SMOOTH",
"694 453 OFFCURVE",
"686 450 OFFCURVE",
"678 447 CURVE",
"673 446 OFFCURVE",
"668 445 OFFCURVE",
"663 445 CURVE SMOOTH",
"634 445 LINE",
"634 583 LINE",
"664 583 LINE SMOOTH",
"676 583 OFFCURVE",
"685 582 OFFCURVE",
"690 577 CURVE",
"695 573 OFFCURVE",
"699 568 OFFCURVE",
"703 563 CURVE",
"707 559 OFFCURVE",
"709 550 OFFCURVE",
"710 542 CURVE"
);
},
{
closed = 1;
nodes = (
"1023 715 LINE",
"1023 156 LINE",
"-1 156 LINE",
"-1 715 LINE"
);
},
{
closed = 1;
nodes = (
"424 640 LINE",
"257 640 LINE",
"257 586 LINE",
"361 586 LINE",
"252 287 LINE",
"252 235 LINE",
"424 235 LINE",
"424 289 LINE",
"313 289 LINE",
"424 593 LINE"
);
},
{
closed = 1;
nodes = (
"521 640 LINE",
"462 640 LINE",
"462 235 LINE",
"521 235 LINE"
);
},
{
closed = 1;
nodes = (
"765 540 OFFCURVE",
"764 560 OFFCURVE",
"759 575 CURVE SMOOTH",
"755 588 OFFCURVE",
"749 601 OFFCURVE",
"740 612 CURVE",
"729 621 OFFCURVE",
"718 630 OFFCURVE",
"707 634 CURVE SMOOTH",
"694 639 OFFCURVE",
"681 640 OFFCURVE",
"664 640 CURVE SMOOTH",
"577 640 LINE",
"577 235 LINE",
"636 235 LINE",
"636 393 LINE",
"666 393 LINE SMOOTH",
"687 393 OFFCURVE",
"705 397 OFFCURVE",
"718 404 CURVE SMOOTH",
"731 411 OFFCURVE",
"742 422 OFFCURVE",
"750 435 CURVE SMOOTH",
"757 447 OFFCURVE",
"761 458 OFFCURVE",
"762 471 CURVE SMOOTH",
"763 483 OFFCURVE",
"765 497 OFFCURVE",
"765 516 CURVE SMOOTH"
);
}
);
width = 1024;
}
);
unicode = E90D;
},
{
glyphname = uniE90E;
layers = (
{
layerId = "5789BFD8-8569-4DE2-B3C5-6A0ED3E84C22";
name = Regular;
paths = (
{
closed = 1;
nodes = (
"0 715 LINE",
"0 156 LINE",
"1023 156 LINE",
"1023 715 LINE"
);
},
{
closed = 1;
nodes = (
"459 523 LINE",
"401 523 LINE",
"401 536 LINE SMOOTH",
"401 549 OFFCURVE",
"398 561 OFFCURVE",
"391 570 CURVE",
"386 581 OFFCURVE",
"373 585 OFFCURVE",
"360 585 CURVE SMOOTH",
"351 585 OFFCURVE",
"345 583 OFFCURVE",
"340 580 CURVE SMOOTH",
"335 577 OFFCURVE",
"332 573 OFFCURVE",
"329 569 CURVE",
"325 565 OFFCURVE",
"324 559 OFFCURVE",
"323 552 CURVE",
"322 547 OFFCURVE",
"321 539 OFFCURVE",
"321 532 CURVE SMOOTH",
"321 524 OFFCURVE",
"322 517 OFFCURVE",
"323 512 CURVE",
"323 507 OFFCURVE",
"324 502 OFFCURVE",
"327 498 CURVE SMOOTH",
"330 494 OFFCURVE",
"333 491 OFFCURVE",
"337 488 CURVE SMOOTH",
"341 485 OFFCURVE",
"347 482 OFFCURVE",
"356 479 CURVE",
"400 462 LINE",
"412 458 OFFCURVE",
"423 450 OFFCURVE",
"431 445 CURVE",
"439 438 OFFCURVE",
"445 431 OFFCURVE",
"449 422 CURVE",
"454 414 OFFCURVE",
"457 404 OFFCURVE",
"458 391 CURVE SMOOTH",
"459 380 OFFCURVE",
"461 367 OFFCURVE",
"461 351 CURVE SMOOTH",
"461 334 OFFCURVE",
"459 319 OFFCURVE",
"455 304 CURVE SMOOTH",
"452 291 OFFCURVE",
"446 278 OFFCURVE",
"438 267 CURVE SMOOTH",
"431 258 OFFCURVE",
"419 248 OFFCURVE",
"407 243 CURVE SMOOTH",
"394 238 OFFCURVE",
"379 235 OFFCURVE",
"360 235 CURVE SMOOTH",
"345 235 OFFCURVE",
"333 238 OFFCURVE",
"320 242 CURVE SMOOTH",
"307 246 OFFCURVE",
"297 253 OFFCURVE",
"289 262 CURVE",
"280 270 OFFCURVE",
"274 280 OFFCURVE",
"267 292 CURVE",
"262 303 OFFCURVE",
"260 315 OFFCURVE",
"260 330 CURVE SMOOTH",
"260 348 LINE",
"319 348 LINE",
"319 330 LINE SMOOTH",
"319 319 OFFCURVE",
"321 310 OFFCURVE",
"329 302 CURVE",
"336 293 OFFCURVE",
"345 289 OFFCURVE",
"360 289 CURVE SMOOTH",
"369 289 OFFCURVE",
"376 290 OFFCURVE",
"383 293 CURVE",
"388 296 OFFCURVE",
"392 300 OFFCURVE",
"395 304 CURVE",
"399 311 OFFCURVE",
"400 316 OFFCURVE",
"401 323 CURVE",
"402 326 OFFCURVE",
"402 330 OFFCURVE",
"402 335 CURVE SMOOTH",
"402 339 OFFCURVE",
"402 343 OFFCURVE",
"402 348 CURVE SMOOTH",
"402 353 OFFCURVE",
"402 358 OFFCURVE",
"402 363 CURVE SMOOTH",
"402 368 OFFCURVE",
"402 371 OFFCURVE",
"401 374 CURVE",
"400 381 OFFCURVE",
"398 387 OFFCURVE",
"397 391 CURVE",
"394 395 OFFCURVE",
"391 398 OFFCURVE",
"387 401 CURVE",
"385 402 OFFCURVE",
"383 404 OFFCURVE",
"380 405 CURVE SMOOTH",
"377 406 OFFCURVE",
"373 408 OFFCURVE",
"370 410 CURVE",
"327 428 LINE SMOOTH",
"302 439 OFFCURVE",
"286 453 OFFCURVE",
"277 469 CURVE",
"269 486 OFFCURVE",
"265 508 OFFCURVE",
"265 533 CURVE SMOOTH",
"265 549 OFFCURVE",
"266 563 OFFCURVE",
"270 576 CURVE",
"274 591 OFFCURVE",
"280 601 OFFCURVE",
"289 612 CURVE",
"297 621 OFFCURVE",
"307 628 OFFCURVE",
"320 636 CURVE",
"333 641 OFFCURVE",
"347 644 OFFCURVE",
"364 644 CURVE SMOOTH",
"379 644 OFFCURVE",
"391 641 OFFCURVE",
"404 636 CURVE",
"409 633 OFFCURVE",
"415 629 OFFCURVE",
"421 626 CURVE",
"432 619 OFFCURVE",
"440 611 OFFCURVE",
"447 601 CURVE SMOOTH",
"454 591 OFFCURVE",
"457 579 OFFCURVE",
"460 568 CURVE",
"461 563 OFFCURVE",
"462 557 OFFCURVE",
"462 552 CURVE SMOOTH",
"462 523 LINE"
);
},
{
closed = 1;
nodes = (
"563 235 LINE",
"505 235 LINE",
"505 640 LINE",
"563 640 LINE"
);
},
{
closed = 1;
nodes = (
"715 585 LINE",
"715 235 LINE",
"657 235 LINE",
"657 585 LINE",
"590 585 LINE",
"590 639 LINE",
"782 639 LINE",
"782 585 LINE"
);
}
);
width = 1024;
}
);
unicode = E90E;
},
{
glyphname = uniE90F;
layers = (
{
layerId = "5789BFD8-8569-4DE2-B3C5-6A0ED3E84C22";
name = Regular;
paths = (
{
closed = 1;
nodes = (
"0 710 LINE",
"0 151 LINE",
"1023 151 LINE",
"1023 710 LINE"
);
},
{
closed = 1;
nodes = (
"336 518 LINE",
"277 518 LINE",
"277 530 LINE SMOOTH",
"277 543 OFFCURVE",
"275 554 OFFCURVE",
"267 565 CURVE SMOOTH",
"260 574 OFFCURVE",
"251 579 OFFCURVE",
"236 579 CURVE SMOOTH",
"228 579 OFFCURVE",
"221 578 OFFCURVE",
"216 575 CURVE",
"211 571 OFFCURVE",
"208 567 OFFCURVE",
"205 563 CURVE SMOOTH",
"202 559 OFFCURVE",
"200 553 OFFCURVE",
"199 546 CURVE",
"198 543 OFFCURVE",
"198 540 OFFCURVE",
"198 537 CURVE SMOOTH",
"198 534 OFFCURVE",
"198 530 OFFCURVE",
"198 526 CURVE SMOOTH",
"198 522 OFFCURVE",
"198 519 OFFCURVE",
"198 516 CURVE SMOOTH",
"198 510 OFFCURVE",
"199 503 OFFCURVE",
"200 499 CURVE",
"201 496 OFFCURVE",
"202 494 OFFCURVE",
"203 492 CURVE",
"205 490 OFFCURVE",
"207 488 OFFCURVE",
"208 487 CURVE",
"211 483 OFFCURVE",
"216 481 OFFCURVE",
"221 478 CURVE",
"224 477 OFFCURVE",
"227 475 OFFCURVE",
"232 474 CURVE",
"276 457 LINE SMOOTH",
"289 452 OFFCURVE",
"299 446 OFFCURVE",
"307 439 CURVE",
"316 432 OFFCURVE",
"321 425 OFFCURVE",
"326 417 CURVE",
"330 408 OFFCURVE",
"333 398 OFFCURVE",
"334 385 CURVE SMOOTH",
"335 374 OFFCURVE",
"337 361 OFFCURVE",
"337 346 CURVE SMOOTH",
"337 329 OFFCURVE",
"336 312 OFFCURVE",
"331 299 CURVE",
"328 284 OFFCURVE",
"323 271 OFFCURVE",
"314 262 CURVE",
"307 251 OFFCURVE",
"296 243 OFFCURVE",
"283 238 CURVE",
"270 231 OFFCURVE",
"255 229 OFFCURVE",
"236 229 CURVE SMOOTH",
"221 229 OFFCURVE",
"209 232 OFFCURVE",
"196 236 CURVE SMOOTH",
"184 240 OFFCURVE",
"173 248 OFFCURVE",
"165 256 CURVE SMOOTH",
"157 264 OFFCURVE",
"149 274 OFFCURVE",
"144 286 CURVE",
"137 297 OFFCURVE",
"137 311 OFFCURVE",
"137 324 CURVE SMOOTH",
"137 346 LINE",
"195 346 LINE",
"195 327 LINE SMOOTH",
"195 318 OFFCURVE",
"197 307 OFFCURVE",
"205 299 CURVE",
"212 290 OFFCURVE",
"221 286 OFFCURVE",
"236 286 CURVE SMOOTH",
"247 286 OFFCURVE",
"254 287 OFFCURVE",
"259 290 CURVE SMOOTH",
"264 293 OFFCURVE",
"269 297 OFFCURVE",
"272 302 CURVE SMOOTH",
"275 307 OFFCURVE",
"276 313 OFFCURVE",
"277 320 CURVE SMOOTH",
"278 327 OFFCURVE",
"279 335 OFFCURVE",
"279 346 CURVE SMOOTH",
"279 355 OFFCURVE",
"278 366 OFFCURVE",
"277 371 CURVE",
"276 379 OFFCURVE",
"274 384 OFFCURVE",
"273 388 CURVE",
"270 392 OFFCURVE",
"267 395 OFFCURVE",
"263 398 CURVE SMOOTH",
"259 401 OFFCURVE",
"253 404 OFFCURVE",
"246 407 CURVE SMOOTH",
"205 424 LINE",
"180 433 OFFCURVE",
"163 448 OFFCURVE",
"155 465 CURVE SMOOTH",
"147 482 OFFCURVE",
"142 504 OFFCURVE",
"142 529 CURVE SMOOTH",
"142 545 OFFCURVE",
"144 559 OFFCURVE",
"148 572 CURVE SMOOTH",
"152 584 OFFCURVE",
"158 598 OFFCURVE",
"166 607 CURVE",
"175 618 OFFCURVE",
"185 624 OFFCURVE",
"198 631 CURVE SMOOTH",
"210 638 OFFCURVE",
"225 640 OFFCURVE",
"242 640 CURVE SMOOTH",
"255 640 OFFCURVE",
"269 638 OFFCURVE",
"282 631 CURVE",
"293 626 OFFCURVE",
"304 619 OFFCURVE",
"313 610 CURVE SMOOTH",
"321 602 OFFCURVE",
"329 592 OFFCURVE",
"333 580 CURVE SMOOTH",
"337 569 OFFCURVE",
"340 559 OFFCURVE",
"340 548 CURVE SMOOTH",
"340 518 LINE"
);
},
{
closed = 1;
nodes = (
"438 229 LINE",
"380 229 LINE",
"380 634 LINE",
"438 634 LINE"
);
},
{
closed = 1;
nodes = (
"590 579 LINE",
"590 229 LINE",
"532 229 LINE",
"532 579 LINE",
"465 579 LINE",
"465 633 LINE",
"657 633 LINE",
"657 579 LINE"
);
},
{
closed = 1;
nodes = (
"794 366 LINE",
"744 229 LINE",
"683 229 LINE",
"765 441 LINE",
"690 634 LINE",
"751 634 LINE",
"795 515 LINE",
"839 634 LINE",
"900 634 LINE",
"823 441 LINE",
"907 229 LINE",
"845 229 LINE"
);
}
);
width = 1024;
}
);
unicode = E90F;
},
{
glyphname = uniE910;
layers = (
{
layerId = "5789BFD8-8569-4DE2-B3C5-6A0ED3E84C22";
name = Regular;
paths = (
{
closed = 1;
nodes = (
"0 715 LINE",
"0 156 LINE",
"1023 156 LINE",
"1023 715 LINE"
);
},
{
closed = 1;
nodes = (
"393 235 LINE",
"219 235 LINE",
"219 640 LINE",
"277 640 LINE",
"277 293 LINE",
"393 293 LINE"
);
},
{
closed = 1;
nodes = (
"583 593 LINE",
"472 289 LINE",
"583 289 LINE",
"583 235 LINE",
"411 235 LINE",
"411 286 LINE",
"521 585 LINE",
"417 585 LINE",
"417 639 LINE",
"583 639 LINE"
);
},
{
closed = 1;
nodes = (
"748 235 LINE",
"748 415 LINE",
"677 415 LINE",
"677 235 LINE",
"619 235 LINE",
"619 640 LINE",
"677 640 LINE",
"677 466 LINE",
"748 466 LINE",
"748 640 LINE",
"806 640 LINE",
"806 235 LINE"
);
}
);
width = 1024;
}
);
unicode = E910;
},
{
glyphname = uniE911;
layers = (
{
layerId = "5789BFD8-8569-4DE2-B3C5-6A0ED3E84C22";
name = Regular;
paths = (
{
closed = 1;
nodes = (
"0 503 LINE",
"0 394 LINE",
"193 229 LINE",
"1024 229 LINE",
"1024 670 LINE",
"198 670 LINE"
);
},
{
closed = 1;
nodes = (
"250 410 OFFCURVE",
"224 396 OFFCURVE",
"199 404 CURVE SMOOTH",
"174 412 OFFCURVE",
"159 437 OFFCURVE",
"168 464 CURVE SMOOTH",
"176 489 OFFCURVE",
"201 503 OFFCURVE",
"228 495 CURVE SMOOTH",
"253 487 OFFCURVE",
"266 460 OFFCURVE",
"259 435 CURVE"
);
}
);
width = 1024;
}
);
unicode = E911;
},
{
glyphname = uniE912;
layers = (
{
layerId = "5789BFD8-8569-4DE2-B3C5-6A0ED3E84C22";
name = Regular;
paths = (
{
closed = 1;
nodes = (
"90 954 LINE",
"4 869 LINE",
"27 590 LINE",
"681 -64 LINE",
"1024 280 LINE",
"373 930 LINE"
);
},
{
closed = 1;
nodes = (
"214 685 OFFCURVE",
"180 695 OFFCURVE",
"168 722 CURVE",
"153 749 OFFCURVE",
"163 781 OFFCURVE",
"191 794 CURVE",
"216 807 OFFCURVE",
"249 798 OFFCURVE",
"262 771 CURVE SMOOTH",
"274 746 OFFCURVE",
"264 712 OFFCURVE",
"239 700 CURVE"
);
}
);
width = 1024;
}
);
unicode = E912;
},
{
glyphname = uniE913;
layers = (
{
layerId = "5789BFD8-8569-4DE2-B3C5-6A0ED3E84C22";
name = Regular;
paths = (
{
closed = 1;
nodes = (
"656 930 LINE",
"4 280 LINE",
"348 -64 LINE",
"1003 590 LINE",
"1024 869 LINE",
"939 954 LINE"
);
},
{
closed = 1;
nodes = (
"847 696 OFFCURVE",
"816 686 OFFCURVE",
"791 698 CURVE",
"766 713 OFFCURVE",
"755 744 OFFCURVE",
"768 769 CURVE SMOOTH",
"783 796 OFFCURVE",
"814 805 OFFCURVE",
"839 792 CURVE",
"866 780 OFFCURVE",
"877 746 OFFCURVE",
"862 721 CURVE SMOOTH"
);
}
);
width = 1024;
}
);
unicode = E913;
},
{
glyphname = uniE914;
layers = (
{
layerId = "5789BFD8-8569-4DE2-B3C5-6A0ED3E84C22";
name = Regular;
paths = (
{
closed = 1;
nodes = (
"942 589 OFFCURVE",
"942 589 OFFCURVE",
"942 589 CURVE SMOOTH",
"942 589 OFFCURVE",
"942 589 OFFCURVE",
"943 589 CURVE",
"427 74 LINE SMOOTH",
"330 -23 OFFCURVE",
"221 2 OFFCURVE",
"158 63 CURVE SMOOTH",
"95 126 OFFCURVE",
"73 235 OFFCURVE",
"169 331 CURVE SMOOTH",
"206 368 OFFCURVE",
"299 461 OFFCURVE",
"400 562 CURVE SMOOTH",
"500 662 OFFCURVE",
"611 773 OFFCURVE",
"684 846 CURVE SMOOTH",
"719 881 OFFCURVE",
"759 894 OFFCURVE",
"796 883 CURVE",
"835 874 OFFCURVE",
"865 841 OFFCURVE",
"876 804 CURVE SMOOTH",
"887 765 OFFCURVE",
"874 726 OFFCURVE",
"839 691 CURVE SMOOTH",
"346 199 LINE SMOOTH",
"330 183 OFFCURVE",
"313 173 OFFCURVE",
"297 172 CURVE",
"288 171 OFFCURVE",
"278 174 OFFCURVE",
"273 179 CURVE SMOOTH",
"260 192 OFFCURVE",
"264 221 OFFCURVE",
"293 250 CURVE SMOOTH",
"640 596 LINE",
"589 647 LINE",
"243 302 LINE SMOOTH",
"179 238 OFFCURVE",
"184 165 OFFCURVE",
"223 128 CURVE SMOOTH",
"244 107 OFFCURVE",
"274 96 OFFCURVE",
"306 100 CURVE SMOOTH",
"337 103 OFFCURVE",
"370 120 OFFCURVE",
"398 148 CURVE SMOOTH",
"892 641 LINE SMOOTH",
"944 694 OFFCURVE",
"964 759 OFFCURVE",
"947 823 CURVE SMOOTH",
"930 886 OFFCURVE",
"879 938 OFFCURVE",
"816 954 CURVE SMOOTH",
"752 971 OFFCURVE",
"687 951 OFFCURVE",
"634 899 CURVE SMOOTH",
"597 862 OFFCURVE",
"553 817 OFFCURVE",
"502 766 CURVE SMOOTH",
"398 663 OFFCURVE",
"293 558 OFFCURVE",
"209 474 CURVE SMOOTH",
"167 431 OFFCURVE",
"137 401 OFFCURVE",
"118 383 CURVE SMOOTH",
"55 320 OFFCURVE",
"31 250 OFFCURVE",
"32 184 CURVE SMOOTH",
"33 118 OFFCURVE",
"62 56 OFFCURVE",
"107 11 CURVE SMOOTH",
"154 -36 OFFCURVE",
"218 -64 OFFCURVE",
"286 -64 CURVE SMOOTH",
"350 -64 OFFCURVE",
"418 -38 OFFCURVE",
"479 23 CURVE SMOOTH",
"994 538 LINE",
"994 538 OFFCURVE",
"994 538 OFFCURVE",
"994 538 CURVE SMOOTH",
"994 538 OFFCURVE",
"994 538 OFFCURVE",
"994 538 CURVE",
"943 589 LINE"
);
}
);
width = 1024;
}
);
unicode = E914;
},
{
glyphname = uniE915;
layers = (
{
layerId = "5789BFD8-8569-4DE2-B3C5-6A0ED3E84C22";
name = Regular;
paths = (
{
closed = 1;
nodes = (
"711 -63 LINE",
"711 960 LINE",
"329 960 LINE",
"329 -63 LINE",
"519 144 LINE"
);
},
{
closed = 1;
nodes = (
"711 -63 LINE"
);
},
{
closed = 1;
nodes = (
"329 -63 LINE"
);
}
);
width = 1024;
}
);
unicode = E915;
},
{
glyphname = uniE916;
layers = (
{
layerId = "5789BFD8-8569-4DE2-B3C5-6A0ED3E84C22";
name = Regular;
paths = (
{
closed = 1;
nodes = (
"796 -63 LINE",
"796 960 LINE",
"242 960 LINE",
"242 -63 LINE",
"519 144 LINE"
);
},
{
closed = 1;
nodes = (
"796 -63 LINE"
);
},
{
closed = 1;
nodes = (
"242 -63 LINE"
);
}
);
width = 1024;
}
);
unicode = E916;
},
{
glyphname = uniE917;
layers = (
{
layerId = "5789BFD8-8569-4DE2-B3C5-6A0ED3E84C22";
name = Regular;
paths = (
{
closed = 1;
nodes = (
"148 206 LINE",
"282 410 LINE SMOOTH",
"289 421 OFFCURVE",
"301 427 OFFCURVE",
"316 430 CURVE",
"329 431 OFFCURVE",
"342 425 OFFCURVE",
"353 414 CURVE",
"432 323 LINE",
"577 543 LINE SMOOTH",
"586 556 OFFCURVE",
"601 563 OFFCURVE",
"614 563 CURVE SMOOTH",
"630 563 OFFCURVE",
"643 556 OFFCURVE",
"651 543 CURVE",
"876 206 LINE"
);
},
{
closed = 1;
nodes = (
"399 499 OFFCURVE",
"441 541 OFFCURVE",
"441 590 CURVE SMOOTH",
"441 641 OFFCURVE",
"399 681 OFFCURVE",
"350 681 CURVE SMOOTH",
"301 681 OFFCURVE",
"259 641 OFFCURVE",
"259 590 CURVE SMOOTH",
"259 539 OFFCURVE",
"301 499 OFFCURVE",
"350 499 CURVE SMOOTH"
);
},
{
closed = 1;
nodes = (
"939 784 LINE",
"85 784 LINE",
"85 115 LINE",
"939 115 LINE"
);
},
{
closed = 1;
nodes = (
"1024 869 LINE",
"1024 30 LINE",
"0 30 LINE",
"0 869 LINE"
);
}
);
width = 1024;
}
);
unicode = E917;
},
{
glyphname = uniE918;
layers = (
{
layerId = "5789BFD8-8569-4DE2-B3C5-6A0ED3E84C22";
name = Regular;
paths = (
{
closed = 1;
nodes = (
"1021 64 OFFCURVE",
"1013 93 OFFCURVE",
"996 151 CURVE SMOOTH",
"962 266 OFFCURVE",
"874 415 OFFCURVE",
"715 531 CURVE SMOOTH",
"635 588 OFFCURVE",
"533 617 OFFCURVE",
"408 617 CURVE",
"408 836 LINE",
"-1 469 LINE",
"410 90 LINE",
"410 337 LINE",
"545 337 OFFCURVE",
"663 331 OFFCURVE",
"764 294 CURVE SMOOTH",
"865 257 OFFCURVE",
"950 188 OFFCURVE",
"1021 64 CURVE"
);
}
);
width = 1024;
}
);
unicode = E918;
},
{
glyphname = uniE919;
layers = (
{
layerId = "5789BFD8-8569-4DE2-B3C5-6A0ED3E84C22";
name = Regular;
paths = (
{
closed = 1;
nodes = (
"370 798 LINE",
"0 468 LINE",
"370 125 LINE",
"370 267 LINE",
"154 468 LINE",
"370 661 LINE"
);
},
{
closed = 1;
nodes = (
"624 798 LINE",
"256 468 LINE",
"626 125 LINE",
"626 348 LINE",
"710 348 OFFCURVE",
"777 343 OFFCURVE",
"840 310 CURVE SMOOTH",
"903 277 OFFCURVE",
"960 215 OFFCURVE",
"1024 102 CURVE",
"1023 102 OFFCURVE",
"1020 128 OFFCURVE",
"1014 180 CURVE SMOOTH",
"1002 284 OFFCURVE",
"954 419 OFFCURVE",
"847 523 CURVE SMOOTH",
"794 574 OFFCURVE",
"719 600 OFFCURVE",
"624 600 CURVE"
);
}
);
width = 1024;
}
);
unicode = E919;
},
{
glyphname = uniE91A;
layers = (
{
layerId = "5789BFD8-8569-4DE2-B3C5-6A0ED3E84C22";
name = Regular;
paths = (
{
closed = 1;
nodes = (
"612 101 LINE",
"1023 482 LINE",
"612 849 LINE",
"612 629 LINE",
"361 629 OFFCURVE",
"209 490 OFFCURVE",
"118 351 CURVE SMOOTH",
"73 282 OFFCURVE",
"42 218 OFFCURVE",
"25 161 CURVE SMOOTH",
"8 103 OFFCURVE",
"-1 74 OFFCURVE",
"-1 74 CURVE",
"68 199 OFFCURVE",
"155 268 OFFCURVE",
"256 305 CURVE SMOOTH",
"357 342 OFFCURVE",
"476 348 OFFCURVE",
"612 348 CURVE"
);
}
);
width = 1024;
}
);
unicode = E91A;
},
{
glyphname = uniE91B;
layers = (
{
layerId = "5789BFD8-8569-4DE2-B3C5-6A0ED3E84C22";
name = Regular;
paths = (
{
closed = 1;
nodes = (
"368 960 OFFCURVE",
"241 903 OFFCURVE",
"149 811 CURVE SMOOTH",
"56 718 OFFCURVE",
"-1 589 OFFCURVE",
"-1 448 CURVE SMOOTH",
"-1 307 OFFCURVE",
"56 178 OFFCURVE",
"149 86 CURVE SMOOTH",
"241 -7 OFFCURVE",
"368 -64 OFFCURVE",
"511 -64 CURVE SMOOTH",
"652 -64 OFFCURVE",
"780 -7 OFFCURVE",
"873 86 CURVE SMOOTH",
"965 178 OFFCURVE",
"1023 307 OFFCURVE",
"1023 448 CURVE SMOOTH",
"1023 589 OFFCURVE",
"965 718 OFFCURVE",
"873 811 CURVE SMOOTH",
"780 903 OFFCURVE",
"652 960 OFFCURVE",
"511 960 CURVE SMOOTH"
);
},
{
closed = 1;
nodes = (
"895 365 OFFCURVE",
"868 289 OFFCURVE",
"823 226 CURVE",
"289 761 LINE",
"352 805 OFFCURVE",
"428 832 OFFCURVE",
"511 832 CURVE SMOOTH",
"616 832 OFFCURVE",
"713 790 OFFCURVE",
"782 720 CURVE SMOOTH",
"851 650 OFFCURVE",
"895 553 OFFCURVE",
"895 448 CURVE SMOOTH"
);
},
{
closed = 1;
nodes = (
"127 532 OFFCURVE",
"154 608 OFFCURVE",
"199 671 CURVE",
"734 137 LINE",
"671 90 OFFCURVE",
"592 64 OFFCURVE",
"511 64 CURVE SMOOTH",
"404 64 OFFCURVE",
"308 107 OFFCURVE",
"239 177 CURVE SMOOTH",
"170 247 OFFCURVE",
"127 343 OFFCURVE",
"127 448 CURVE SMOOTH"
);
}
);
width = 1024;
}
);
unicode = E91B;
},
{
glyphname = uniE91C;
layers = (
{
layerId = "5789BFD8-8569-4DE2-B3C5-6A0ED3E84C22";
name = Regular;
paths = (
{
closed = 1;
nodes = (
"859 903 LINE SMOOTH",
"859 935 OFFCURVE",
"834 960 OFFCURVE",
"802 960 CURVE SMOOTH",
"757 960 LINE SMOOTH",
"725 960 OFFCURVE",
"700 935 OFFCURVE",
"700 903 CURVE SMOOTH",
"700 818 LINE",
"594 818 LINE",
"594 903 LINE SMOOTH",
"594 935 OFFCURVE",
"569 960 OFFCURVE",
"538 960 CURVE SMOOTH",
"492 960 LINE SMOOTH",
"461 960 OFFCURVE",
"435 935 OFFCURVE",
"435 903 CURVE SMOOTH",
"435 818 LINE",
"323 818 LINE",
"323 903 LINE SMOOTH",
"323 935 OFFCURVE",
"297 960 OFFCURVE",
"266 960 CURVE SMOOTH",
"220 960 LINE SMOOTH",
"189 960 OFFCURVE",
"164 935 OFFCURVE",
"164 903 CURVE SMOOTH",
"164 818 LINE",
"1 818 LINE",
"1 -64 LINE",
"1024 -64 LINE",
"1024 818 LINE",
"859 818 LINE"
);
},
{
closed = 1;
nodes = (
"924 21 LINE",
"101 21 LINE",
"101 602 LINE",
"924 602 LINE"
);
},
{
closed = 1;
nodes = (
"850 387 LINE",
"850 422 LINE",
"708 422 LINE",
"708 536 LINE",
"673 536 LINE",
"673 422 LINE",
"529 422 LINE",
"529 536 LINE",
"494 536 LINE",
"494 422 LINE",
"350 422 LINE",
"350 536 LINE",
"314 536 LINE",
"314 422 LINE",
"172 422 LINE",
"172 387 LINE",
"314 387 LINE",
"314 236 LINE",
"172 236 LINE",
"172 201 LINE",
"314 201 LINE",
"314 87 LINE",
"350 87 LINE",
"350 201 LINE",
"494 201 LINE",
"494 87 LINE",
"529 87 LINE",
"529 201 LINE",
"673 201 LINE",
"673 87 LINE",
"708 87 LINE",
"708 201 LINE",
"850 201 LINE",
"850 236 LINE",
"708 236 LINE",
"708 387 LINE"
);
},
{
closed = 1;
nodes = (
"350 236 LINE",
"350 387 LINE",
"494 387 LINE",
"494 236 LINE"
);
},
{
closed = 1;
nodes = (
"673 236 LINE",
"529 236 LINE",
"529 387 LINE",
"673 387 LINE"
);
}
);
width = 1024;
}
);
unicode = E91C;
},
{
glyphname = uniE91D;
layers = (
{
layerId = "5789BFD8-8569-4DE2-B3C5-6A0ED3E84C22";
name = Regular;
paths = (
{
closed = 1;
nodes = (
"856 903 LINE SMOOTH",
"856 935 OFFCURVE",
"831 960 OFFCURVE",
"799 960 CURVE SMOOTH",
"754 960 LINE SMOOTH",
"722 960 OFFCURVE",
"697 935 OFFCURVE",
"697 903 CURVE SMOOTH",
"697 818 LINE",
"592 818 LINE",
"592 903 LINE SMOOTH",
"592 935 OFFCURVE",
"566 960 OFFCURVE",
"535 960 CURVE SMOOTH",
"489 960 LINE SMOOTH",
"458 960 OFFCURVE",
"432 935 OFFCURVE",
"432 903 CURVE SMOOTH",
"432 818 LINE",
"320 818 LINE",
"320 903 LINE SMOOTH",
"320 935 OFFCURVE",
"295 960 OFFCURVE",
"263 960 CURVE SMOOTH",
"218 960 LINE SMOOTH",
"186 960 OFFCURVE",
"161 935 OFFCURVE",
"161 903 CURVE SMOOTH",
"161 818 LINE",
"0 818 LINE",
"0 -64 LINE",
"1023 -64 LINE",
"1023 818 LINE",
"856 818 LINE"
);
},
{
closed = 1;
nodes = (
"923 21 LINE",
"100 21 LINE",
"100 602 LINE",
"923 602 LINE"
);
},
{
closed = 1;
nodes = (
"556 265 LINE",
"556 85 LINE",
"464 85 LINE",
"464 265 LINE",
"284 265 LINE",
"284 357 LINE",
"464 357 LINE",
"464 536 LINE",
"556 536 LINE",
"556 357 LINE",
"735 357 LINE",
"735 265 LINE"
);
}
);
width = 1024;
}
);
unicode = E91D;
},
{
glyphname = uniE91E;
layers = (
{
layerId = "5789BFD8-8569-4DE2-B3C5-6A0ED3E84C22";
name = Regular;
paths = (
{
closed = 1;
nodes = (
"858 903 LINE SMOOTH",
"858 935 OFFCURVE",
"832 960 OFFCURVE",
"801 960 CURVE SMOOTH",
"755 960 LINE SMOOTH",
"724 960 OFFCURVE",
"698 935 OFFCURVE",
"698 903 CURVE SMOOTH",
"698 818 LINE",
"593 818 LINE",
"593 903 LINE SMOOTH",
"593 935 OFFCURVE",
"568 960 OFFCURVE",
"536 960 CURVE SMOOTH",
"491 960 LINE SMOOTH",
"459 960 OFFCURVE",
"434 935 OFFCURVE",
"434 903 CURVE SMOOTH",
"434 818 LINE",
"321 818 LINE",
"321 903 LINE SMOOTH",
"321 935 OFFCURVE",
"296 960 OFFCURVE",
"265 960 CURVE SMOOTH",
"219 960 LINE SMOOTH",
"188 960 OFFCURVE",
"162 935 OFFCURVE",
"162 903 CURVE SMOOTH",
"162 818 LINE",
"0 818 LINE",
"0 -64 LINE",
"1023 -64 LINE",
"1023 818 LINE",
"858 818 LINE"
);
},
{
closed = 1;
nodes = (
"923 21 LINE",
"100 21 LINE",
"100 602 LINE",
"923 602 LINE"
);
},
{
closed = 1;
nodes = (
"246 299 LINE",
"327 380 LINE",
"451 256 LINE",
"714 519 LINE",
"795 438 LINE",
"451 94 LINE"
);
}
);
width = 1024;
}
);
unicode = E91E;
},
{
glyphname = uniE91F;
layers = (
{
layerId = "5789BFD8-8569-4DE2-B3C5-6A0ED3E84C22";
name = Regular;
paths = (
{
closed = 1;
nodes = (
"438 960 OFFCURVE",
"357 924 OFFCURVE",
"298 865 CURVE SMOOTH",
"238 805 OFFCURVE",
"202 724 OFFCURVE",
"202 633 CURVE SMOOTH",
"202 630 OFFCURVE",
"202 627 OFFCURVE",
"202 624 CURVE SMOOTH",
"202 621 OFFCURVE",
"202 617 OFFCURVE",
"202 614 CURVE",
"209 487 OFFCURVE",
"275 332 OFFCURVE",
"347 201 CURVE SMOOTH",
"419 69 OFFCURVE",
"498 -36 OFFCURVE",
"529 -64 CURVE",
"561 -36 OFFCURVE",
"639 69 OFFCURVE",
"712 201 CURVE SMOOTH",
"784 332 OFFCURVE",
"849 487 OFFCURVE",
"856 614 CURVE",
"856 617 OFFCURVE",
"856 621 OFFCURVE",
"856 624 CURVE SMOOTH",
"856 627 OFFCURVE",
"856 630 OFFCURVE",
"856 633 CURVE SMOOTH",
"856 724 OFFCURVE",
"820 805 OFFCURVE",
"761 865 CURVE SMOOTH",
"701 924 OFFCURVE",
"620 960 OFFCURVE",
"529 960 CURVE SMOOTH"
);
},
{
closed = 1;
nodes = (
"476 535 OFFCURVE",
"431 578 OFFCURVE",
"431 633 CURVE SMOOTH",
"431 686 OFFCURVE",
"476 731 OFFCURVE",
"529 731 CURVE SMOOTH",
"584 731 OFFCURVE",
"627 686 OFFCURVE",
"627 633 CURVE SMOOTH",
"627 578 OFFCURVE",
"584 535 OFFCURVE",
"529 535 CURVE SMOOTH"
);
}
);
width = 1024;
}
);
unicode = E91F;
},
{
glyphname = uniE920;
layers = (
{
layerId = "5789BFD8-8569-4DE2-B3C5-6A0ED3E84C22";
name = Regular;
paths = (
{
closed = 1;
nodes = (
"434 960 OFFCURVE",
"362 928 OFFCURVE",
"310 876 CURVE SMOOTH",
"257 823 OFFCURVE",
"225 751 OFFCURVE",
"225 671 CURVE SMOOTH",
"225 559 OFFCURVE",
"283 418 OFFCURVE",
"348 299 CURVE SMOOTH",
"413 179 OFFCURVE",
"485 82 OFFCURVE",
"513 57 CURVE",
"542 82 OFFCURVE",
"614 179 OFFCURVE",
"679 299 CURVE SMOOTH",
"744 418 OFFCURVE",
"802 559 OFFCURVE",
"802 671 CURVE SMOOTH",
"802 751 OFFCURVE",
"770 823 OFFCURVE",
"718 876 CURVE SMOOTH",
"665 928 OFFCURVE",
"593 960 OFFCURVE",
"513 960 CURVE SMOOTH"
);
},
{
closed = 1;
nodes = (
"465 585 OFFCURVE",
"427 623 OFFCURVE",
"427 671 CURVE SMOOTH",
"427 720 OFFCURVE",
"465 758 OFFCURVE",
"513 758 CURVE SMOOTH",
"562 758 OFFCURVE",
"600 720 OFFCURVE",
"600 671 CURVE SMOOTH",
"600 623 OFFCURVE",
"561 585 OFFCURVE",
"513 585 CURVE SMOOTH"
);
},
{
closed = 1;
nodes = (
"882 -64 LINE",
"142 -64 LINE",
"142 16 LINE",
"882 16 LINE"
);
}
);
width = 1024;
}
);
unicode = E920;
},
{
glyphname = uniE921;
layers = (
{
layerId = "5789BFD8-8569-4DE2-B3C5-6A0ED3E84C22";
name = Regular;
paths = (
{
closed = 1;
nodes = (
"567 465 LINE",
"997 713 LINE",
"567 960 LINE",
"459 960 LINE",
"459 16 LINE",
"144 16 LINE",
"144 -64 LINE",
"883 -64 LINE",
"883 16 LINE",
"567 16 LINE"
);
}
);
width = 1024;
}
);
unicode = E921;
},
{
glyphname = uniE922;
layers = (
{
layerId = "5789BFD8-8569-4DE2-B3C5-6A0ED3E84C22";
name = Regular;
paths = (
{
closed = 1;
nodes = (
"935 596 OFFCURVE",
"933 526 OFFCURVE",
"936 470 CURVE SMOOTH",
"937 442 OFFCURVE",
"939 418 OFFCURVE",
"941 399 CURVE SMOOTH",
"943 380 OFFCURVE",
"944 370 OFFCURVE",
"944 370 CURVE SMOOTH",
"944 370 OFFCURVE",
"927 367 OFFCURVE",
"894 361 CURVE SMOOTH",
"826 348 OFFCURVE",
"740 340 OFFCURVE",
"679 349 CURVE SMOOTH",
"648 353 OFFCURVE",
"636 366 OFFCURVE",
"643 387 CURVE SMOOTH",
"659 436 OFFCURVE",
"618 447 OFFCURVE",
"560 439 CURVE SMOOTH",
"502 431 OFFCURVE",
"425 405 OFFCURVE",
"370 384 CURVE SMOOTH",
"348 375 OFFCURVE",
"330 373 OFFCURVE",
"316 376 CURVE SMOOTH",
"301 379 OFFCURVE",
"294 381 OFFCURVE",
"294 381 CURVE",
"294 853 LINE",
"294 853 OFFCURVE",
"316 859 OFFCURVE",
"359 870 CURVE SMOOTH",
"445 893 OFFCURVE",
"557 915 OFFCURVE",
"643 918 CURVE SMOOTH",
"686 919 OFFCURVE",
"707 910 OFFCURVE",
"707 890 CURVE SMOOTH",
"707 882 OFFCURVE",
"704 863 OFFCURVE",
"699 832 CURVE SMOOTH",
"693 801 OFFCURVE",
"701 788 OFFCURVE",
"724 791 CURVE SMOOTH",
"764 795 OFFCURVE",
"821 799 OFFCURVE",
"869 802 CURVE SMOOTH",
"892 803 OFFCURVE",
"912 804 OFFCURVE",
"929 805 CURVE SMOOTH",
"945 806 OFFCURVE",
"953 806 OFFCURVE",
"953 806 CURVE SMOOTH",
"953 806 OFFCURVE",
"956 792 OFFCURVE",
"962 765 CURVE SMOOTH",
"968 738 OFFCURVE",
"964 698 OFFCURVE",
"950 647 CURVE SMOOTH"
);
},
{
closed = 1;
nodes = (
"236 906 LINE",
"236 934 OFFCURVE",
"214 956 OFFCURVE",
"186 956 CURVE SMOOTH",
"158 956 OFFCURVE",
"137 933 OFFCURVE",
"137 906 CURVE SMOOTH",
"137 -64 LINE",
"238 -64 LINE",
"238 906 LINE"
);
}
);
width = 1024;
}
);
unicode = E922;
},
{
glyphname = uniE923;
layers = (
{
layerId = "5789BFD8-8569-4DE2-B3C5-6A0ED3E84C22";
name = Regular;
paths = (
{
closed = 1;
nodes = (
"235 -64 LINE",
"134 -64 LINE",
"134 906 LINE SMOOTH",
"134 934 OFFCURVE",
"156 956 OFFCURVE",
"183 956 CURVE SMOOTH",
"212 956 OFFCURVE",
"233 933 OFFCURVE",
"233 906 CURVE SMOOTH",
"233 -64 LINE"
);
},
{
closed = 1;
nodes = (
"1031 886 LINE",
"346 886 LINE",
"346 447 LINE",
"1030 447 LINE",
"858 666 LINE"
);
}
);
width = 1024;
}
);
unicode = E923;
},
{
glyphname = uniE924;
layers = (
{
layerId = "5789BFD8-8569-4DE2-B3C5-6A0ED3E84C22";
name = Regular;
paths = (
{
closed = 1;
nodes = (
"512 956 LINE",
"961 697 LINE",
"961 307 LINE",
"512 340 LINE",
"64 340 LINE",
"64 697 LINE"
);
},
{
closed = 1;
nodes = (
"364 697 LINE",
"364 -68 LINE",
"64 -68 LINE",
"64 697 LINE"
);
},
{
closed = 1;
nodes = (
"664 697 LINE",
"664 252 LINE",
"364 252 LINE",
"364 697 LINE"
);
},
{
closed = 1;
nodes = (
"964 697 LINE",
"964 -68 LINE",
"664 -68 LINE",
"664 697 LINE"
);
}
);
width = 1024;
}
);
unicode = E924;
},
{
glyphname = uniE925;
layers = (
{
layerId = "5789BFD8-8569-4DE2-B3C5-6A0ED3E84C22";
name = Regular;
paths = (
{
closed = 1;
nodes = (
"629 875 OFFCURVE",
"736 826 OFFCURVE",
"813 749 CURVE SMOOTH",
"890 672 OFFCURVE",
"939 565 OFFCURVE",
"939 448 CURVE SMOOTH",
"939 331 OFFCURVE",
"890 224 OFFCURVE",
"813 147 CURVE SMOOTH",
"736 70 OFFCURVE",
"629 21 OFFCURVE",
"512 21 CURVE SMOOTH",
"395 21 OFFCURVE",
"288 70 OFFCURVE",
"211 147 CURVE SMOOTH",
"134 224 OFFCURVE",
"85 331 OFFCURVE",
"85 448 CURVE SMOOTH",
"85 565 OFFCURVE",
"133 672 OFFCURVE",
"210 749 CURVE SMOOTH",
"287 826 OFFCURVE",
"393 875 OFFCURVE",
"512 875 CURVE SMOOTH"
);
},
{
closed = 1;
nodes = (
"371 960 OFFCURVE",
"242 903 OFFCURVE",
"150 811 CURVE SMOOTH",
"57 718 OFFCURVE",
"0 589 OFFCURVE",
"0 448 CURVE SMOOTH",
"0 307 OFFCURVE",
"57 178 OFFCURVE",
"150 86 CURVE SMOOTH",
"242 -7 OFFCURVE",
"371 -64 OFFCURVE",
"512 -64 CURVE SMOOTH",
"653 -64 OFFCURVE",
"782 -7 OFFCURVE",
"875 86 CURVE SMOOTH",
"967 178 OFFCURVE",
"1024 307 OFFCURVE",
"1024 448 CURVE SMOOTH",
"1024 589 OFFCURVE",
"966 718 OFFCURVE",
"874 811 CURVE SMOOTH",
"781 903 OFFCURVE",
"653 960 OFFCURVE",
"512 960 CURVE SMOOTH"
);
},
{
closed = 1;
nodes = (
"752 677 LINE",
"693 737 LINE",
"512 556 LINE",
"331 737 LINE",
"270 677 LINE",
"469 478 LINE",
"469 471 LINE",
"307 471 LINE",
"307 385 LINE",
"471 385 LINE",
"471 329 LINE",
"307 329 LINE",
"307 243 LINE",
"471 243 LINE",
"471 114 LINE",
"556 114 LINE",
"556 243 LINE",
"720 243 LINE",
"720 329 LINE",
"556 329 LINE",
"556 385 LINE",
"720 385 LINE",
"720 471 LINE",
"556 471 LINE",
"556 481 LINE"
);
}
);
width = 1024;
}
);
unicode = E925;
},
{
glyphname = uniE926;
layers = (
{
layerId = "5789BFD8-8569-4DE2-B3C5-6A0ED3E84C22";
name = Regular;
paths = (
{
closed = 1;
nodes = (
"371 960 OFFCURVE",
"242 903 OFFCURVE",
"150 811 CURVE SMOOTH",
"57 718 OFFCURVE",
"0 589 OFFCURVE",
"0 448 CURVE SMOOTH",
"0 307 OFFCURVE",
"57 178 OFFCURVE",
"150 86 CURVE SMOOTH",
"242 -7 OFFCURVE",
"371 -64 OFFCURVE",
"512 -64 CURVE SMOOTH",
"653 -64 OFFCURVE",
"782 -7 OFFCURVE",
"875 86 CURVE SMOOTH",
"967 178 OFFCURVE",
"1024 307 OFFCURVE",
"1024 448 CURVE SMOOTH",
"1024 589 OFFCURVE",
"967 718 OFFCURVE",
"875 811 CURVE SMOOTH",
"782 903 OFFCURVE",
"653 960 OFFCURVE",
"512 960 CURVE SMOOTH"
);
},
{
closed = 1;
nodes = (
"720 384 LINE",
"556 384 LINE",
"556 327 LINE",
"720 327 LINE",
"720 242 LINE",
"556 242 LINE",
"556 112 LINE",
"471 112 LINE",
"471 242 LINE",
"307 242 LINE",
"307 327 LINE",
"471 327 LINE",
"471 384 LINE",
"307 384 LINE",
"307 469 LINE",
"471 469 LINE",
"471 476 LINE",
"272 676 LINE",
"331 735 LINE",
"512 556 LINE",
"693 737 LINE",
"752 677 LINE",
"556 481 LINE",
"556 469 LINE",
"720 469 LINE"
);
}
);
width = 1024;
}
);
unicode = E926;
},
{
glyphname = uniE927;
layers = (
{
layerId = "5789BFD8-8569-4DE2-B3C5-6A0ED3E84C22";
name = Regular;
paths = (
{
closed = 1;
nodes = (
"619 819 OFFCURVE",
"713 777 OFFCURVE",
"781 709 CURVE SMOOTH",
"848 641 OFFCURVE",
"890 548 OFFCURVE",
"890 444 CURVE SMOOTH",
"890 340 OFFCURVE",
"848 246 OFFCURVE",
"781 178 CURVE SMOOTH",
"713 110 OFFCURVE",
"619 68 OFFCURVE",
"515 68 CURVE SMOOTH",
"411 68 OFFCURVE",
"317 111 OFFCURVE",
"249 179 CURVE SMOOTH",
"181 247 OFFCURVE",
"139 340 OFFCURVE",
"139 444 CURVE SMOOTH",
"139 548 OFFCURVE",
"182 641 OFFCURVE",
"250 709 CURVE SMOOTH",
"318 777 OFFCURVE",
"412 819 OFFCURVE",
"515 819 CURVE SMOOTH"
);
},
{
closed = 1;
nodes = (
"388 905 OFFCURVE",
"273 853 OFFCURVE",
"190 770 CURVE SMOOTH",
"106 686 OFFCURVE",
"54 571 OFFCURVE",
"54 444 CURVE SMOOTH",
"54 316 OFFCURVE",
"105 201 OFFCURVE",
"189 118 CURVE SMOOTH",
"273 34 OFFCURVE",
"387 -17 OFFCURVE",
"515 -17 CURVE SMOOTH",
"642 -17 OFFCURVE",
"757 34 OFFCURVE",
"841 118 CURVE SMOOTH",
"924 201 OFFCURVE",
"976 316 OFFCURVE",
"976 444 CURVE SMOOTH",
"976 571 OFFCURVE",
"924 686 OFFCURVE",
"841 770 CURVE SMOOTH",
"757 853 OFFCURVE",
"642 905 OFFCURVE",
"515 905 CURVE SMOOTH",
"515 905 LINE SMOOTH"
);
},
{
closed = 1;
nodes = (
"565 479 LINE",
"565 731 LINE",
"465 731 LINE",
"465 381 LINE",
"799 381 LINE",
"799 479 LINE"
);
}
);
width = 1024;
}
);
unicode = E927;
},
{
glyphname = uniE928;
layers = (
{
layerId = "5789BFD8-8569-4DE2-B3C5-6A0ED3E84C22";
name = Regular;
paths = (
{
closed = 1;
nodes = (
"509 909 OFFCURVE",
"505 909 OFFCURVE",
"502 909 CURVE SMOOTH",
"498 909 OFFCURVE",
"494 909 OFFCURVE",
"489 909 CURVE",
"474 908 OFFCURVE",
"458 906 OFFCURVE",
"442 905 CURVE",
"439 904 OFFCURVE",
"435 903 OFFCURVE",
"431 902 CURVE SMOOTH",
"427 901 OFFCURVE",
"423 901 OFFCURVE",
"420 900 CURVE",
"412 899 OFFCURVE",
"404 897 OFFCURVE",
"397 895 CURVE SMOOTH",
"390 893 OFFCURVE",
"382 891 OFFCURVE",
"375 889 CURVE",
"372 888 OFFCURVE",
"368 887 OFFCURVE",
"365 886 CURVE",
"361 885 OFFCURVE",
"357 883 OFFCURVE",
"354 882 CURVE",
"299 861 OFFCURVE",
"247 829 OFFCURVE",
"203 789 CURVE",
"192 780 OFFCURVE",
"183 770 OFFCURVE",
"172 758 CURVE SMOOTH",
"152 737 OFFCURVE",
"135 712 OFFCURVE",
"119 687 CURVE SMOOTH",
"92 643 OFFCURVE",
"72 593 OFFCURVE",
"63 540 CURVE",
"61 533 OFFCURVE",
"60 525 OFFCURVE",
"59 518 CURVE SMOOTH",
"57 503 OFFCURVE",
"54 487 OFFCURVE",
"54 472 CURVE",
"53 464 OFFCURVE",
"53 456 OFFCURVE",
"53 448 CURVE SMOOTH",
"53 432 OFFCURVE",
"54 417 OFFCURVE",
"55 401 CURVE",
"56 393 OFFCURVE",
"58 385 OFFCURVE",
"59 378 CURVE SMOOTH",
"60 370 OFFCURVE",
"61 363 OFFCURVE",
"63 356 CURVE",
"74 303 OFFCURVE",
"92 253 OFFCURVE",
"119 209 CURVE SMOOTH",
"135 184 OFFCURVE",
"152 159 OFFCURVE",
"172 138 CURVE SMOOTH",
"183 126 OFFCURVE",
"192 116 OFFCURVE",
"203 107 CURVE",
"247 67 OFFCURVE",
"299 35 OFFCURVE",
"354 14 CURVE",
"361 11 OFFCURVE",
"368 8 OFFCURVE",
"375 7 CURVE",
"390 3 OFFCURVE",
"405 -1 OFFCURVE",
"420 -4 CURVE",
"423 -5 OFFCURVE",
"427 -5 OFFCURVE",
"431 -6 CURVE SMOOTH",
"435 -7 OFFCURVE",
"439 -8 OFFCURVE",
"442 -9 CURVE",
"458 -12 OFFCURVE",
"474 -13 OFFCURVE",
"489 -13 CURVE SMOOTH",
"494 -13 OFFCURVE",
"498 -13 OFFCURVE",
"502 -13 CURVE SMOOTH",
"505 -13 OFFCURVE",
"509 -13 OFFCURVE",
"513 -13 CURVE SMOOTH",
"641 -13 OFFCURVE",
"756 39 OFFCURVE",
"840 123 CURVE SMOOTH",
"923 206 OFFCURVE",
"974 321 OFFCURVE",
"974 448 CURVE SMOOTH",
"974 575 OFFCURVE",
"923 690 OFFCURVE",
"840 774 CURVE SMOOTH",
"756 857 OFFCURVE",
"641 909 OFFCURVE",
"513 909 CURVE SMOOTH"
);
},
{
closed = 1;
nodes = (
"464 384 LINE",
"464 734 LINE",
"563 734 LINE",
"563 484 LINE",
"798 484 LINE",
"798 384 LINE"
);
}
);
width = 1024;
}
);
unicode = E928;
},
{
glyphname = uniE929;
layers = (
{
layerId = "5789BFD8-8569-4DE2-B3C5-6A0ED3E84C22";
name = Regular;
paths = (
{
closed = 1;
nodes = (
"949 21 LINE",
"949 -64 LINE",
"71 -64 LINE",
"71 21 LINE"
);
},
{
closed = 1;
nodes = (
"949 293 LINE",
"949 378 LINE",
"71 378 LINE",
"71 293 LINE"
);
},
{
closed = 1;
nodes = (
"145 247 LINE",
"85 158 LINE",
"145 67 LINE",
"205 158 LINE"
);
},
{
closed = 1;
nodes = (
"383 247 LINE",
"323 156 LINE",
"383 65 LINE",
"442 156 LINE"
);
},
{
closed = 1;
nodes = (
"636 247 LINE",
"576 156 LINE",
"636 65 LINE",
"695 156 LINE"
);
},
{
closed = 1;
nodes = (
"875 247 LINE",
"815 156 LINE",
"875 65 LINE",
"934 156 LINE"
);
},
{
closed = 1;
nodes = (
"509 960 LINE",
"296 715 LINE",
"71 960 LINE",
"71 457 LINE",
"947 457 LINE",
"947 960 LINE",
"722 715 LINE"
);
}
);
width = 1024;
}
);
unicode = E929;
},
{
glyphname = uniE92A;
layers = (
{
layerId = "5789BFD8-8569-4DE2-B3C5-6A0ED3E84C22";
name = Regular;
paths = (
{
closed = 1;
nodes = (
"881 4 OFFCURVE",
"931 27 OFFCURVE",
"967 64 CURVE SMOOTH",
"1002 100 OFFCURVE",
"1024 151 OFFCURVE",
"1024 206 CURVE SMOOTH",
"1024 262 OFFCURVE",
"1002 312 OFFCURVE",
"967 349 CURVE SMOOTH",
"931 385 OFFCURVE",
"881 408 OFFCURVE",
"828 408 CURVE SMOOTH",
"729 408 OFFCURVE",
"713 506 OFFCURVE",
"754 603 CURVE SMOOTH",
"795 700 OFFCURVE",
"893 798 OFFCURVE",
"1024 798 CURVE",
"1024 892 LINE",
"791 892 OFFCURVE",
"629 669 OFFCURVE",
"582 448 CURVE SMOOTH",
"534 227 OFFCURVE",
"601 4 OFFCURVE",
"828 4 CURVE SMOOTH"
);
},
{
closed = 1;
nodes = (
"318 4 OFFCURVE",
"366 27 OFFCURVE",
"402 63 CURVE SMOOTH",
"437 99 OFFCURVE",
"459 150 OFFCURVE",
"459 206 CURVE SMOOTH",
"459 262 OFFCURVE",
"437 312 OFFCURVE",
"402 349 CURVE SMOOTH",
"366 385 OFFCURVE",
"318 408 OFFCURVE",
"263 408 CURVE SMOOTH",
"166 408 OFFCURVE",
"149 506 OFFCURVE",
"190 603 CURVE SMOOTH",
"230 700 OFFCURVE",
"328 798 OFFCURVE",
"459 798 CURVE",
"459 892 LINE",
"226 892 OFFCURVE",
"64 669 OFFCURVE",
"17 448 CURVE SMOOTH",
"-31 227 OFFCURVE",
"38 4 OFFCURVE",
"263 4 CURVE SMOOTH"
);
}
);
width = 1024;
}
);
unicode = E92A;
},
{
glyphname = uniE92B;
layers = (
{
layerId = "5789BFD8-8569-4DE2-B3C5-6A0ED3E84C22";
name = Regular;
paths = (
{
closed = 1;
nodes = (
"143 892 OFFCURVE",
"93 869 OFFCURVE",
"58 833 CURVE SMOOTH",
"22 796 OFFCURVE",
"0 745 OFFCURVE",
"0 690 CURVE SMOOTH",
"0 634 OFFCURVE",
"22 584 OFFCURVE",
"58 548 CURVE SMOOTH",
"93 511 OFFCURVE",
"143 488 OFFCURVE",
"196 488 CURVE SMOOTH",
"295 488 OFFCURVE",
"311 390 OFFCURVE",
"270 293 CURVE SMOOTH",
"229 196 OFFCURVE",
"131 98 OFFCURVE",
"0 98 CURVE",
"0 4 LINE",
"233 4 OFFCURVE",
"395 227 OFFCURVE",
"443 448 CURVE SMOOTH",
"490 669 OFFCURVE",
"423 892 OFFCURVE",
"196 892 CURVE SMOOTH"
);
},
{
closed = 1;
nodes = (
"706 892 OFFCURVE",
"658 869 OFFCURVE",
"623 833 CURVE SMOOTH",
"587 797 OFFCURVE",
"565 746 OFFCURVE",
"565 690 CURVE SMOOTH",
"565 634 OFFCURVE",
"587 584 OFFCURVE",
"623 548 CURVE SMOOTH",
"658 511 OFFCURVE",
"706 488 OFFCURVE",
"761 488 CURVE SMOOTH",
"858 488 OFFCURVE",
"875 390 OFFCURVE",
"835 293 CURVE SMOOTH",
"794 196 OFFCURVE",
"696 98 OFFCURVE",
"565 98 CURVE",
"565 4 LINE",
"798 4 OFFCURVE",
"960 227 OFFCURVE",
"1008 448 CURVE SMOOTH",
"1055 669 OFFCURVE",
"986 892 OFFCURVE",
"761 892 CURVE SMOOTH"
);
}
);
width = 1024;
}
);
unicode = E92B;
},
{
glyphname = uniE92C;
layers = (
{
layerId = "5789BFD8-8569-4DE2-B3C5-6A0ED3E84C22";
name = Regular;
paths = (
{
closed = 1;
nodes = (
"819 200 OFFCURVE",
"859 210 OFFCURVE",
"892 233 CURVE",
"892 31 LINE SMOOTH",
"892 18 OFFCURVE",
"882 6 OFFCURVE",
"863 -5 CURVE SMOOTH",
"824 -29 OFFCURVE",
"756 -46 OFFCURVE",
"665 -56 CURVE SMOOTH",
"619 -61 OFFCURVE",
"570 -64 OFFCURVE",
"519 -64 CURVE SMOOTH",
"518 -64 OFFCURVE",
"518 -64 OFFCURVE",
"518 -64 CURVE SMOOTH",
"517 -64 OFFCURVE",
"517 -64 OFFCURVE",
"516 -64 CURVE SMOOTH",
"413 -64 OFFCURVE",
"321 -53 OFFCURVE",
"254 -36 CURVE SMOOTH",
"220 -27 OFFCURVE",
"193 -17 OFFCURVE",
"174 -5 CURVE",
"155 6 OFFCURVE",
"145 18 OFFCURVE",
"145 31 CURVE SMOOTH",
"145 233 LINE",
"180 212 OFFCURVE",
"219 200 OFFCURVE",
"242 195 CURVE",
"315 176 OFFCURVE",
"412 166 OFFCURVE",
"516 166 CURVE SMOOTH",
"519 166 LINE SMOOTH",
"623 165 OFFCURVE",
"722 176 OFFCURVE",
"795 195 CURVE"
);
},
{
closed = 1;
nodes = (
"516 482 LINE SMOOTH",
"412 482 OFFCURVE",
"315 492 OFFCURVE",
"242 511 CURVE",
"218 516 OFFCURVE",
"178 526 OFFCURVE",
"145 549 CURVE",
"145 549 OFFCURVE",
"145 549 OFFCURVE",
"145 549 CURVE SMOOTH",
"145 549 OFFCURVE",
"145 549 OFFCURVE",
"145 548 CURVE SMOOTH",
"145 341 LINE SMOOTH",
"145 328 OFFCURVE",
"155 316 OFFCURVE",
"174 305 CURVE SMOOTH",
"213 281 OFFCURVE",
"282 264 OFFCURVE",
"372 254 CURVE SMOOTH",
"417 249 OFFCURVE",
"465 246 OFFCURVE",
"516 246 CURVE SMOOTH",
"517 246 OFFCURVE",
"517 246 OFFCURVE",
"518 246 CURVE",
"518 246 OFFCURVE",
"518 246 OFFCURVE",
"519 246 CURVE SMOOTH",
"622 246 OFFCURVE",
"716 257 OFFCURVE",
"784 274 CURVE SMOOTH",
"817 283 OFFCURVE",
"844 293 OFFCURVE",
"864 305 CURVE SMOOTH",
"883 316 OFFCURVE",
"893 328 OFFCURVE",
"893 341 CURVE SMOOTH",
"893 548 LINE",
"893 548 OFFCURVE",
"893 548 OFFCURVE",
"893 548 CURVE SMOOTH",
"893 548 OFFCURVE",
"893 548 OFFCURVE",
"893 548 CURVE",
"860 527 OFFCURVE",
"820 514 OFFCURVE",
"796 509 CURVE SMOOTH",
"721 492 OFFCURVE",
"623 482 OFFCURVE",
"519 482 CURVE SMOOTH"
);
},
{
closed = 1;
nodes = (
"517 563 OFFCURVE",
"517 563 OFFCURVE",
"518 563 CURVE",
"518 563 OFFCURVE",
"518 563 OFFCURVE",
"519 563 CURVE SMOOTH",
"622 563 OFFCURVE",
"716 574 OFFCURVE",
"784 591 CURVE SMOOTH",
"817 600 OFFCURVE",
"844 610 OFFCURVE",
"864 622 CURVE SMOOTH",
"883 633 OFFCURVE",
"893 645 OFFCURVE",
"893 658 CURVE SMOOTH",
"893 865 LINE SMOOTH",
"893 878 OFFCURVE",
"883 890 OFFCURVE",
"864 902 CURVE",
"824 925 OFFCURVE",
"757 943 OFFCURVE",
"667 953 CURVE SMOOTH",
"622 958 OFFCURVE",
"573 960 OFFCURVE",
"522 960 CURVE SMOOTH",
"521 960 OFFCURVE",
"521 960 OFFCURVE",
"521 960 CURVE SMOOTH",
"520 960 OFFCURVE",
"520 960 OFFCURVE",
"519 960 CURVE SMOOTH",
"415 960 OFFCURVE",
"322 949 OFFCURVE",
"255 932 CURVE SMOOTH",
"221 923 OFFCURVE",
"194 913 OFFCURVE",
"175 902 CURVE SMOOTH",
"155 890 OFFCURVE",
"145 878 OFFCURVE",
"145 865 CURVE SMOOTH",
"145 658 LINE SMOOTH",
"145 645 OFFCURVE",
"155 633 OFFCURVE",
"174 622 CURVE SMOOTH",
"213 598 OFFCURVE",
"282 581 OFFCURVE",
"372 571 CURVE SMOOTH",
"417 566 OFFCURVE",
"465 563 OFFCURVE",
"516 563 CURVE SMOOTH"
);
}
);
width = 1024;
}
);
unicode = E92C;
},
{
glyphname = uniE92D;
layers = (
{
layerId = "5789BFD8-8569-4DE2-B3C5-6A0ED3E84C22";
name = Regular;
paths = (
{
closed = 1;
nodes = (
"957 487 OFFCURVE",
"989 516 OFFCURVE",
"1025 516 CURVE",
"1025 653 LINE SMOOTH",
"1025 684 OFFCURVE",
"1000 710 OFFCURVE",
"969 710 CURVE SMOOTH",
"762 710 LINE",
"762 654 LINE",
"703 654 LINE",
"703 710 LINE",
"58 710 LINE SMOOTH",
"27 710 OFFCURVE",
"1 684 OFFCURVE",
"1 653 CURVE SMOOTH",
"1 516 LINE",
"40 516 OFFCURVE",
"70 485 OFFCURVE",
"70 448 CURVE SMOOTH",
"70 411 OFFCURVE",
"38 380 OFFCURVE",
"1 380 CURVE",
"1 243 LINE SMOOTH",
"1 212 OFFCURVE",
"27 186 OFFCURVE",
"58 186 CURVE SMOOTH",
"701 186 LINE",
"701 242 LINE",
"761 242 LINE",
"761 186 LINE",
"967 186 LINE SMOOTH",
"999 186 OFFCURVE",
"1024 212 OFFCURVE",
"1024 243 CURVE SMOOTH",
"1024 380 LINE",
"987 380 OFFCURVE",
"957 409 OFFCURVE",
"957 448 CURVE SMOOTH"
);
},
{
closed = 1;
nodes = (
"762 306 LINE",
"703 306 LINE",
"703 417 LINE",
"762 417 LINE"
);
},
{
closed = 1;
nodes = (
"762 481 LINE",
"703 481 LINE",
"703 590 LINE",
"762 590 LINE"
);
}
);
width = 1024;
}
);
unicode = E92D;
},
{
glyphname = uniE92E;
layers = (
{
layerId = "5789BFD8-8569-4DE2-B3C5-6A0ED3E84C22";
name = Regular;
paths = (
{
closed = 1;
nodes = (
"913 754 LINE",
"900 741 OFFCURVE",
"885 735 OFFCURVE",
"866 735 CURVE SMOOTH",
"829 735 OFFCURVE",
"800 764 OFFCURVE",
"800 801 CURVE SMOOTH",
"800 819 OFFCURVE",
"806 835 OFFCURVE",
"819 848 CURVE",
"725 942 LINE SMOOTH",
"714 953 OFFCURVE",
"701 958 OFFCURVE",
"686 958 CURVE SMOOTH",
"671 958 OFFCURVE",
"658 953 OFFCURVE",
"647 942 CURVE SMOOTH",
"506 801 LINE",
"545 762 LINE",
"503 721 LINE",
"465 759 LINE",
"24 319 LINE SMOOTH",
"13 308 OFFCURVE",
"8 295 OFFCURVE",
"8 280 CURVE SMOOTH",
"8 264 OFFCURVE",
"13 251 OFFCURVE",
"24 240 CURVE SMOOTH",
"118 146 LINE",
"131 159 OFFCURVE",
"146 166 OFFCURVE",
"165 166 CURVE SMOOTH",
"202 166 OFFCURVE",
"231 136 OFFCURVE",
"231 100 CURVE SMOOTH",
"231 81 OFFCURVE",
"225 66 OFFCURVE",
"212 53 CURVE",
"306 -41 LINE SMOOTH",
"317 -52 OFFCURVE",
"330 -57 OFFCURVE",
"345 -57 CURVE SMOOTH",
"360 -57 OFFCURVE",
"373 -52 OFFCURVE",
"384 -41 CURVE SMOOTH",
"825 400 LINE",
"786 438 LINE",
"828 479 LINE",
"866 441 LINE",
"1007 582 LINE SMOOTH",
"1018 593 OFFCURVE",
"1023 606 OFFCURVE",
"1023 621 CURVE SMOOTH",
"1023 636 OFFCURVE",
"1018 649 OFFCURVE",
"1007 660 CURVE SMOOTH"
);
},
{
closed = 1;
nodes = (
"623 600 LINE",
"548 676 LINE",
"589 717 LINE",
"664 641 LINE"
);
},
{
closed = 1;
nodes = (
"742 481 LINE",
"667 556 LINE",
"708 597 LINE",
"784 522 LINE"
);
}
);
width = 1024;
}
);
unicode = E92E;
},
{
glyphname = uniE92F;
layers = (
{
layerId = "5789BFD8-8569-4DE2-B3C5-6A0ED3E84C22";
name = Regular;
paths = (
{
closed = 1;
nodes = (
"939 775 LINE",
"939 107 LINE",
"85 107 LINE",
"85 775 LINE"
);
},
{
closed = 1;
nodes = (
"1024 860 LINE",
"0 860 LINE",
"0 21 LINE",
"1024 21 LINE"
);
},
{
closed = 1;
nodes = (
"798 697 LINE",
"512 422 LINE",
"225 697 LINE",
"175 646 LINE",
"512 324 LINE",
"848 646 LINE"
);
}
);
width = 1024;
}
);
unicode = E92F;
},
{
glyphname = uniE930;
layers = (
{
layerId = "5789BFD8-8569-4DE2-B3C5-6A0ED3E84C22";
name = Regular;
paths = (
{
closed = 1;
nodes = (
"0 860 LINE",
"0 21 LINE",
"1024 21 LINE",
"1024 860 LINE"
);
},
{
closed = 1;
nodes = (
"512 422 LINE",
"144 775 LINE",
"880 775 LINE"
);
},
{
closed = 1;
nodes = (
"85 732 LINE",
"512 326 LINE",
"939 732 LINE",
"939 107 LINE",
"85 107 LINE"
);
}
);
width = 1024;
}
);
unicode = E930;
},
{
glyphname = uniE931;
layers = (
{
layerId = "5789BFD8-8569-4DE2-B3C5-6A0ED3E84C22";
name = Regular;
paths = (
{
closed = 1;
nodes = (
"0 860 LINE",
"0 21 LINE",
"1024 21 LINE",
"1024 860 LINE"
);
},
{
closed = 1;
nodes = (
"341 459 LINE",
"85 215 LINE",
"85 728 LINE"
);
},
{
closed = 1;
nodes = (
"139 775 LINE",
"885 775 LINE",
"512 383 LINE"
);
},
{
closed = 1;
nodes = (
"939 728 LINE",
"939 215 LINE",
"683 459 LINE"
);
},
{
closed = 1;
nodes = (
"85 117 LINE",
"390 408 LINE",
"512 280 LINE",
"634 408 LINE",
"939 117 LINE",
"939 107 LINE",
"85 107 LINE"
);
}
);
width = 1024;
}
);
unicode = E931;
},
{
glyphname = uniE932;
layers = (
{
layerId = "5789BFD8-8569-4DE2-B3C5-6A0ED3E84C22";
name = Regular;
paths = (
{
closed = 1;
nodes = (
"1014 860 LINE",
"13 860 LINE",
"513 461 LINE"
);
},
{
closed = 1;
nodes = (
"513 316 LINE",
"1 724 LINE",
"1 21 LINE",
"1025 21 LINE",
"1025 724 LINE"
);
}
);
width = 1024;
}
);
unicode = E932;
},
{
glyphname = uniE933;
layers = (
{
layerId = "5789BFD8-8569-4DE2-B3C5-6A0ED3E84C22";
name = Regular;
paths = (
{
closed = 1;
nodes = (
"0 860 LINE",
"0 21 LINE",
"1024 21 LINE",
"1024 860 LINE"
);
},
{
closed = 1;
nodes = (
"651 447 LINE",
"909 201 LINE",
"913 196 OFFCURVE",
"915 191 OFFCURVE",
"915 186 CURVE SMOOTH",
"915 174 OFFCURVE",
"908 168 OFFCURVE",
"902 166 CURVE SMOOTH",
"899 165 OFFCURVE",
"896 164 OFFCURVE",
"893 164 CURVE SMOOTH",
"888 164 OFFCURVE",
"883 165 OFFCURVE",
"879 169 CURVE SMOOTH",
"622 415 LINE",
"528 316 LINE",
"523 312 OFFCURVE",
"517 309 OFFCURVE",
"512 309 CURVE SMOOTH",
"507 309 OFFCURVE",
"501 312 OFFCURVE",
"496 316 CURVE",
"402 415 LINE",
"145 171 LINE",
"141 166 OFFCURVE",
"135 165 OFFCURVE",
"131 165 CURVE SMOOTH",
"126 165 OFFCURVE",
"119 168 OFFCURVE",
"115 172 CURVE SMOOTH",
"107 180 OFFCURVE",
"108 194 OFFCURVE",
"115 202 CURVE",
"373 448 LINE",
"108 725 LINE",
"100 734 OFFCURVE",
"101 748 OFFCURVE",
"110 755 CURVE",
"118 764 OFFCURVE",
"132 762 OFFCURVE",
"139 754 CURVE",
"512 363 LINE",
"885 755 LINE",
"889 760 OFFCURVE",
"894 762 OFFCURVE",
"900 762 CURVE SMOOTH",
"911 762 OFFCURVE",
"921 753 OFFCURVE",
"922 741 CURVE",
"922 735 OFFCURVE",
"920 730 OFFCURVE",
"916 725 CURVE"
);
}
);
width = 1024;
}
);
unicode = E933;
},
{
glyphname = uniE934;
layers = (
{
layerId = "5789BFD8-8569-4DE2-B3C5-6A0ED3E84C22";
name = Regular;
paths = (
{
closed = 1;
nodes = (
"131 939 LINE SMOOTH",
"62 939 OFFCURVE",
"3 880 OFFCURVE",
"3 811 CURVE SMOOTH",
"3 363 LINE SMOOTH",
"3 291 OFFCURVE",
"62 235 OFFCURVE",
"131 235 CURVE SMOOTH",
"387 235 LINE",
"643 -28 LINE",
"643 235 LINE",
"899 235 LINE SMOOTH",
"968 235 OFFCURVE",
"1027 291 OFFCURVE",
"1027 363 CURVE SMOOTH",
"1027 811 LINE SMOOTH",
"1027 882 OFFCURVE",
"968 939 OFFCURVE",
"899 939 CURVE SMOOTH"
);
}
);
width = 1024;
}
);
unicode = E934;
},
{
glyphname = uniE935;
layers = (
{
layerId = "5789BFD8-8569-4DE2-B3C5-6A0ED3E84C22";
name = Regular;
paths = (
{
closed = 1;
nodes = (
"897 939 LINE SMOOTH",
"968 939 OFFCURVE",
"1025 880 OFFCURVE",
"1025 811 CURVE SMOOTH",
"1025 363 LINE SMOOTH",
"1025 291 OFFCURVE",
"968 235 OFFCURVE",
"897 235 CURVE SMOOTH",
"641 235 LINE",
"385 -28 LINE",
"385 235 LINE",
"129 235 LINE SMOOTH",
"58 235 OFFCURVE",
"1 291 OFFCURVE",
"1 363 CURVE SMOOTH",
"1 811 LINE SMOOTH",
"1 882 OFFCURVE",
"58 939 OFFCURVE",
"129 939 CURVE SMOOTH"
);
}
);
width = 1024;
}
);
unicode = E935;
},
{
glyphname = uniE936;
layers = (
{
layerId = "5789BFD8-8569-4DE2-B3C5-6A0ED3E84C22";
name = Regular;
paths = (
{
closed = 1;
nodes = (
"371 64 LINE",
"340 94 LINE",
"694 448 LINE",
"340 802 LINE",
"371 832 LINE",
"754 448 LINE"
);
}
);
width = 1024;
}
);
unicode = E936;
},
{
glyphname = uniE937;
layers = (
{
layerId = "5789BFD8-8569-4DE2-B3C5-6A0ED3E84C22";
name = Regular;
paths = (
{
closed = 1;
nodes = (
"377 54 LINE",
"326 105 LINE",
"670 448 LINE",
"326 791 LINE",
"377 842 LINE",
"769 448 LINE"
);
}
);
width = 1024;
}
);
unicode = E937;
},
{
glyphname = uniE938;
layers = (
{
layerId = "5789BFD8-8569-4DE2-B3C5-6A0ED3E84C22";
name = Regular;
paths = (
{
closed = 1;
nodes = (
"391 44 LINE",
"320 115 LINE",
"654 448 LINE",
"320 781 LINE",
"391 852 LINE",
"795 448 LINE"
);
}
);
width = 1024;
}
);
unicode = E938;
},
{
glyphname = uniE939;
layers = (
{
layerId = "5789BFD8-8569-4DE2-B3C5-6A0ED3E84C22";
name = Regular;
paths = (
{
closed = 1;
nodes = (
"408 30 LINE",
"307 129 LINE",
"626 448 LINE",
"307 767 LINE",
"408 866 LINE",
"826 448 LINE"
);
}
);
width = 1024;
}
);
unicode = E939;
},
{
glyphname = uniE93A;
layers = (
{
layerId = "5789BFD8-8569-4DE2-B3C5-6A0ED3E84C22";
name = Regular;
paths = (
{
closed = 1;
nodes = (
"619 28 LINE",
"199 447 LINE",
"619 866 LINE",
"720 765 LINE",
"401 447 LINE",
"720 129 LINE"
);
}
);
width = 1024;
}
);
unicode = E93A;
},
{
glyphname = uniE93B;
layers = (
{
layerId = "5789BFD8-8569-4DE2-B3C5-6A0ED3E84C22";
name = Regular;
paths = (
{
closed = 1;
nodes = (
"634 44 LINE",
"232 447 LINE",
"634 850 LINE",
"705 781 LINE",
"373 447 LINE",
"705 114 LINE"
);
}
);
width = 1024;
}
);
unicode = E93B;
},
{
glyphname = uniE93C;
layers = (
{
layerId = "5789BFD8-8569-4DE2-B3C5-6A0ED3E84C22";
name = Regular;
paths = (
{
closed = 1;
nodes = (
"650 54 LINE",
"257 448 LINE",
"650 842 LINE",
"701 791 LINE",
"357 448 LINE",
"701 105 LINE"
);
}
);
width = 1024;
}
);
unicode = E93C;
},
{
glyphname = uniE93D;
layers = (
{
layerId = "5789BFD8-8569-4DE2-B3C5-6A0ED3E84C22";
name = Regular;
paths = (
{
closed = 1;
nodes = (
"657 64 LINE",
"274 448 LINE",
"657 832 LINE",
"688 802 LINE",
"334 448 LINE",
"688 94 LINE"
);
}
);
width = 1024;
}
);
unicode = E93D;
},
{
glyphname = uniE93E;
layers = (
{
layerId = "5789BFD8-8569-4DE2-B3C5-6A0ED3E84C22";
name = Regular;
paths = (
{
closed = 1;
nodes = (
"371 960 OFFCURVE",
"242 903 OFFCURVE",
"150 811 CURVE SMOOTH",
"57 718 OFFCURVE",
"0 589 OFFCURVE",
"0 448 CURVE SMOOTH",
"0 307 OFFCURVE",
"57 178 OFFCURVE",
"150 86 CURVE SMOOTH",
"242 -7 OFFCURVE",
"371 -64 OFFCURVE",
"512 -64 CURVE SMOOTH",
"653 -64 OFFCURVE",
"782 -7 OFFCURVE",
"875 86 CURVE SMOOTH",
"967 178 OFFCURVE",
"1024 307 OFFCURVE",
"1024 448 CURVE SMOOTH",
"1024 589 OFFCURVE",
"966 718 OFFCURVE",
"874 811 CURVE SMOOTH",
"781 903 OFFCURVE",
"653 960 OFFCURVE",
"512 960 CURVE SMOOTH"
);
},
{
closed = 1;
nodes = (
"458 239 LINE",
"408 289 LINE",
"567 448 LINE",
"408 607 LINE",
"458 657 LINE",
"668 448 LINE"
);
}
);
width = 1024;
}
);
unicode = E93E;
},
{
glyphname = uniE93F;
layers = (
{
layerId = "5789BFD8-8569-4DE2-B3C5-6A0ED3E84C22";
name = Regular;
paths = (
{
closed = 1;
nodes = (
"656 -64 OFFCURVE",
"783 -7 OFFCURVE",
"876 86 CURVE SMOOTH",
"968 178 OFFCURVE",
"1025 307 OFFCURVE",
"1025 448 CURVE SMOOTH",
"1025 589 OFFCURVE",
"968 718 OFFCURVE",
"875 811 CURVE SMOOTH",
"782 903 OFFCURVE",
"654 960 OFFCURVE",
"513 960 CURVE SMOOTH",
"372 960 OFFCURVE",
"244 903 OFFCURVE",
"152 811 CURVE SMOOTH",
"59 718 OFFCURVE",
"1 589 OFFCURVE",
"1 448 CURVE SMOOTH",
"1 307 OFFCURVE",
"59 178 OFFCURVE",
"152 86 CURVE SMOOTH",
"244 -7 OFFCURVE",
"372 -64 OFFCURVE",
"513 -64 CURVE SMOOTH"
);
},
{
closed = 1;
nodes = (
"566 657 LINE",
"616 607 LINE",
"457 448 LINE",
"616 289 LINE",
"566 239 LINE",
"357 448 LINE"
);
}
);
width = 1024;
}
);
unicode = E93F;
},
{
glyphname = uniE940;
layers = (
{
layerId = "5789BFD8-8569-4DE2-B3C5-6A0ED3E84C22";
name = Regular;
paths = (
{
closed = 1;
nodes = (
"0 307 OFFCURVE",
"57 178 OFFCURVE",
"150 86 CURVE SMOOTH",
"242 -7 OFFCURVE",
"371 -64 OFFCURVE",
"512 -64 CURVE SMOOTH",
"653 -64 OFFCURVE",
"782 -7 OFFCURVE",
"875 86 CURVE SMOOTH",
"967 178 OFFCURVE",
"1024 307 OFFCURVE",
"1024 448 CURVE SMOOTH",
"1024 589 OFFCURVE",
"967 718 OFFCURVE",
"875 811 CURVE SMOOTH",
"782 903 OFFCURVE",
"653 960 OFFCURVE",
"512 960 CURVE SMOOTH",
"371 960 OFFCURVE",
"242 903 OFFCURVE",
"150 811 CURVE SMOOTH",
"57 718 OFFCURVE",
"0 589 OFFCURVE",
"0 448 CURVE SMOOTH"
);
},
{
closed = 1;
nodes = (
"721 395 LINE",
"671 346 LINE",
"512 503 LINE",
"353 344 LINE",
"303 394 LINE",
"512 604 LINE"
);
}
);
width = 1024;
}
);
unicode = E940;
},
{
glyphname = uniE941;
layers = (
{
layerId = "5789BFD8-8569-4DE2-B3C5-6A0ED3E84C22";
name = Regular;
paths = (
{
closed = 1;
nodes = (
"1025 589 OFFCURVE",
"968 718 OFFCURVE",
"876 811 CURVE SMOOTH",
"783 903 OFFCURVE",
"656 960 OFFCURVE",
"513 960 CURVE SMOOTH",
"372 960 OFFCURVE",
"244 903 OFFCURVE",
"152 811 CURVE SMOOTH",
"59 718 OFFCURVE",
"1 589 OFFCURVE",
"1 448 CURVE SMOOTH",
"1 307 OFFCURVE",
"59 178 OFFCURVE",
"152 86 CURVE SMOOTH",
"244 -7 OFFCURVE",
"372 -64 OFFCURVE",
"513 -64 CURVE SMOOTH",
"656 -64 OFFCURVE",
"783 -7 OFFCURVE",
"876 86 CURVE SMOOTH",
"968 178 OFFCURVE",
"1025 307 OFFCURVE",
"1025 448 CURVE SMOOTH"
);
},
{
closed = 1;
nodes = (
"353 550 LINE",
"512 391 LINE",
"671 550 LINE",
"721 501 LINE",
"513 292 LINE",
"303 501 LINE"
);
}
);
width = 1024;
}
);
unicode = E941;
},
{
glyphname = uniE942;
layers = (
{
layerId = "5789BFD8-8569-4DE2-B3C5-6A0ED3E84C22";
name = Regular;
paths = (
{
closed = 1;
nodes = (
"371 960 OFFCURVE",
"242 903 OFFCURVE",
"150 811 CURVE SMOOTH",
"57 718 OFFCURVE",
"0 589 OFFCURVE",
"0 448 CURVE SMOOTH",
"0 307 OFFCURVE",
"57 178 OFFCURVE",
"150 86 CURVE SMOOTH",
"242 -7 OFFCURVE",
"371 -64 OFFCURVE",
"512 -64 CURVE SMOOTH",
"653 -64 OFFCURVE",
"782 -7 OFFCURVE",
"875 86 CURVE SMOOTH",
"967 178 OFFCURVE",
"1024 307 OFFCURVE",
"1024 448 CURVE SMOOTH",
"1024 589 OFFCURVE",
"967 718 OFFCURVE",
"875 811 CURVE SMOOTH",
"782 903 OFFCURVE",
"653 960 OFFCURVE",
"512 960 CURVE SMOOTH"
);
},
{
closed = 1;
nodes = (
"357 225 LINE",
"579 448 LINE",
"357 671 LINE",
"427 741 LINE",
"720 448 LINE",
"427 155 LINE"
);
}
);
width = 1024;
}
);
unicode = E942;
},
{
glyphname = uniE943;
layers = (
{
layerId = "5789BFD8-8569-4DE2-B3C5-6A0ED3E84C22";
name = Regular;
paths = (
{
closed = 1;
nodes = (
"656 -64 OFFCURVE",
"783 -7 OFFCURVE",
"876 86 CURVE SMOOTH",
"968 178 OFFCURVE",
"1025 307 OFFCURVE",
"1025 448 CURVE SMOOTH",
"1025 589 OFFCURVE",
"968 718 OFFCURVE",
"876 811 CURVE SMOOTH",
"783 903 OFFCURVE",
"656 960 OFFCURVE",
"513 960 CURVE SMOOTH",
"372 960 OFFCURVE",
"244 903 OFFCURVE",
"152 811 CURVE SMOOTH",
"59 718 OFFCURVE",
"1 589 OFFCURVE",
"1 448 CURVE SMOOTH",
"1 307 OFFCURVE",
"59 178 OFFCURVE",
"152 86 CURVE SMOOTH",
"244 -7 OFFCURVE",
"372 -64 OFFCURVE",
"513 -64 CURVE SMOOTH"
);
},
{
closed = 1;
nodes = (
"599 741 LINE",
"668 671 LINE",
"447 448 LINE",
"668 225 LINE",
"599 155 LINE",
"306 448 LINE"
);
}
);
width = 1024;
}
);
unicode = E943;
},
{
glyphname = uniE944;
layers = (
{
layerId = "5789BFD8-8569-4DE2-B3C5-6A0ED3E84C22";
name = Regular;
paths = (
{
closed = 1;
nodes = (
"0 307 OFFCURVE",
"57 178 OFFCURVE",
"150 86 CURVE SMOOTH",
"242 -7 OFFCURVE",
"371 -64 OFFCURVE",
"512 -64 CURVE SMOOTH",
"653 -64 OFFCURVE",
"782 -7 OFFCURVE",
"875 86 CURVE SMOOTH",
"967 178 OFFCURVE",
"1024 307 OFFCURVE",
"1024 448 CURVE SMOOTH",
"1024 589 OFFCURVE",
"967 718 OFFCURVE",
"875 811 CURVE SMOOTH",
"782 903 OFFCURVE",
"653 960 OFFCURVE",
"512 960 CURVE SMOOTH",
"371 960 OFFCURVE",
"242 903 OFFCURVE",
"150 811 CURVE SMOOTH",
"57 718 OFFCURVE",
"0 589 OFFCURVE",
"0 448 CURVE SMOOTH"
);
},
{
closed = 1;
nodes = (
"735 293 LINE",
"512 515 LINE",
"289 293 LINE",
"219 363 LINE",
"512 656 LINE",
"805 363 LINE"
);
}
);
width = 1024;
}
);
unicode = E944;
},
{
glyphname = uniE945;
layers = (
{
layerId = "5789BFD8-8569-4DE2-B3C5-6A0ED3E84C22";
name = Regular;
paths = (
{
closed = 1;
nodes = (
"1025 589 OFFCURVE",
"968 718 OFFCURVE",
"876 811 CURVE SMOOTH",
"783 903 OFFCURVE",
"656 960 OFFCURVE",
"513 960 CURVE SMOOTH",
"372 960 OFFCURVE",
"244 903 OFFCURVE",
"152 811 CURVE SMOOTH",
"59 718 OFFCURVE",
"1 589 OFFCURVE",
"1 448 CURVE SMOOTH",
"1 307 OFFCURVE",
"59 178 OFFCURVE",
"152 86 CURVE SMOOTH",
"244 -7 OFFCURVE",
"372 -64 OFFCURVE",
"513 -64 CURVE SMOOTH",
"656 -64 OFFCURVE",
"783 -7 OFFCURVE",
"876 86 CURVE SMOOTH",
"968 178 OFFCURVE",
"1025 307 OFFCURVE",
"1025 448 CURVE SMOOTH"
);
},
{
closed = 1;
nodes = (
"290 603 LINE",
"513 380 LINE",
"737 603 LINE",
"806 533 LINE",
"513 240 LINE",
"220 533 LINE"
);
}
);
width = 1024;
}
);
unicode = E945;
},
{
glyphname = uniE946;
layers = (
{
layerId = "5789BFD8-8569-4DE2-B3C5-6A0ED3E84C22";
name = Regular;
paths = (
{
closed = 1;
nodes = (
"543 714 LINE",
"277 448 LINE",
"543 182 LINE",
"459 98 LINE",
"108 448 LINE",
"459 798 LINE"
);
},
{
closed = 1;
nodes = (
"842 98 LINE",
"926 182 LINE",
"660 448 LINE",
"926 714 LINE",
"842 798 LINE",
"492 448 LINE"
);
}
);
width = 1024;
}
);
unicode = E946;
},
{
glyphname = uniE947;
layers = (
{
layerId = "5789BFD8-8569-4DE2-B3C5-6A0ED3E84C22";
name = Regular;
paths = (
{
closed = 1;
nodes = (
"575 98 LINE",
"491 182 LINE",
"757 448 LINE",
"491 714 LINE",
"575 798 LINE",
"924 448 LINE"
);
},
{
closed = 1;
nodes = (
"192 798 LINE",
"108 714 LINE",
"374 448 LINE",
"107 182 LINE",
"191 98 LINE",
"542 448 LINE"
);
}
);
width = 1024;
}
);
unicode = E947;
},
{
glyphname = uniE948;
layers = (
{
layerId = "5789BFD8-8569-4DE2-B3C5-6A0ED3E84C22";
name = Regular;
paths = (
{
closed = 1;
nodes = (
"501 -6 LINE",
"1024 448 LINE",
"501 902 LINE",
"501 619 LINE",
"0 619 LINE",
"0 277 LINE",
"501 277 LINE"
);
}
);
width = 1024;
}
);
unicode = E948;
},
{
glyphname = uniE949;
layers = (
{
layerId = "5789BFD8-8569-4DE2-B3C5-6A0ED3E84C22";
name = Regular;
paths = (
{
closed = 1;
nodes = (
"966 437 LINE",
"512 960 LINE",
"58 437 LINE",
"341 437 LINE",
"341 -64 LINE",
"683 -64 LINE",
"683 437 LINE"
);
}
);
width = 1024;
}
);
unicode = E949;
},
{
glyphname = uniE94A;
layers = (
{
layerId = "5789BFD8-8569-4DE2-B3C5-6A0ED3E84C22";
name = Regular;
paths = (
{
closed = 1;
nodes = (
"523 902 LINE",
"0 448 LINE",
"523 -6 LINE",
"523 277 LINE",
"1024 277 LINE",
"1024 619 LINE",
"523 619 LINE"
);
}
);
width = 1024;
}
);
unicode = E94A;
},
{
glyphname = uniE94B;
layers = (
{
layerId = "5789BFD8-8569-4DE2-B3C5-6A0ED3E84C22";
name = Regular;
paths = (
{
closed = 1;
nodes = (
"58 459 LINE",
"512 -64 LINE",
"966 459 LINE",
"683 459 LINE",
"683 960 LINE",
"341 960 LINE",
"341 459 LINE"
);
}
);
width = 1024;
}
);
unicode = E94B;
},
{
glyphname = uniE94C;
layers = (
{
layerId = "5789BFD8-8569-4DE2-B3C5-6A0ED3E84C22";
name = Regular;
paths = (
{
closed = 1;
nodes = (
"737 353 LINE",
"1 353 LINE",
"1 545 LINE",
"737 545 LINE",
"737 735 LINE",
"1023 448 LINE",
"737 161 LINE"
);
}
);
width = 1024;
}
);
unicode = E94C;
},
{
glyphname = uniE94D;
layers = (
{
layerId = "5789BFD8-8569-4DE2-B3C5-6A0ED3E84C22";
name = Regular;
paths = (
{
closed = 1;
nodes = (
"609 673 LINE",
"609 -63 LINE",
"418 -63 LINE",
"418 673 LINE",
"228 673 LINE",
"515 959 LINE",
"802 673 LINE"
);
}
);
width = 1024;
}
);
unicode = E94D;
},
{
glyphname = uniE94E;
layers = (
{
layerId = "5789BFD8-8569-4DE2-B3C5-6A0ED3E84C22";
name = Regular;
paths = (
{
closed = 1;
nodes = (
"287 543 LINE",
"1023 543 LINE",
"1023 351 LINE",
"287 351 LINE",
"287 161 LINE",
"1 448 LINE",
"287 735 LINE"
);
}
);
width = 1024;
}
);
unicode = E94E;
},
{
glyphname = uniE94F;
layers = (
{
layerId = "5789BFD8-8569-4DE2-B3C5-6A0ED3E84C22";
name = Regular;
paths = (
{
closed = 1;
nodes = (
"420 957 LINE",
"610 957 LINE",
"610 222 LINE",
"801 222 LINE",
"513 -64 LINE",
"226 222 LINE",
"420 222 LINE"
);
}
);
width = 1024;
}
);
unicode = E94F;
},
{
glyphname = uniE950;
layers = (
{
layerId = "5789BFD8-8569-4DE2-B3C5-6A0ED3E84C22";
name = Regular;
paths = (
{
closed = 1;
nodes = (
"381 47 LINE",
"10 418 LINE",
"161 569 LINE",
"381 348 LINE",
"853 822 LINE",
"1004 671 LINE"
);
}
);
width = 1024;
}
);
unicode = E950;
},
{
glyphname = uniE951;
layers = (
{
layerId = "5789BFD8-8569-4DE2-B3C5-6A0ED3E84C22";
name = Regular;
paths = (
{
closed = 1;
nodes = (
"381 97 LINE",
"36 442 LINE",
"135 543 LINE",
"381 299 LINE",
"879 796 LINE",
"980 697 LINE"
);
}
);
width = 1024;
}
);
unicode = E951;
},
{
glyphname = uniE952;
layers = (
{
layerId = "5789BFD8-8569-4DE2-B3C5-6A0ED3E84C22";
name = Regular;
paths = (
{
closed = 1;
nodes = (
"381 128 LINE",
"50 458 LINE",
"121 529 LINE",
"381 269 LINE",
"895 782 LINE",
"964 711 LINE"
);
}
);
width = 1024;
}
);
unicode = E952;
},
{
glyphname = uniE953;
layers = (
{
layerId = "5789BFD8-8569-4DE2-B3C5-6A0ED3E84C22";
name = Regular;
paths = (
{
closed = 1;
nodes = (
"381 148 LINE",
"60 468 LINE",
"111 518 LINE",
"381 249 LINE",
"905 772 LINE",
"954 721 LINE"
);
}
);
width = 1024;
}
);
unicode = E953;
},
{
glyphname = uniE954;
layers = (
{
layerId = "5789BFD8-8569-4DE2-B3C5-6A0ED3E84C22";
name = Regular;
paths = (
{
closed = 1;
nodes = (
"374 778 LINE",
"374 115 LINE",
"707 447 LINE"
);
}
);
width = 1024;
}
);
unicode = E954;
},
{
glyphname = uniE955;
layers = (
{
layerId = "5789BFD8-8569-4DE2-B3C5-6A0ED3E84C22";
name = Regular;
paths = (
{
closed = 1;
nodes = (
"649 119 LINE",
"649 782 LINE",
"317 451 LINE"
);
}
);
width = 1024;
}
);
unicode = E955;
},
{
glyphname = uniE956;
layers = (
{
layerId = "5789BFD8-8569-4DE2-B3C5-6A0ED3E84C22";
name = Regular;
paths = (
{
closed = 1;
nodes = (
"183 310 LINE",
"846 310 LINE",
"515 643 LINE"
);
}
);
width = 1024;
}
);
unicode = E956;
},
{
glyphname = uniE957;
layers = (
{
layerId = "5789BFD8-8569-4DE2-B3C5-6A0ED3E84C22";
name = Regular;
paths = (
{
closed = 1;
nodes = (
"843 587 LINE",
"179 587 LINE",
"512 255 LINE"
);
}
);
width = 1024;
}
);
unicode = E957;
},
{
glyphname = uniE958;
layers = (
{
layerId = "5789BFD8-8569-4DE2-B3C5-6A0ED3E84C22";
name = Regular;
paths = (
{
closed = 1;
nodes = (
"372 960 OFFCURVE",
"244 903 OFFCURVE",
"152 811 CURVE SMOOTH",
"59 718 OFFCURVE",
"1 589 OFFCURVE",
"1 448 CURVE SMOOTH",
"1 307 OFFCURVE",
"59 178 OFFCURVE",
"152 86 CURVE SMOOTH",
"244 -7 OFFCURVE",
"372 -64 OFFCURVE",
"513 -64 CURVE SMOOTH",
"656 -64 OFFCURVE",
"783 -7 OFFCURVE",
"876 86 CURVE SMOOTH",
"968 178 OFFCURVE",
"1025 307 OFFCURVE",
"1025 448 CURVE SMOOTH",
"1025 589 OFFCURVE",
"968 718 OFFCURVE",
"876 811 CURVE SMOOTH",
"783 903 OFFCURVE",
"656 960 OFFCURVE",
"513 960 CURVE SMOOTH"
);
},
{
closed = 1;
nodes = (
"470 128 OFFCURVE",
"438 162 OFFCURVE",
"438 203 CURVE SMOOTH",
"438 246 OFFCURVE",
"472 279 OFFCURVE",
"513 279 CURVE SMOOTH",
"556 279 OFFCURVE",
"589 244 OFFCURVE",
"589 203 CURVE SMOOTH",
"590 162 OFFCURVE",
"556 128 OFFCURVE",
"513 128 CURVE SMOOTH"
);
},
{
closed = 1;
nodes = (
"459 329 LINE",
"422 768 LINE",
"603 768 LINE",
"567 329 LINE"
);
}
);
width = 1024;
}
);
unicode = E958;
},
{
glyphname = uniE959;
layers = (
{
layerId = "5789BFD8-8569-4DE2-B3C5-6A0ED3E84C22";
name = Regular;
paths = (
{
closed = 1;
nodes = (
"371 960 OFFCURVE",
"242 903 OFFCURVE",
"150 811 CURVE SMOOTH",
"57 718 OFFCURVE",
"0 589 OFFCURVE",
"0 448 CURVE SMOOTH",
"0 307 OFFCURVE",
"57 178 OFFCURVE",
"150 86 CURVE SMOOTH",
"242 -7 OFFCURVE",
"371 -64 OFFCURVE",
"512 -64 CURVE SMOOTH",
"653 -64 OFFCURVE",
"782 -7 OFFCURVE",
"875 86 CURVE SMOOTH",
"967 178 OFFCURVE",
"1024 307 OFFCURVE",
"1024 448 CURVE SMOOTH",
"1024 589 OFFCURVE",
"967 718 OFFCURVE",
"875 811 CURVE SMOOTH",
"782 903 OFFCURVE",
"653 960 OFFCURVE",
"512 960 CURVE SMOOTH"
);
},
{
closed = 1;
nodes = (
"714 216 LINE",
"512 418 LINE",
"310 216 LINE",
"280 246 LINE",
"482 448 LINE",
"280 650 LINE",
"310 680 LINE",
"512 478 LINE",
"714 680 LINE",
"744 650 LINE",
"542 448 LINE",
"744 246 LINE"
);
}
);
width = 1024;
}
);
unicode = E959;
},
{
glyphname = uniE95A;
layers = (
{
layerId = "5789BFD8-8569-4DE2-B3C5-6A0ED3E84C22";
name = Regular;
paths = (
{
closed = 1;
nodes = (
"371 960 OFFCURVE",
"242 903 OFFCURVE",
"150 811 CURVE SMOOTH",
"57 718 OFFCURVE",
"0 589 OFFCURVE",
"0 448 CURVE SMOOTH",
"0 307 OFFCURVE",
"57 178 OFFCURVE",
"150 86 CURVE SMOOTH",
"242 -7 OFFCURVE",
"371 -64 OFFCURVE",
"512 -64 CURVE SMOOTH",
"653 -64 OFFCURVE",
"782 -7 OFFCURVE",
"875 86 CURVE SMOOTH",
"967 178 OFFCURVE",
"1024 307 OFFCURVE",
"1024 448 CURVE SMOOTH",
"1024 589 OFFCURVE",
"967 718 OFFCURVE",
"875 811 CURVE SMOOTH",
"782 903 OFFCURVE",
"653 960 OFFCURVE",
"512 960 CURVE SMOOTH"
);
},
{
closed = 1;
nodes = (
"754 256 LINE",
"704 206 LINE",
"512 398 LINE",
"320 206 LINE",
"270 256 LINE",
"462 448 LINE",
"270 640 LINE",
"320 690 LINE",
"512 498 LINE",
"704 690 LINE",
"754 640 LINE",
"562 448 LINE"
);
}
);
width = 1024;
}
);
unicode = E95A;
},
{
glyphname = uniE95B;
layers = (
{
layerId = "5789BFD8-8569-4DE2-B3C5-6A0ED3E84C22";
name = Regular;
paths = (
{
closed = 1;
nodes = (
"372 960 OFFCURVE",
"244 903 OFFCURVE",
"152 811 CURVE SMOOTH",
"59 718 OFFCURVE",
"1 589 OFFCURVE",
"1 448 CURVE SMOOTH",
"1 307 OFFCURVE",
"59 178 OFFCURVE",
"152 86 CURVE SMOOTH",
"244 -7 OFFCURVE",
"372 -64 OFFCURVE",
"513 -64 CURVE SMOOTH",
"656 -64 OFFCURVE",
"783 -7 OFFCURVE",
"876 86 CURVE SMOOTH",
"968 178 OFFCURVE",
"1025 307 OFFCURVE",
"1025 448 CURVE SMOOTH",
"1025 589 OFFCURVE",
"968 718 OFFCURVE",
"876 811 CURVE SMOOTH",
"783 903 OFFCURVE",
"656 960 OFFCURVE",
"513 960 CURVE SMOOTH"
);
},
{
closed = 1;
nodes = (
"695 196 LINE",
"513 378 LINE",
"331 196 LINE",
"260 266 LINE",
"444 448 LINE",
"262 630 LINE",
"333 700 LINE",
"513 519 LINE",
"695 701 LINE",
"767 631 LINE",
"585 448 LINE",
"767 266 LINE"
);
}
);
width = 1024;
}
);
unicode = E95B;
},
{
glyphname = uniE95C;
layers = (
{
layerId = "5789BFD8-8569-4DE2-B3C5-6A0ED3E84C22";
name = Regular;
paths = (
{
closed = 1;
nodes = (
"372 960 OFFCURVE",
"244 903 OFFCURVE",
"152 811 CURVE SMOOTH",
"59 718 OFFCURVE",
"1 589 OFFCURVE",
"1 448 CURVE SMOOTH",
"1 307 OFFCURVE",
"59 178 OFFCURVE",
"152 86 CURVE SMOOTH",
"244 -7 OFFCURVE",
"372 -64 OFFCURVE",
"513 -64 CURVE SMOOTH",
"656 -64 OFFCURVE",
"783 -7 OFFCURVE",
"876 86 CURVE SMOOTH",
"968 178 OFFCURVE",
"1025 307 OFFCURVE",
"1025 448 CURVE SMOOTH",
"1025 589 OFFCURVE",
"968 718 OFFCURVE",
"875 811 CURVE SMOOTH",
"782 903 OFFCURVE",
"654 960 OFFCURVE",
"513 960 CURVE SMOOTH"
);
},
{
closed = 1;
nodes = (
"781 282 LINE",
"680 181 LINE",
"513 347 LINE",
"346 181 LINE",
"245 282 LINE",
"412 448 LINE",
"245 614 LINE",
"346 715 LINE",
"512 549 LINE",
"678 715 LINE",
"779 614 LINE",
"613 448 LINE"
);
}
);
width = 1024;
}
);
unicode = E95C;
},
{
glyphname = uniE95D;
layers = (
{
layerId = "5789BFD8-8569-4DE2-B3C5-6A0ED3E84C22";
name = Regular;
paths = (
{
closed = 1;
nodes = (
"372 959 OFFCURVE",
"244 901 OFFCURVE",
"152 809 CURVE SMOOTH",
"59 716 OFFCURVE",
"1 588 OFFCURVE",
"1 447 CURVE SMOOTH",
"1 304 OFFCURVE",
"59 177 OFFCURVE",
"152 85 CURVE SMOOTH",
"244 -8 OFFCURVE",
"372 -65 OFFCURVE",
"513 -65 CURVE SMOOTH",
"656 -65 OFFCURVE",
"783 -8 OFFCURVE",
"876 85 CURVE SMOOTH",
"968 177 OFFCURVE",
"1025 304 OFFCURVE",
"1025 447 CURVE SMOOTH",
"1025 588 OFFCURVE",
"968 716 OFFCURVE",
"876 809 CURVE SMOOTH",
"783 901 OFFCURVE",
"656 959 OFFCURVE",
"513 959 CURVE SMOOTH"
);
},
{
closed = 1;
nodes = (
"550 788 OFFCURVE",
"582 756 OFFCURVE",
"582 715 CURVE SMOOTH",
"582 678 OFFCURVE",
"551 643 OFFCURVE",
"508 643 CURVE SMOOTH",
"469 643 OFFCURVE",
"435 676 OFFCURVE",
"435 715 CURVE SMOOTH",
"435 758 OFFCURVE",
"469 788 OFFCURVE",
"509 788 CURVE SMOOTH"
);
},
{
closed = 1;
nodes = (
"385 100 LINE",
"385 146 LINE",
"445 154 OFFCURVE",
"451 158 OFFCURVE",
"451 230 CURVE SMOOTH",
"451 434 LINE SMOOTH",
"451 502 OFFCURVE",
"443 505 OFFCURVE",
"394 513 CURVE",
"394 558 LINE",
"455 565 OFFCURVE",
"523 578 OFFCURVE",
"582 594 CURVE",
"582 230 LINE SMOOTH",
"582 159 OFFCURVE",
"588 155 OFFCURVE",
"649 146 CURVE",
"649 100 LINE"
);
}
);
width = 1024;
}
);
unicode = E95D;
},
{
glyphname = uniE95E;
layers = (
{
layerId = "5789BFD8-8569-4DE2-B3C5-6A0ED3E84C22";
name = Regular;
paths = (
{
closed = 1;
nodes = (
"114 960 LINE SMOOTH",
"51 960 OFFCURVE",
"0 909 OFFCURVE",
"0 846 CURVE SMOOTH",
"0 50 LINE SMOOTH",
"0 -13 OFFCURVE",
"51 -64 OFFCURVE",
"114 -64 CURVE SMOOTH",
"910 -64 LINE SMOOTH",
"973 -64 OFFCURVE",
"1024 -13 OFFCURVE",
"1024 50 CURVE SMOOTH",
"1024 846 LINE SMOOTH",
"1024 909 OFFCURVE",
"973 960 OFFCURVE",
"910 960 CURVE SMOOTH"
);
},
{
closed = 1;
nodes = (
"826 398 LINE",
"569 398 LINE",
"569 141 LINE",
"469 141 LINE",
"469 398 LINE",
"212 398 LINE",
"212 498 LINE",
"469 498 LINE",
"469 755 LINE",
"569 755 LINE",
"569 498 LINE",
"826 498 LINE"
);
}
);
width = 1024;
}
);
unicode = E95E;
},
{
glyphname = uniE95F;
layers = (
{
layerId = "5789BFD8-8569-4DE2-B3C5-6A0ED3E84C22";
name = Regular;
paths = (
{
closed = 1;
nodes = (
"114 960 LINE SMOOTH",
"51 960 OFFCURVE",
"0 909 OFFCURVE",
"0 846 CURVE SMOOTH",
"0 50 LINE SMOOTH",
"0 -13 OFFCURVE",
"51 -64 OFFCURVE",
"114 -64 CURVE SMOOTH",
"910 -64 LINE SMOOTH",
"973 -64 OFFCURVE",
"1024 -13 OFFCURVE",
"1024 50 CURVE SMOOTH",
"1024 846 LINE SMOOTH",
"1024 909 OFFCURVE",
"973 960 OFFCURVE",
"910 960 CURVE SMOOTH"
);
},
{
closed = 1;
nodes = (
"826 398 LINE",
"212 398 LINE",
"212 498 LINE",
"826 498 LINE"
);
}
);
width = 1024;
}
);
unicode = E95F;
},
{
glyphname = uniE960;
layers = (
{
layerId = "5789BFD8-8569-4DE2-B3C5-6A0ED3E84C22";
name = Regular;
paths = (
{
closed = 1;
nodes = (
"114 960 LINE SMOOTH",
"51 960 OFFCURVE",
"0 909 OFFCURVE",
"0 846 CURVE SMOOTH",
"0 50 LINE SMOOTH",
"0 -13 OFFCURVE",
"51 -64 OFFCURVE",
"114 -64 CURVE SMOOTH",
"910 -64 LINE SMOOTH",
"973 -64 OFFCURVE",
"1024 -13 OFFCURVE",
"1024 50 CURVE SMOOTH",
"1024 846 LINE SMOOTH",
"1024 909 OFFCURVE",
"973 960 OFFCURVE",
"910 960 CURVE SMOOTH"
);
},
{
closed = 1;
nodes = (
"771 266 LINE",
"701 196 LINE",
"519 378 LINE",
"337 196 LINE",
"267 266 LINE",
"449 448 LINE",
"267 630 LINE",
"337 700 LINE",
"519 518 LINE",
"701 700 LINE",
"771 630 LINE",
"589 448 LINE"
);
}
);
width = 1024;
}
);
unicode = E960;
},
{
glyphname = uniE961;
layers = (
{
layerId = "5789BFD8-8569-4DE2-B3C5-6A0ED3E84C22";
name = Regular;
paths = (
{
closed = 1;
nodes = (
"1025 469 LINE",
"1025 427 LINE",
"1 427 LINE",
"1 469 LINE"
);
},
{
closed = 1;
nodes = (
"1025 142 LINE",
"1025 185 LINE",
"1 185 LINE",
"1 142 LINE"
);
},
{
closed = 1;
nodes = (
"1025 711 LINE",
"1025 754 LINE",
"1 754 LINE",
"1 711 LINE"
);
}
);
width = 1024;
}
);
unicode = E961;
},
{
glyphname = uniE962;
layers = (
{
layerId = "5789BFD8-8569-4DE2-B3C5-6A0ED3E84C22";
name = Regular;
paths = (
{
closed = 1;
nodes = (
"1024 484 LINE",
"1024 412 LINE",
"0 412 LINE",
"0 484 LINE"
);
},
{
closed = 1;
nodes = (
"0 128 LINE",
"1024 128 LINE",
"1024 199 LINE",
"0 199 LINE"
);
},
{
closed = 1;
nodes = (
"0 697 LINE",
"1024 697 LINE",
"1024 768 LINE",
"0 768 LINE"
);
}
);
width = 1024;
}
);
unicode = E962;
},
{
glyphname = uniE963;
layers = (
{
layerId = "5789BFD8-8569-4DE2-B3C5-6A0ED3E84C22";
name = Regular;
paths = (
{
closed = 1;
nodes = (
"1024 498 LINE",
"1024 398 LINE",
"0 398 LINE",
"0 498 LINE"
);
},
{
closed = 1;
nodes = (
"0 114 LINE",
"1024 114 LINE",
"1024 213 LINE",
"0 213 LINE"
);
},
{
closed = 1;
nodes = (
"0 683 LINE",
"1024 683 LINE",
"1024 782 LINE",
"0 782 LINE"
);
}
);
width = 1024;
}
);
unicode = E963;
},
{
glyphname = uniE964;
layers = (
{
layerId = "5789BFD8-8569-4DE2-B3C5-6A0ED3E84C22";
name = Regular;
paths = (
{
closed = 1;
nodes = (
"0 519 LINE",
"1024 519 LINE",
"1024 377 LINE",
"0 377 LINE"
);
},
{
closed = 1;
nodes = (
"0 92 LINE",
"1024 92 LINE",
"1024 235 LINE",
"0 235 LINE"
);
},
{
closed = 1;
nodes = (
"0 661 LINE",
"1024 661 LINE",
"1024 804 LINE",
"0 804 LINE"
);
}
);
width = 1024;
}
);
unicode = E964;
},
{
glyphname = uniE965;
layers = (
{
layerId = "5789BFD8-8569-4DE2-B3C5-6A0ED3E84C22";
name = Regular;
paths = (
{
closed = 1;
nodes = (
"612 802 LINE",
"944 469 LINE",
"1 469 LINE",
"1 427 LINE",
"944 427 LINE",
"612 94 LINE",
"641 64 LINE",
"1025 448 LINE",
"641 832 LINE"
);
}
);
width = 1024;
}
);
unicode = E965;
},
{
glyphname = uniE966;
layers = (
{
layerId = "5789BFD8-8569-4DE2-B3C5-6A0ED3E84C22";
name = Regular;
paths = (
{
closed = 1;
nodes = (
"573 791 LINE",
"882 484 LINE",
"0 484 LINE",
"0 412 LINE",
"882 412 LINE",
"573 105 LINE",
"624 54 LINE",
"1017 448 LINE",
"624 842 LINE"
);
}
);
width = 1024;
}
);
unicode = E966;
},
{
glyphname = uniE967;
layers = (
{
layerId = "5789BFD8-8569-4DE2-B3C5-6A0ED3E84C22";
name = Regular;
paths = (
{
closed = 1;
nodes = (
"549 781 LINE",
"832 498 LINE",
"0 498 LINE",
"0 398 LINE",
"832 398 LINE",
"549 115 LINE",
"620 44 LINE",
"1024 448 LINE",
"620 852 LINE"
);
}
);
width = 1024;
}
);
unicode = E967;
},
{
glyphname = uniE968;
layers = (
{
layerId = "5789BFD8-8569-4DE2-B3C5-6A0ED3E84C22";
name = Regular;
paths = (
{
closed = 1;
nodes = (
"489 767 LINE",
"737 519 LINE",
"0 519 LINE",
"0 377 LINE",
"737 377 LINE",
"489 129 LINE",
"590 30 LINE",
"1008 448 LINE",
"590 866 LINE"
);
}
);
width = 1024;
}
);
unicode = E968;
},
{
glyphname = uniE969;
layers = (
{
layerId = "5789BFD8-8569-4DE2-B3C5-6A0ED3E84C22";
name = Regular;
paths = (
{
closed = 1;
nodes = (
"535 767 LINE",
"434 866 LINE",
"16 448 LINE",
"434 30 LINE",
"535 129 LINE",
"287 377 LINE",
"1024 377 LINE",
"1024 519 LINE",
"287 519 LINE"
);
}
);
width = 1024;
}
);
unicode = E969;
},
{
glyphname = uniE96A;
layers = (
{
layerId = "5789BFD8-8569-4DE2-B3C5-6A0ED3E84C22";
name = Regular;
paths = (
{
closed = 1;
nodes = (
"1024 498 LINE",
"192 498 LINE",
"475 781 LINE",
"404 852 LINE",
"0 448 LINE",
"404 44 LINE",
"475 115 LINE",
"192 398 LINE",
"1024 398 LINE"
);
}
);
width = 1024;
}
);
unicode = E96A;
},
{
glyphname = uniE96B;
layers = (
{
layerId = "5789BFD8-8569-4DE2-B3C5-6A0ED3E84C22";
name = Regular;
paths = (
{
closed = 1;
nodes = (
"451 789 LINE",
"400 841 LINE",
"7 447 LINE",
"400 53 LINE",
"451 102 LINE",
"142 411 LINE",
"1024 411 LINE",
"1024 482 LINE",
"142 482 LINE"
);
}
);
width = 1024;
}
);
unicode = E96B;
},
{
glyphname = uniE96C;
layers = (
{
layerId = "5789BFD8-8569-4DE2-B3C5-6A0ED3E84C22";
name = Regular;
paths = (
{
closed = 1;
nodes = (
"412 799 LINE",
"383 831 LINE",
"-1 447 LINE",
"383 63 LINE",
"412 92 LINE",
"80 425 LINE",
"1023 425 LINE",
"1023 468 LINE",
"80 468 LINE"
);
}
);
width = 1024;
}
);
unicode = E96C;
},
{
glyphname = uniE96D;
layers = (
{
layerId = "5789BFD8-8569-4DE2-B3C5-6A0ED3E84C22";
name = Regular;
paths = (
{
closed = 1;
nodes = (
"612 799 LINE",
"944 468 LINE",
"215 468 LINE",
"215 425 LINE",
"944 425 LINE",
"612 92 LINE",
"641 63 LINE",
"1025 447 LINE",
"641 831 LINE"
);
}
);
width = 1024;
}
);
unicode = E96D;
},
{
glyphname = uniE96E;
layers = (
{
layerId = "5789BFD8-8569-4DE2-B3C5-6A0ED3E84C22";
name = Regular;
paths = (
{
closed = 1;
nodes = (
"567 789 LINE",
"876 482 LINE",
"208 482 LINE",
"208 411 LINE",
"876 411 LINE",
"567 102 LINE",
"619 53 LINE",
"1013 447 LINE",
"619 841 LINE"
);
}
);
width = 1024;
}
);
unicode = E96E;
},
{
glyphname = uniE96F;
layers = (
{
layerId = "5789BFD8-8569-4DE2-B3C5-6A0ED3E84C22";
name = Regular;
paths = (
{
closed = 1;
nodes = (
"549 781 LINE",
"833 498 LINE",
"213 498 LINE",
"213 398 LINE",
"833 398 LINE",
"549 115 LINE",
"620 44 LINE",
"1023 448 LINE",
"620 852 LINE"
);
}
);
width = 1024;
}
);
unicode = E96F;
},
{
glyphname = uniE970;
layers = (
{
layerId = "5789BFD8-8569-4DE2-B3C5-6A0ED3E84C22";
name = Regular;
paths = (
{
closed = 1;
nodes = (
"489 765 LINE",
"737 518 LINE",
"213 518 LINE",
"213 375 LINE",
"737 375 LINE",
"489 128 LINE",
"590 27 LINE",
"1008 447 LINE",
"590 865 LINE"
);
}
);
width = 1024;
}
);
unicode = E970;
},
{
glyphname = uniE971;
layers = (
{
layerId = "5789BFD8-8569-4DE2-B3C5-6A0ED3E84C22";
name = Regular;
paths = (
{
closed = 1;
nodes = (
"535 767 LINE",
"434 866 LINE",
"16 448 LINE",
"434 30 LINE",
"535 129 LINE",
"287 377 LINE",
"811 377 LINE",
"811 519 LINE",
"287 519 LINE"
);
}
);
width = 1024;
}
);
unicode = E971;
},
{
glyphname = uniE972;
layers = (
{
layerId = "5789BFD8-8569-4DE2-B3C5-6A0ED3E84C22";
name = Regular;
paths = (
{
closed = 1;
nodes = (
"475 781 LINE",
"404 852 LINE",
"0 448 LINE",
"404 44 LINE",
"475 115 LINE",
"192 398 LINE",
"811 398 LINE",
"811 498 LINE",
"192 498 LINE"
);
}
);
width = 1024;
}
);
unicode = E972;
},
{
glyphname = uniE973;
layers = (
{
layerId = "5789BFD8-8569-4DE2-B3C5-6A0ED3E84C22";
name = Regular;
paths = (
{
closed = 1;
nodes = (
"458 791 LINE",
"407 842 LINE",
"14 448 LINE",
"407 54 LINE",
"458 105 LINE",
"149 412 LINE",
"818 412 LINE",
"818 484 LINE",
"149 484 LINE"
);
}
);
width = 1024;
}
);
unicode = E973;
},
{
glyphname = uniE974;
layers = (
{
layerId = "5789BFD8-8569-4DE2-B3C5-6A0ED3E84C22";
name = Regular;
paths = (
{
closed = 1;
nodes = (
"809 469 LINE",
"80 469 LINE",
"412 802 LINE",
"383 832 LINE",
"-1 448 LINE",
"383 64 LINE",
"412 94 LINE",
"80 427 LINE",
"809 427 LINE"
);
}
);
width = 1024;
}
);
unicode = E974;
},
{
glyphname = uniE975;
layers = (
{
layerId = "5789BFD8-8569-4DE2-B3C5-6A0ED3E84C22";
name = Regular;
paths = (
{
closed = 1;
nodes = (
"512 266 LINE",
"158 620 LINE",
"128 589 LINE",
"512 206 LINE",
"896 589 LINE",
"866 620 LINE"
);
}
);
width = 1024;
}
);
unicode = E975;
},
{
glyphname = uniE976;
layers = (
{
layerId = "5789BFD8-8569-4DE2-B3C5-6A0ED3E84C22";
name = Regular;
paths = (
{
closed = 1;
nodes = (
"512 286 LINE",
"169 630 LINE",
"118 579 LINE",
"512 186 LINE",
"906 579 LINE",
"855 630 LINE"
);
}
);
width = 1024;
}
);
unicode = E976;
},
{
glyphname = uniE977;
layers = (
{
layerId = "5789BFD8-8569-4DE2-B3C5-6A0ED3E84C22";
name = Regular;
paths = (
{
closed = 1;
nodes = (
"512 306 LINE",
"179 640 LINE",
"108 569 LINE",
"512 165 LINE",
"916 569 LINE",
"845 640 LINE"
);
}
);
width = 1024;
}
);
unicode = E977;
},
{
glyphname = uniE978;
layers = (
{
layerId = "5789BFD8-8569-4DE2-B3C5-6A0ED3E84C22";
name = Regular;
paths = (
{
closed = 1;
nodes = (
"512 337 LINE",
"193 654 LINE",
"94 555 LINE",
"512 135 LINE",
"930 555 LINE",
"831 654 LINE"
);
}
);
width = 1024;
}
);
unicode = E978;
},
{
glyphname = uniE979;
layers = (
{
layerId = "5789BFD8-8569-4DE2-B3C5-6A0ED3E84C22";
name = Regular;
paths = (
{
closed = 1;
nodes = (
"94 341 LINE",
"193 242 LINE",
"512 559 LINE",
"831 242 LINE",
"930 341 LINE",
"512 761 LINE"
);
}
);
width = 1024;
}
);
unicode = E979;
},
{
glyphname = uniE97A;
layers = (
{
layerId = "5789BFD8-8569-4DE2-B3C5-6A0ED3E84C22";
name = Regular;
paths = (
{
closed = 1;
nodes = (
"108 327 LINE",
"179 256 LINE",
"512 590 LINE",
"845 256 LINE",
"916 327 LINE",
"512 731 LINE"
);
}
);
width = 1024;
}
);
unicode = E97A;
},
{
glyphname = uniE97B;
layers = (
{
layerId = "5789BFD8-8569-4DE2-B3C5-6A0ED3E84C22";
name = Regular;
paths = (
{
closed = 1;
nodes = (
"118 317 LINE",
"169 266 LINE",
"512 610 LINE",
"855 266 LINE",
"906 317 LINE",
"512 710 LINE"
);
}
);
width = 1024;
}
);
unicode = E97B;
},
{
glyphname = uniE97C;
layers = (
{
layerId = "5789BFD8-8569-4DE2-B3C5-6A0ED3E84C22";
name = Regular;
paths = (
{
closed = 1;
nodes = (
"128 307 LINE",
"158 276 LINE",
"512 630 LINE",
"866 276 LINE",
"896 307 LINE",
"512 690 LINE"
);
}
);
width = 1024;
}
);
unicode = E97C;
},
{
glyphname = uniE97D;
layers = (
{
layerId = "5789BFD8-8569-4DE2-B3C5-6A0ED3E84C22";
name = Regular;
paths = (
{
closed = 1;
nodes = (
"539 755 LINE",
"496 755 LINE",
"496 469 LINE",
"210 469 LINE",
"210 427 LINE",
"496 427 LINE",
"496 141 LINE",
"539 141 LINE",
"539 427 LINE",
"825 427 LINE",
"825 469 LINE",
"539 469 LINE"
);
}
);
width = 1024;
}
);
unicode = E97D;
},
{
glyphname = uniE97E;
layers = (
{
layerId = "5789BFD8-8569-4DE2-B3C5-6A0ED3E84C22";
name = Regular;
paths = (
{
closed = 1;
nodes = (
"814 484 LINE",
"542 484 LINE",
"542 755 LINE",
"471 755 LINE",
"471 484 LINE",
"199 484 LINE",
"199 412 LINE",
"471 412 LINE",
"471 141 LINE",
"542 141 LINE",
"542 412 LINE",
"814 412 LINE"
);
}
);
width = 1024;
}
);
unicode = E97E;
},
{
glyphname = uniE97F;
layers = (
{
layerId = "5789BFD8-8569-4DE2-B3C5-6A0ED3E84C22";
name = Regular;
paths = (
{
closed = 1;
nodes = (
"567 755 LINE",
"468 755 LINE",
"468 498 LINE",
"210 498 LINE",
"210 398 LINE",
"468 398 LINE",
"468 141 LINE",
"567 141 LINE",
"567 398 LINE",
"825 398 LINE",
"825 498 LINE",
"567 498 LINE"
);
}
);
width = 1024;
}
);
unicode = E97F;
},
{
glyphname = uniE980;
layers = (
{
layerId = "5789BFD8-8569-4DE2-B3C5-6A0ED3E84C22";
name = Regular;
paths = (
{
closed = 1;
nodes = (
"589 755 LINE",
"447 755 LINE",
"447 519 LINE",
"210 519 LINE",
"210 377 LINE",
"447 377 LINE",
"447 141 LINE",
"589 141 LINE",
"589 377 LINE",
"825 377 LINE",
"825 519 LINE",
"589 519 LINE"
);
}
);
width = 1024;
}
);
unicode = E980;
},
{
glyphname = uniE981;
layers = (
{
layerId = "5789BFD8-8569-4DE2-B3C5-6A0ED3E84C22";
name = Regular;
paths = (
{
closed = 1;
nodes = (
"819 469 LINE",
"819 427 LINE",
"205 427 LINE",
"205 469 LINE"
);
}
);
width = 1024;
}
);
unicode = E981;
},
{
glyphname = uniE982;
layers = (
{
layerId = "5789BFD8-8569-4DE2-B3C5-6A0ED3E84C22";
name = Regular;
paths = (
{
closed = 1;
nodes = (
"814 484 LINE",
"814 412 LINE",
"199 412 LINE",
"199 484 LINE"
);
}
);
width = 1024;
}
);
unicode = E982;
},
{
glyphname = uniE983;
layers = (
{
layerId = "5789BFD8-8569-4DE2-B3C5-6A0ED3E84C22";
name = Regular;
paths = (
{
closed = 1;
nodes = (
"825 498 LINE",
"825 398 LINE",
"210 398 LINE",
"210 498 LINE"
);
}
);
width = 1024;
}
);
unicode = E983;
},
{
glyphname = uniE984;
layers = (
{
layerId = "5789BFD8-8569-4DE2-B3C5-6A0ED3E84C22";
name = Regular;
paths = (
{
closed = 1;
nodes = (
"818 519 LINE",
"818 377 LINE",
"203 377 LINE",
"203 519 LINE"
);
}
);
width = 1024;
}
);
unicode = E984;
},
{
glyphname = uniE985;
layers = (
{
layerId = "5789BFD8-8569-4DE2-B3C5-6A0ED3E84C22";
name = Regular;
paths = (
{
closed = 1;
nodes = (
"533 960 LINE",
"491 960 LINE",
"491 469 LINE",
"0 469 LINE",
"0 427 LINE",
"491 427 LINE",
"491 -64 LINE",
"533 -64 LINE",
"533 427 LINE",
"1024 427 LINE",
"1024 469 LINE",
"533 469 LINE"
);
}
);
width = 1024;
}
);
unicode = E985;
},
{
glyphname = uniE986;
layers = (
{
layerId = "5789BFD8-8569-4DE2-B3C5-6A0ED3E84C22";
name = Regular;
paths = (
{
closed = 1;
nodes = (
"553 960 LINE",
"482 960 LINE",
"482 484 LINE",
"6 484 LINE",
"6 412 LINE",
"482 412 LINE",
"482 -64 LINE",
"553 -64 LINE",
"553 412 LINE",
"1030 412 LINE",
"1030 484 LINE",
"553 484 LINE"
);
}
);
width = 1024;
}
);
unicode = E986;
},
{
glyphname = uniE987;
layers = (
{
layerId = "5789BFD8-8569-4DE2-B3C5-6A0ED3E84C22";
name = Regular;
paths = (
{
closed = 1;
nodes = (
"569 957 LINE",
"469 957 LINE",
"469 494 LINE",
"7 494 LINE",
"7 394 LINE",
"469 394 LINE",
"469 -67 LINE",
"569 -67 LINE",
"569 394 LINE",
"1031 394 LINE",
"1031 494 LINE",
"569 494 LINE"
);
}
);
width = 1024;
}
);
unicode = E987;
},
{
glyphname = uniE988;
layers = (
{
layerId = "5789BFD8-8569-4DE2-B3C5-6A0ED3E84C22";
name = Regular;
paths = (
{
closed = 1;
nodes = (
"1030 521 LINE",
"589 521 LINE",
"589 961 LINE",
"447 961 LINE",
"447 521 LINE",
"6 521 LINE",
"6 378 LINE",
"447 378 LINE",
"447 -63 LINE",
"589 -63 LINE",
"589 378 LINE",
"1030 378 LINE"
);
}
);
width = 1024;
}
);
unicode = E988;
},
{
glyphname = uniE989;
layers = (
{
layerId = "5789BFD8-8569-4DE2-B3C5-6A0ED3E84C22";
name = Regular;
paths = (
{
closed = 1;
nodes = (
"865 826 LINE",
"518 479 LINE",
"171 826 LINE",
"141 796 LINE",
"488 449 LINE",
"141 102 LINE",
"171 73 LINE",
"518 420 LINE",
"865 73 LINE",
"895 102 LINE",
"548 449 LINE",
"895 796 LINE"
);
}
);
width = 1024;
}
);
unicode = E989;
},
{
glyphname = uniE98A;
layers = (
{
layerId = "5789BFD8-8569-4DE2-B3C5-6A0ED3E84C22";
name = Regular;
paths = (
{
closed = 1;
nodes = (
"853 836 LINE",
"516 501 LINE",
"179 836 LINE",
"129 786 LINE",
"466 449 LINE",
"129 112 LINE",
"179 63 LINE",
"516 400 LINE",
"853 63 LINE",
"903 112 LINE",
"567 449 LINE",
"903 786 LINE"
);
}
);
width = 1024;
}
);
unicode = E98A;
},
{
glyphname = uniE98B;
layers = (
{
layerId = "5789BFD8-8569-4DE2-B3C5-6A0ED3E84C22";
name = Regular;
paths = (
{
closed = 1;
nodes = (
"845 848 LINE",
"518 521 LINE",
"191 848 LINE",
"119 777 LINE",
"447 449 LINE",
"119 122 LINE",
"191 53 LINE",
"518 380 LINE",
"845 53 LINE",
"914 122 LINE",
"587 449 LINE",
"914 777 LINE"
);
}
);
width = 1024;
}
);
unicode = E98B;
},
{
glyphname = uniE98C;
layers = (
{
layerId = "5789BFD8-8569-4DE2-B3C5-6A0ED3E84C22";
name = Regular;
paths = (
{
closed = 1;
nodes = (
"930 761 LINE",
"829 862 LINE",
"518 550 LINE",
"206 862 LINE",
"105 761 LINE",
"417 449 LINE",
"105 138 LINE",
"206 37 LINE",
"518 350 LINE",
"829 37 LINE",
"930 138 LINE",
"617 449 LINE"
);
}
);
width = 1024;
}
);
unicode = E98C;
},
{
glyphname = uniE98D;
layers = (
{
layerId = "5789BFD8-8569-4DE2-B3C5-6A0ED3E84C22";
name = Regular;
paths = (
{
closed = 1;
nodes = (
"773 911 OFFCURVE",
"642 961 OFFCURVE",
"511 961 CURVE SMOOTH",
"379 961 OFFCURVE",
"249 911 OFFCURVE",
"149 811 CURVE SMOOTH",
"49 710 OFFCURVE",
"-1 579 OFFCURVE",
"-1 448 CURVE SMOOTH",
"-1 317 OFFCURVE",
"49 186 OFFCURVE",
"149 87 CURVE SMOOTH",
"250 -13 OFFCURVE",
"381 -64 OFFCURVE",
"512 -64 CURVE SMOOTH",
"643 -64 OFFCURVE",
"774 -13 OFFCURVE",
"873 87 CURVE SMOOTH",
"973 186 OFFCURVE",
"1024 317 OFFCURVE",
"1024 448 CURVE SMOOTH",
"1024 579 OFFCURVE",
"973 710 OFFCURVE",
"873 811 CURVE SMOOTH"
);
},
{
closed = 1;
nodes = (
"533 427 LINE",
"533 141 LINE",
"491 141 LINE",
"491 427 LINE",
"205 427 LINE",
"205 469 LINE",
"491 469 LINE",
"491 755 LINE",
"533 755 LINE",
"533 469 LINE",
"819 469 LINE",
"819 427 LINE"
);
}
);
width = 1024;
}
);
unicode = E98D;
},
{
glyphname = uniE98E;
layers = (
{
layerId = "5789BFD8-8569-4DE2-B3C5-6A0ED3E84C22";
name = Regular;
paths = (
{
closed = 1;
nodes = (
"772 909 OFFCURVE",
"641 960 OFFCURVE",
"510 960 CURVE SMOOTH",
"378 960 OFFCURVE",
"248 909 OFFCURVE",
"148 809 CURVE SMOOTH",
"48 709 OFFCURVE",
"-2 578 OFFCURVE",
"-2 447 CURVE SMOOTH",
"-2 315 OFFCURVE",
"48 185 OFFCURVE",
"148 85 CURVE SMOOTH",
"248 -15 OFFCURVE",
"379 -65 OFFCURVE",
"511 -65 CURVE SMOOTH",
"642 -65 OFFCURVE",
"772 -15 OFFCURVE",
"872 85 CURVE SMOOTH",
"972 186 OFFCURVE",
"1022 317 OFFCURVE",
"1022 448 CURVE SMOOTH",
"1022 579 OFFCURVE",
"972 710 OFFCURVE",
"872 809 CURVE SMOOTH"
);
},
{
closed = 1;
nodes = (
"816 412 LINE",
"545 412 LINE",
"545 141 LINE",
"474 141 LINE",
"474 412 LINE",
"202 412 LINE",
"202 484 LINE",
"474 484 LINE",
"474 755 LINE",
"545 755 LINE",
"545 484 LINE",
"816 484 LINE"
);
}
);
width = 1024;
}
);
unicode = E98E;
},
{
glyphname = uniE98F;
layers = (
{
layerId = "5789BFD8-8569-4DE2-B3C5-6A0ED3E84C22";
name = Regular;
paths = (
{
closed = 1;
nodes = (
"776 911 OFFCURVE",
"645 961 OFFCURVE",
"514 961 CURVE SMOOTH",
"382 961 OFFCURVE",
"252 911 OFFCURVE",
"152 811 CURVE SMOOTH",
"52 710 OFFCURVE",
"2 579 OFFCURVE",
"2 448 CURVE SMOOTH",
"2 317 OFFCURVE",
"52 186 OFFCURVE",
"152 87 CURVE SMOOTH",
"252 -13 OFFCURVE",
"383 -64 OFFCURVE",
"515 -64 CURVE SMOOTH",
"646 -64 OFFCURVE",
"776 -13 OFFCURVE",
"876 87 CURVE SMOOTH",
"976 186 OFFCURVE",
"1025 317 OFFCURVE",
"1025 448 CURVE SMOOTH",
"1025 579 OFFCURVE",
"976 710 OFFCURVE",
"876 811 CURVE SMOOTH"
);
},
{
closed = 1;
nodes = (
"821 398 LINE",
"563 398 LINE",
"563 141 LINE",
"464 141 LINE",
"464 398 LINE",
"206 398 LINE",
"206 498 LINE",
"464 498 LINE",
"464 755 LINE",
"563 755 LINE",
"563 498 LINE",
"821 498 LINE"
);
}
);
width = 1024;
}
);
unicode = E98F;
},
{
glyphname = uniE990;
layers = (
{
layerId = "5789BFD8-8569-4DE2-B3C5-6A0ED3E84C22";
name = Regular;
paths = (
{
closed = 1;
nodes = (
"779 909 OFFCURVE",
"649 960 OFFCURVE",
"518 960 CURVE SMOOTH",
"386 960 OFFCURVE",
"255 909 OFFCURVE",
"155 809 CURVE SMOOTH",
"55 709 OFFCURVE",
"5 578 OFFCURVE",
"5 447 CURVE SMOOTH",
"5 315 OFFCURVE",
"55 185 OFFCURVE",
"155 85 CURVE SMOOTH",
"255 -15 OFFCURVE",
"386 -65 OFFCURVE",
"518 -65 CURVE SMOOTH",
"649 -65 OFFCURVE",
"779 -15 OFFCURVE",
"879 85 CURVE SMOOTH",
"979 186 OFFCURVE",
"1029 317 OFFCURVE",
"1029 448 CURVE SMOOTH",
"1029 579 OFFCURVE",
"979 710 OFFCURVE",
"879 809 CURVE SMOOTH"
);
},
{
closed = 1;
nodes = (
"589 377 LINE",
"589 141 LINE",
"447 141 LINE",
"447 377 LINE",
"210 377 LINE",
"210 519 LINE",
"447 519 LINE",
"447 755 LINE",
"589 755 LINE",
"589 519 LINE",
"825 519 LINE",
"825 377 LINE"
);
}
);
width = 1024;
}
);
unicode = E990;
},
{
glyphname = uniE991;
layers = (
{
layerId = "5789BFD8-8569-4DE2-B3C5-6A0ED3E84C22";
name = Regular;
paths = (
{
closed = 1;
nodes = (
"776 909 OFFCURVE",
"645 960 OFFCURVE",
"514 960 CURVE SMOOTH",
"382 960 OFFCURVE",
"252 909 OFFCURVE",
"152 809 CURVE SMOOTH",
"52 709 OFFCURVE",
"2 578 OFFCURVE",
"2 447 CURVE SMOOTH",
"2 315 OFFCURVE",
"52 185 OFFCURVE",
"152 85 CURVE SMOOTH",
"252 -15 OFFCURVE",
"383 -65 OFFCURVE",
"515 -65 CURVE SMOOTH",
"646 -65 OFFCURVE",
"776 -15 OFFCURVE",
"876 85 CURVE SMOOTH",
"976 185 OFFCURVE",
"1026 315 OFFCURVE",
"1026 447 CURVE SMOOTH",
"1026 578 OFFCURVE",
"976 709 OFFCURVE",
"876 809 CURVE SMOOTH"
);
},
{
closed = 1;
nodes = (
"822 425 LINE",
"208 425 LINE",
"208 468 LINE",
"822 468 LINE"
);
}
);
width = 1024;
}
);
unicode = E991;
},
{
glyphname = uniE992;
layers = (
{
layerId = "5789BFD8-8569-4DE2-B3C5-6A0ED3E84C22";
name = Regular;
paths = (
{
closed = 1;
nodes = (
"776 908 OFFCURVE",
"645 958 OFFCURVE",
"514 958 CURVE SMOOTH",
"382 958 OFFCURVE",
"252 908 OFFCURVE",
"152 808 CURVE SMOOTH",
"53 708 OFFCURVE",
"2 577 OFFCURVE",
"2 446 CURVE SMOOTH",
"2 314 OFFCURVE",
"52 184 OFFCURVE",
"152 84 CURVE SMOOTH",
"252 -16 OFFCURVE",
"383 -66 OFFCURVE",
"515 -66 CURVE SMOOTH",
"646 -66 OFFCURVE",
"776 -16 OFFCURVE",
"876 84 CURVE SMOOTH",
"976 184 OFFCURVE",
"1025 315 OFFCURVE",
"1025 446 CURVE SMOOTH",
"1025 577 OFFCURVE",
"976 708 OFFCURVE",
"876 808 CURVE SMOOTH"
);
},
{
closed = 1;
nodes = (
"821 411 LINE",
"206 411 LINE",
"206 482 LINE",
"821 482 LINE"
);
}
);
width = 1024;
}
);
unicode = E992;
},
{
glyphname = uniE993;
layers = (
{
layerId = "5789BFD8-8569-4DE2-B3C5-6A0ED3E84C22";
name = Regular;
paths = (
{
closed = 1;
nodes = (
"777 909 OFFCURVE",
"646 960 OFFCURVE",
"515 960 CURVE SMOOTH",
"384 960 OFFCURVE",
"253 909 OFFCURVE",
"154 809 CURVE SMOOTH",
"53 709 OFFCURVE",
"3 578 OFFCURVE",
"3 447 CURVE SMOOTH",
"3 315 OFFCURVE",
"53 185 OFFCURVE",
"154 85 CURVE SMOOTH",
"254 -15 OFFCURVE",
"385 -65 OFFCURVE",
"516 -65 CURVE SMOOTH",
"647 -65 OFFCURVE",
"778 -15 OFFCURVE",
"878 85 CURVE SMOOTH",
"978 185 OFFCURVE",
"1028 315 OFFCURVE",
"1028 447 CURVE SMOOTH",
"1028 578 OFFCURVE",
"978 709 OFFCURVE",
"878 809 CURVE SMOOTH"
);
},
{
closed = 1;
nodes = (
"823 397 LINE",
"209 397 LINE",
"209 496 LINE",
"823 496 LINE"
);
}
);
width = 1024;
}
);
unicode = E993;
},
{
glyphname = uniE994;
layers = (
{
layerId = "5789BFD8-8569-4DE2-B3C5-6A0ED3E84C22";
name = Regular;
paths = (
{
closed = 1;
nodes = (
"776 909 OFFCURVE",
"645 960 OFFCURVE",
"514 960 CURVE SMOOTH",
"382 960 OFFCURVE",
"252 909 OFFCURVE",
"152 809 CURVE SMOOTH",
"52 709 OFFCURVE",
"2 578 OFFCURVE",
"2 447 CURVE SMOOTH",
"2 315 OFFCURVE",
"52 185 OFFCURVE",
"152 85 CURVE SMOOTH",
"252 -15 OFFCURVE",
"383 -65 OFFCURVE",
"515 -65 CURVE SMOOTH",
"646 -65 OFFCURVE",
"776 -15 OFFCURVE",
"876 85 CURVE SMOOTH",
"976 185 OFFCURVE",
"1026 315 OFFCURVE",
"1026 447 CURVE SMOOTH",
"1026 578 OFFCURVE",
"976 709 OFFCURVE",
"876 809 CURVE SMOOTH"
);
},
{
closed = 1;
nodes = (
"822 375 LINE",
"208 375 LINE",
"208 518 LINE",
"822 518 LINE"
);
}
);
width = 1024;
}
);
unicode = E994;
},
{
glyphname = uniE995;
layers = (
{
layerId = "5789BFD8-8569-4DE2-B3C5-6A0ED3E84C22";
name = Regular;
paths = (
{
closed = 1;
nodes = (
"896 -64 LINE",
"154 -64 LINE",
"154 745 LINE",
"367 745 LINE",
"367 960 LINE",
"896 960 LINE"
);
},
{
closed = 1;
nodes = (
"302 960 LINE",
"154 812 LINE",
"302 812 LINE"
);
}
);
width = 1024;
}
);
unicode = E995;
},
{
glyphname = uniE996;
layers = (
{
layerId = "5789BFD8-8569-4DE2-B3C5-6A0ED3E84C22";
name = Regular;
paths = (
{
closed = 1;
nodes = (
"4 604 LINE",
"218 604 LINE",
"218 819 LINE",
"1027 819 LINE",
"1027 77 LINE",
"4 77 LINE"
);
},
{
closed = 1;
nodes = (
"154 670 LINE",
"154 819 LINE",
"6 670 LINE"
);
}
);
width = 1024;
}
);
unicode = E996;
},
{
glyphname = uniE997;
layers = (
{
layerId = "5789BFD8-8569-4DE2-B3C5-6A0ED3E84C22";
name = Regular;
paths = (
{
closed = 1;
nodes = (
"228 294 LINE",
"228 796 LINE",
"393 960 LINE",
"795 960 LINE",
"795 294 LINE",
"730 294 LINE",
"730 895 LINE",
"458 895 LINE",
"458 731 LINE",
"294 731 LINE",
"294 294 LINE",
"259 294 LINE"
);
},
{
closed = 1;
nodes = (
"575 229 LINE",
"575 509 LINE",
"448 509 LINE",
"448 230 LINE",
"259 230 LINE",
"512 -63 LINE",
"765 229 LINE"
);
}
);
width = 1024;
}
);
unicode = E997;
},
{
glyphname = uniE998;
layers = (
{
layerId = "5789BFD8-8569-4DE2-B3C5-6A0ED3E84C22";
name = Regular;
paths = (
{
closed = 1;
nodes = (
"235 252 LINE",
"235 801 LINE",
"395 960 LINE",
"788 960 LINE",
"788 250 LINE",
"725 324 LINE",
"725 897 LINE",
"459 897 LINE",
"459 738 LINE",
"299 738 LINE",
"299 326 LINE"
);
},
{
closed = 1;
nodes = (
"273 198 LINE",
"452 198 LINE",
"452 -65 LINE",
"572 -65 LINE",
"572 198 LINE",
"751 198 LINE",
"512 474 LINE"
);
}
);
width = 1024;
}
);
unicode = E998;
},
{
glyphname = uniE999;
layers = (
{
layerId = "5789BFD8-8569-4DE2-B3C5-6A0ED3E84C22";
name = Regular;
paths = (
{
closed = 1;
nodes = (
"885 961 LINE",
"885 -63 LINE",
"142 -63 LINE",
"142 747 LINE",
"357 960 LINE",
"885 960 LINE"
);
},
{
closed = 1;
nodes = (
"442 876 LINE",
"442 661 LINE",
"228 661 LINE",
"228 23 LINE",
"799 23 LINE",
"799 876 LINE"
);
}
);
width = 1024;
}
);
unicode = E999;
},
{
glyphname = uniE99A;
layers = (
{
layerId = "5789BFD8-8569-4DE2-B3C5-6A0ED3E84C22";
name = Regular;
paths = (
{
closed = 1;
nodes = (
"876 954 LINE",
"441 954 LINE",
"265 778 LINE",
"265 720 LINE",
"148 603 LINE",
"148 -63 LINE",
"758 -63 LINE",
"758 112 LINE",
"875 112 LINE",
"875 954 LINE"
);
},
{
closed = 1;
nodes = (
"688 7 LINE",
"219 7 LINE",
"219 532 LINE",
"266 532 LINE",
"266 112 LINE",
"690 112 LINE",
"690 7 LINE"
);
},
{
closed = 1;
nodes = (
"805 182 LINE",
"336 182 LINE",
"336 708 LINE",
"512 708 LINE",
"512 885 LINE",
"806 885 LINE",
"806 182 LINE"
);
}
);
width = 1024;
}
);
unicode = E99A;
},
{
glyphname = uniE99B;
layers = (
{
layerId = "5789BFD8-8569-4DE2-B3C5-6A0ED3E84C22";
name = Regular;
paths = (
{
closed = 1;
nodes = (
"525 -61 LINE",
"525 -61 LINE",
"3 -63 LINE",
"3 747 LINE",
"218 960 LINE",
"745 960 LINE",
"745 663 LINE",
"660 663 LINE",
"660 876 LINE",
"302 876 LINE",
"302 661 LINE",
"88 661 LINE",
"88 23 LINE",
"526 23 LINE",
"526 -61 LINE"
);
},
{
closed = 1;
nodes = (
"610 579 LINE",
"610 348 LINE",
"381 348 LINE",
"381 168 LINE",
"612 168 LINE",
"612 -63 LINE",
"792 -63 LINE",
"792 168 LINE",
"1023 168 LINE",
"1023 350 LINE",
"792 350 LINE",
"792 579 LINE"
);
}
);
width = 1024;
}
);
unicode = E99B;
},
{
glyphname = uniE99C;
layers = (
{
layerId = "5789BFD8-8569-4DE2-B3C5-6A0ED3E84C22";
name = Regular;
paths = (
{
closed = 1;
nodes = (
"701 9 LINE",
"745 -36 LINE",
"745 -64 LINE",
"629 -64 LINE"
);
},
{
closed = 1;
nodes = (
"87 660 LINE",
"302 660 LINE",
"302 875 LINE",
"658 875 LINE",
"658 548 LINE",
"700 506 LINE",
"744 550 LINE",
"744 960 LINE",
"216 960 LINE",
"1 747 LINE",
"1 -64 LINE",
"448 -64 LINE",
"363 21 LINE",
"87 21 LINE"
);
},
{
closed = 1;
nodes = (
"863 -33 LINE",
"991 95 LINE",
"829 257 LINE",
"991 420 LINE",
"863 548 LINE",
"701 385 LINE",
"539 548 LINE",
"411 420 LINE",
"573 257 LINE",
"410 95 LINE",
"538 -33 LINE",
"700 129 LINE"
);
}
);
width = 1024;
}
);
unicode = E99C;
},
{
glyphname = uniE99D;
layers = (
{
layerId = "5789BFD8-8569-4DE2-B3C5-6A0ED3E84C22";
name = Regular;
paths = (
{
closed = 1;
nodes = (
"570 -64 LINE",
"0 -64 LINE",
"0 741 LINE",
"213 954 LINE",
"738 954 LINE",
"738 613 LINE",
"653 686 LINE",
"653 870 LINE",
"299 870 LINE",
"299 657 LINE",
"85 657 LINE",
"85 21 LINE",
"570 21 LINE"
);
},
{
closed = 1;
nodes = (
"654 334 LINE",
"302 334 LINE",
"302 175 LINE",
"654 175 LINE",
"654 -64 LINE",
"1024 255 LINE",
"654 573 LINE"
);
}
);
width = 1024;
}
);
unicode = E99D;
},
{
glyphname = uniE99E;
layers = (
{
layerId = "5789BFD8-8569-4DE2-B3C5-6A0ED3E84C22";
name = Regular;
paths = (
{
closed = 1;
nodes = (
"742 319 LINE",
"742 -64 LINE",
"0 -64 LINE",
"0 745 LINE",
"215 960 LINE",
"742 960 LINE",
"742 870 LINE",
"657 785 LINE",
"657 875 LINE",
"300 875 LINE",
"300 660 LINE",
"85 660 LINE",
"85 21 LINE",
"657 21 LINE",
"657 233 LINE"
);
},
{
closed = 1;
nodes = (
"796 805 LINE",
"951 650 LINE",
"536 235 LINE",
"307 161 LINE",
"381 390 LINE"
);
},
{
closed = 1;
nodes = (
"363 215 LINE",
"518 265 LINE",
"412 370 LINE"
);
}
);
width = 1024;
}
);
unicode = E99E;
},
{
glyphname = uniE99F;
layers = (
{
layerId = "5789BFD8-8569-4DE2-B3C5-6A0ED3E84C22";
name = Regular;
paths = (
{
closed = 1;
nodes = (
"356 960 LINE",
"142 745 LINE",
"142 -64 LINE",
"885 -64 LINE",
"885 960 LINE",
"356 960 LINE"
);
},
{
closed = 1;
nodes = (
"799 21 LINE",
"228 21 LINE",
"228 660 LINE",
"441 660 LINE",
"441 875 LINE",
"798 875 LINE",
"798 21 LINE"
);
},
{
closed = 1;
nodes = (
"303 570 LINE",
"647 570 LINE",
"647 502 LINE",
"303 502 LINE"
);
},
{
closed = 1;
nodes = (
"546 348 LINE",
"303 348 LINE",
"303 417 LINE",
"546 417 LINE"
);
},
{
closed = 1;
nodes = (
"720 265 LINE",
"720 196 LINE",
"303 196 LINE",
"303 265 LINE"
);
}
);
width = 1024;
}
);
unicode = E99F;
},
{
glyphname = uniE9A0;
layers = (
{
layerId = "5789BFD8-8569-4DE2-B3C5-6A0ED3E84C22";
name = Regular;
paths = (
{
closed = 1;
nodes = (
"311 73 LINE",
"700 73 LINE",
"700 -64 LINE",
"114 -64 LINE",
"114 752 LINE",
"250 752 LINE",
"250 74 LINE",
"311 74 LINE"
);
},
{
closed = 1;
nodes = (
"737 959 LINE",
"311 959 LINE",
"311 134 LINE",
"909 134 LINE",
"909 786 LINE",
"737 786 LINE"
);
},
{
closed = 1;
nodes = (
"789 839 LINE",
"909 839 LINE",
"788 960 LINE",
"788 839 LINE"
);
}
);
width = 1024;
}
);
unicode = E9A0;
},
{
glyphname = uniE9A1;
layers = (
{
layerId = "5789BFD8-8569-4DE2-B3C5-6A0ED3E84C22";
name = Regular;
paths = (
{
closed = 1;
nodes = (
"512 896 LINE",
"0 10 LINE",
"1023 10 LINE"
);
},
{
closed = 1;
nodes = (
"552 242 LINE",
"472 242 LINE",
"445 565 LINE",
"579 565 LINE"
);
},
{
closed = 1;
nodes = (
"481 94 OFFCURVE",
"457 118 OFFCURVE",
"457 149 CURVE SMOOTH",
"457 181 OFFCURVE",
"481 205 OFFCURVE",
"512 205 CURVE SMOOTH",
"543 205 OFFCURVE",
"567 181 OFFCURVE",
"567 149 CURVE SMOOTH",
"567 120 OFFCURVE",
"543 94 OFFCURVE",
"512 94 CURVE SMOOTH"
);
}
);
width = 1024;
}
);
unicode = E9A1;
},
{
glyphname = uniE9A2;
layers = (
{
layerId = "5789BFD8-8569-4DE2-B3C5-6A0ED3E84C22";
name = Regular;
paths = (
{
closed = 1;
nodes = (
"779 710 LINE SMOOTH",
"779 710 OFFCURVE",
"779 710 OFFCURVE",
"779 710 CURVE SMOOTH",
"779 710 OFFCURVE",
"779 710 OFFCURVE",
"779 711 CURVE",
"751 798 LINE",
"744 814 OFFCURVE",
"724 825 OFFCURVE",
"707 825 CURVE SMOOTH",
"316 825 LINE SMOOTH",
"299 825 OFFCURVE",
"279 813 OFFCURVE",
"272 798 CURVE",
"243 711 LINE",
"243 711 OFFCURVE",
"243 711 OFFCURVE",
"243 711 CURVE SMOOTH",
"243 711 OFFCURVE",
"243 711 OFFCURVE",
"243 710 CURVE",
"30 710 LINE SMOOTH",
"13 710 OFFCURVE",
"0 696 OFFCURVE",
"0 680 CURVE SMOOTH",
"0 102 LINE SMOOTH",
"0 86 OFFCURVE",
"14 73 OFFCURVE",
"30 73 CURVE SMOOTH",
"993 73 LINE SMOOTH",
"1010 73 OFFCURVE",
"1023 87 OFFCURVE",
"1023 102 CURVE SMOOTH",
"1023 678 LINE",
"1024 695 OFFCURVE",
"1010 710 OFFCURVE",
"993 710 CURVE SMOOTH"
);
},
{
closed = 1;
nodes = (
"450 174 OFFCURVE",
"394 198 OFFCURVE",
"355 238 CURVE SMOOTH",
"315 278 OFFCURVE",
"290 334 OFFCURVE",
"290 394 CURVE SMOOTH",
"290 455 OFFCURVE",
"315 510 OFFCURVE",
"355 550 CURVE SMOOTH",
"395 590 OFFCURVE",
"450 614 OFFCURVE",
"511 614 CURVE SMOOTH",
"571 614 OFFCURVE",
"626 590 OFFCURVE",
"666 550 CURVE SMOOTH",
"706 510 OFFCURVE",
"731 454 OFFCURVE",
"731 394 CURVE SMOOTH",
"732 334 OFFCURVE",
"707 278 OFFCURVE",
"667 238 CURVE SMOOTH",
"627 198 OFFCURVE",
"571 174 OFFCURVE",
"511 174 CURVE SMOOTH"
);
}
);
width = 1024;
}
);
unicode = E9A2;
},
{
glyphname = uniE9A3;
layers = (
{
layerId = "5789BFD8-8569-4DE2-B3C5-6A0ED3E84C22";
name = Regular;
paths = (
{
closed = 1;
nodes = (
"789 713 LINE SMOOTH",
"789 713 OFFCURVE",
"789 713 OFFCURVE",
"789 713 CURVE SMOOTH",
"789 713 OFFCURVE",
"789 713 OFFCURVE",
"789 714 CURVE",
"759 801 LINE",
"752 816 OFFCURVE",
"732 828 OFFCURVE",
"715 828 CURVE SMOOTH",
"321 828 LINE SMOOTH",
"305 828 OFFCURVE",
"285 814 OFFCURVE",
"277 801 CURVE",
"247 714 LINE",
"247 714 OFFCURVE",
"247 714 OFFCURVE",
"247 714 CURVE SMOOTH",
"247 714 OFFCURVE",
"247 714 OFFCURVE",
"247 713 CURVE",
"33 713 LINE SMOOTH",
"16 713 OFFCURVE",
"1 698 OFFCURVE",
"1 681 CURVE SMOOTH",
"1 98 LINE SMOOTH",
"1 81 OFFCURVE",
"16 67 OFFCURVE",
"33 67 CURVE SMOOTH",
"994 67 LINE SMOOTH",
"1011 67 OFFCURVE",
"1025 81 OFFCURVE",
"1025 98 CURVE SMOOTH",
"1025 681 LINE SMOOTH",
"1025 698 OFFCURVE",
"1011 713 OFFCURVE",
"994 713 CURVE SMOOTH"
);
},
{
closed = 1;
nodes = (
"446 156 OFFCURVE",
"386 183 OFFCURVE",
"343 227 CURVE SMOOTH",
"299 271 OFFCURVE",
"272 331 OFFCURVE",
"272 398 CURVE SMOOTH",
"272 465 OFFCURVE",
"299 525 OFFCURVE",
"343 569 CURVE SMOOTH",
"386 613 OFFCURVE",
"446 640 OFFCURVE",
"513 640 CURVE SMOOTH",
"581 640 OFFCURVE",
"641 613 OFFCURVE",
"685 569 CURVE SMOOTH",
"728 525 OFFCURVE",
"755 465 OFFCURVE",
"755 398 CURVE SMOOTH",
"755 331 OFFCURVE",
"728 271 OFFCURVE",
"685 227 CURVE SMOOTH",
"641 183 OFFCURVE",
"581 156 OFFCURVE",
"513 156 CURVE SMOOTH"
);
},
{
closed = 1;
nodes = (
"670 313 OFFCURVE",
"600 242 OFFCURVE",
"513 242 CURVE SMOOTH",
"428 242 OFFCURVE",
"357 311 OFFCURVE",
"357 398 CURVE SMOOTH",
"357 483 OFFCURVE",
"426 555 OFFCURVE",
"513 555 CURVE SMOOTH",
"600 554 OFFCURVE",
"670 483 OFFCURVE",
"670 398 CURVE SMOOTH"
);
}
);
width = 1024;
}
);
unicode = E9A3;
},
{
glyphname = uniE9A4;
layers = (
{
layerId = "5789BFD8-8569-4DE2-B3C5-6A0ED3E84C22";
name = Regular;
paths = (
{
closed = 1;
nodes = (
"327 95 LINE SMOOTH",
"305 73 OFFCURVE",
"278 62 OFFCURVE",
"246 62 CURVE SMOOTH",
"214 62 OFFCURVE",
"187 73 OFFCURVE",
"165 95 CURVE SMOOTH",
"144 116 OFFCURVE",
"132 146 OFFCURVE",
"132 175 CURVE SMOOTH",
"132 204 OFFCURVE",
"144 234 OFFCURVE",
"165 255 CURVE SMOOTH",
"354 442 LINE SMOOTH",
"394 481 OFFCURVE",
"467 540 OFFCURVE",
"522 485 CURVE SMOOTH",
"546 461 OFFCURVE",
"560 486 OFFCURVE",
"585 511 CURVE SMOOTH",
"597 523 OFFCURVE",
"607 533 OFFCURVE",
"616 542 CURVE SMOOTH",
"625 551 OFFCURVE",
"623 562 OFFCURVE",
"610 575 CURVE SMOOTH",
"565 620 OFFCURVE",
"508 639 OFFCURVE",
"448 632 CURVE SMOOTH",
"387 624 OFFCURVE",
"324 591 OFFCURVE",
"265 532 CURVE SMOOTH",
"75 344 LINE SMOOTH",
"30 299 OFFCURVE",
"4 239 OFFCURVE",
"4 175 CURVE SMOOTH",
"4 111 OFFCURVE",
"30 51 OFFCURVE",
"75 6 CURVE SMOOTH",
"123 -42 OFFCURVE",
"183 -64 OFFCURVE",
"246 -64 CURVE SMOOTH",
"307 -64 OFFCURVE",
"370 -42 OFFCURVE",
"417 6 CURVE SMOOTH",
"468 57 LINE SMOOTH",
"492 81 OFFCURVE",
"465 99 OFFCURVE",
"441 124 CURVE",
"416 148 OFFCURVE",
"402 171 OFFCURVE",
"378 146 CURVE SMOOTH"
);
},
{
closed = 1;
nodes = (
"904 926 OFFCURVE",
"845 953 OFFCURVE",
"787 955 CURVE SMOOTH",
"729 957 OFFCURVE",
"671 935 OFFCURVE",
"626 890 CURVE SMOOTH",
"562 826 LINE SMOOTH",
"538 802 OFFCURVE",
"562 789 OFFCURVE",
"587 762 CURVE",
"612 738 OFFCURVE",
"627 713 OFFCURVE",
"651 737 CURVE SMOOTH",
"715 801 LINE SMOOTH",
"763 848 OFFCURVE",
"825 828 OFFCURVE",
"865 788 CURVE SMOOTH",
"886 767 OFFCURVE",
"897 739 OFFCURVE",
"897 708 CURVE SMOOTH",
"897 679 OFFCURVE",
"886 650 OFFCURVE",
"865 629 CURVE SMOOTH",
"661 428 LINE SMOOTH",
"615 382 OFFCURVE",
"580 363 OFFCURVE",
"556 372 CURVE",
"532 380 OFFCURVE",
"515 389 OFFCURVE",
"506 398 CURVE SMOOTH",
"482 422 OFFCURVE",
"468 397 OFFCURVE",
"444 373 CURVE",
"432 360 OFFCURVE",
"422 350 OFFCURVE",
"413 341 CURVE SMOOTH",
"404 332 OFFCURVE",
"405 321 OFFCURVE",
"418 309 CURVE",
"461 266 OFFCURVE",
"509 246 OFFCURVE",
"560 246 CURVE SMOOTH",
"623 246 OFFCURVE",
"688 277 OFFCURVE",
"751 340 CURVE SMOOTH",
"953 539 LINE SMOOTH",
"998 584 OFFCURVE",
"1024 644 OFFCURVE",
"1024 708 CURVE SMOOTH",
"1024 772 OFFCURVE",
"998 831 OFFCURVE",
"953 878 CURVE SMOOTH"
);
}
);
width = 1024;
}
);
unicode = E9A4;
},
{
glyphname = uniE9A5;
layers = (
{
layerId = "5789BFD8-8569-4DE2-B3C5-6A0ED3E84C22";
name = Regular;
paths = (
{
closed = 1;
nodes = (
"673 855 OFFCURVE",
"609 812 OFFCURVE",
"569 769 CURVE SMOOTH",
"549 747 OFFCURVE",
"535 727 OFFCURVE",
"526 710 CURVE SMOOTH",
"517 692 OFFCURVE",
"512 683 OFFCURVE",
"512 683 CURVE SMOOTH",
"512 683 OFFCURVE",
"508 692 OFFCURVE",
"500 710 CURVE SMOOTH",
"484 745 OFFCURVE",
"446 792 OFFCURVE",
"380 828 CURVE SMOOTH",
"347 846 OFFCURVE",
"305 855 OFFCURVE",
"256 855 CURVE SMOOTH",
"157 855 OFFCURVE",
"94 812 OFFCURVE",
"55 769 CURVE SMOOTH",
"35 747 OFFCURVE",
"21 727 OFFCURVE",
"13 710 CURVE SMOOTH",
"4 692 OFFCURVE",
"0 683 OFFCURVE",
"0 683 CURVE",
"0 70 LINE",
"0 70 OFFCURVE",
"5 79 OFFCURVE",
"15 97 CURVE SMOOTH",
"34 133 OFFCURVE",
"75 180 OFFCURVE",
"140 216 CURVE SMOOTH",
"172 234 OFFCURVE",
"211 243 OFFCURVE",
"256 243 CURVE SMOOTH",
"347 243 OFFCURVE",
"411 200 OFFCURVE",
"452 157 CURVE SMOOTH",
"473 135 OFFCURVE",
"488 115 OFFCURVE",
"498 97 CURVE",
"507 79 OFFCURVE",
"512 70 OFFCURVE",
"512 70 CURVE SMOOTH",
"512 70 OFFCURVE",
"517 79 OFFCURVE",
"526 97 CURVE SMOOTH",
"544 133 OFFCURVE",
"583 180 OFFCURVE",
"648 216 CURVE SMOOTH",
"681 234 OFFCURVE",
"721 243 OFFCURVE",
"768 243 CURVE SMOOTH",
"863 243 OFFCURVE",
"927 200 OFFCURVE",
"967 157 CURVE SMOOTH",
"987 135 OFFCURVE",
"1002 115 OFFCURVE",
"1011 97 CURVE SMOOTH",
"1020 79 OFFCURVE",
"1024 70 OFFCURVE",
"1024 70 CURVE",
"1024 680 LINE",
"1024 680 OFFCURVE",
"1020 689 OFFCURVE",
"1011 707 CURVE SMOOTH",
"993 743 OFFCURVE",
"953 791 OFFCURVE",
"888 828 CURVE SMOOTH",
"855 846 OFFCURVE",
"815 855 OFFCURVE",
"768 855 CURVE SMOOTH"
);
},
{
closed = 1;
nodes = (
"179 314 OFFCURVE",
"118 290 OFFCURVE",
"71 259 CURVE",
"71 670 LINE",
"86 701 OFFCURVE",
"135 785 OFFCURVE",
"256 785 CURVE SMOOTH",
"326 785 OFFCURVE",
"374 766 OFFCURVE",
"401 728 CURVE SMOOTH",
"428 689 OFFCURVE",
"442 667 OFFCURVE",
"445 660 CURVE",
"469 596 LINE",
"469 239 LINE",
"420 280 OFFCURVE",
"348 314 OFFCURVE",
"256 314 CURVE SMOOTH"
);
},
{
closed = 1;
nodes = (
"953 262 LINE",
"906 291 OFFCURVE",
"845 314 OFFCURVE",
"768 314 CURVE SMOOTH",
"675 314 OFFCURVE",
"604 281 OFFCURVE",
"555 240 CURVE",
"555 599 LINE",
"577 657 LINE",
"578 660 OFFCURVE",
"592 682 OFFCURVE",
"621 723 CURVE SMOOTH",
"650 764 OFFCURVE",
"698 784 OFFCURVE",
"767 784 CURVE SMOOTH",
"882 784 OFFCURVE",
"936 696 OFFCURVE",
"951 664 CURVE",
"951 262 LINE"
);
}
);
width = 1024;
}
);
unicode = E9A5;
},
{
glyphname = uniE9A6;
layers = (
{
layerId = "5789BFD8-8569-4DE2-B3C5-6A0ED3E84C22";
name = Regular;
paths = (
{
closed = 1;
nodes = (
"872 391 LINE",
"768 502 LINE",
"664 391 LINE",
"664 836 LINE",
"609 813 OFFCURVE",
"570 782 OFFCURVE",
"547 743 CURVE SMOOTH",
"524 703 OFFCURVE",
"512 683 OFFCURVE",
"512 683 CURVE SMOOTH",
"512 683 OFFCURVE",
"508 692 OFFCURVE",
"500 710 CURVE SMOOTH",
"484 745 OFFCURVE",
"446 792 OFFCURVE",
"380 828 CURVE SMOOTH",
"347 846 OFFCURVE",
"305 855 OFFCURVE",
"256 855 CURVE SMOOTH",
"157 855 OFFCURVE",
"94 812 OFFCURVE",
"55 769 CURVE SMOOTH",
"35 747 OFFCURVE",
"21 727 OFFCURVE",
"13 710 CURVE SMOOTH",
"4 692 OFFCURVE",
"0 683 OFFCURVE",
"0 683 CURVE",
"0 70 LINE",
"0 70 OFFCURVE",
"5 79 OFFCURVE",
"15 97 CURVE SMOOTH",
"34 133 OFFCURVE",
"75 180 OFFCURVE",
"140 216 CURVE SMOOTH",
"172 234 OFFCURVE",
"211 243 OFFCURVE",
"256 243 CURVE SMOOTH",
"347 243 OFFCURVE",
"411 200 OFFCURVE",
"452 157 CURVE SMOOTH",
"473 135 OFFCURVE",
"488 115 OFFCURVE",
"498 97 CURVE",
"507 79 OFFCURVE",
"512 70 OFFCURVE",
"512 70 CURVE SMOOTH",
"512 70 OFFCURVE",
"517 79 OFFCURVE",
"526 97 CURVE SMOOTH",
"544 133 OFFCURVE",
"583 180 OFFCURVE",
"648 216 CURVE SMOOTH",
"681 234 OFFCURVE",
"721 243 OFFCURVE",
"768 243 CURVE SMOOTH",
"863 243 OFFCURVE",
"927 200 OFFCURVE",
"967 157 CURVE SMOOTH",
"987 135 OFFCURVE",
"1002 115 OFFCURVE",
"1011 97 CURVE SMOOTH",
"1020 79 OFFCURVE",
"1024 70 OFFCURVE",
"1024 70 CURVE",
"1024 680 LINE",
"1024 680 OFFCURVE",
"1013 700 OFFCURVE",
"990 741 CURVE SMOOTH",
"967 781 OFFCURVE",
"927 812 OFFCURVE",
"872 835 CURVE"
);
},
{
closed = 1;
nodes = (
"664 391 LINE",
"664 391 LINE"
);
},
{
closed = 1;
nodes = (
"872 391 LINE",
"872 391 LINE"
);
},
{
closed = 1;
nodes = (
"872 391 LINE"
);
},
{
closed = 1;
nodes = (
"664 391 LINE"
);
}
);
width = 1024;
}
);
unicode = E9A6;
},
{
glyphname = uniE9A7;
layers = (
{
layerId = "5789BFD8-8569-4DE2-B3C5-6A0ED3E84C22";
name = Regular;
paths = (
{
closed = 1;
nodes = (
"704 676 LINE",
"704 795 LINE SMOOTH",
"704 823 OFFCURVE",
"681 846 OFFCURVE",
"653 846 CURVE SMOOTH",
"371 846 LINE SMOOTH",
"343 846 OFFCURVE",
"320 823 OFFCURVE",
"320 795 CURVE SMOOTH",
"320 676 LINE",
"51 676 LINE SMOOTH",
"23 676 OFFCURVE",
"0 653 OFFCURVE",
"0 624 CURVE SMOOTH",
"0 87 LINE SMOOTH",
"0 58 OFFCURVE",
"23 36 OFFCURVE",
"51 36 CURVE SMOOTH",
"973 36 LINE SMOOTH",
"1001 36 OFFCURVE",
"1024 58 OFFCURVE",
"1024 87 CURVE SMOOTH",
"1024 624 LINE SMOOTH",
"1024 653 OFFCURVE",
"1001 676 OFFCURVE",
"973 676 CURVE SMOOTH"
);
},
{
closed = 1;
nodes = (
"405 752 OFFCURVE",
"428 775 OFFCURVE",
"457 775 CURVE SMOOTH",
"567 775 LINE SMOOTH",
"596 775 OFFCURVE",
"619 752 OFFCURVE",
"619 724 CURVE SMOOTH",
"619 676 LINE",
"405 676 LINE",
"405 724 LINE SMOOTH"
);
}
);
width = 1024;
}
);
unicode = E9A7;
},
{
glyphname = uniE9A8;
layers = (
{
layerId = "5789BFD8-8569-4DE2-B3C5-6A0ED3E84C22";
name = Regular;
paths = (
{
closed = 1;
nodes = (
"649 425 LINE",
"649 590 LINE",
"3 590 LINE",
"3 101 LINE",
"166 101 LINE",
"166 -64 LINE",
"812 -64 LINE",
"812 425 LINE"
);
},
{
closed = 1;
nodes = (
"84 509 LINE",
"569 509 LINE",
"569 425 LINE",
"165 425 LINE",
"165 182 LINE",
"84 182 LINE"
);
},
{
closed = 1;
nodes = (
"731 344 LINE",
"731 17 LINE",
"246 17 LINE",
"246 344 LINE"
);
}
);
width = 1024;
}
);
unicode = E9A8;
},
{
glyphname = uniE9A9;
layers = (
{
layerId = "5789BFD8-8569-4DE2-B3C5-6A0ED3E84C22";
name = Regular;
paths = (
{
closed = 1;
nodes = (
"283 399 OFFCURVE",
"244 358 OFFCURVE",
"193 358 CURVE SMOOTH",
"144 358 OFFCURVE",
"104 399 OFFCURVE",
"104 448 CURVE SMOOTH",
"104 497 OFFCURVE",
"144 538 OFFCURVE",
"193 538 CURVE SMOOTH",
"244 538 OFFCURVE",
"283 497 OFFCURVE",
"283 448 CURVE SMOOTH"
);
},
{
closed = 1;
nodes = (
"464 538 OFFCURVE",
"424 497 OFFCURVE",
"424 448 CURVE SMOOTH",
"424 399 OFFCURVE",
"464 358 OFFCURVE",
"513 358 CURVE SMOOTH",
"564 358 OFFCURVE",
"603 399 OFFCURVE",
"603 448 CURVE SMOOTH",
"603 497 OFFCURVE",
"564 538 OFFCURVE",
"513 538 CURVE SMOOTH"
);
},
{
closed = 1;
nodes = (
"784 538 OFFCURVE",
"744 497 OFFCURVE",
"744 448 CURVE SMOOTH",
"744 399 OFFCURVE",
"784 358 OFFCURVE",
"833 358 CURVE SMOOTH",
"884 358 OFFCURVE",
"923 399 OFFCURVE",
"923 448 CURVE SMOOTH",
"923 497 OFFCURVE",
"884 538 OFFCURVE",
"833 538 CURVE SMOOTH"
);
}
);
width = 1024;
}
);
unicode = E9A9;
},
{
glyphname = uniE9AA;
layers = (
{
layerId = "5789BFD8-8569-4DE2-B3C5-6A0ED3E84C22";
name = Regular;
paths = (
{
closed = 1;
nodes = (
"466 678 OFFCURVE",
"425 719 OFFCURVE",
"425 768 CURVE SMOOTH",
"425 817 OFFCURVE",
"466 858 OFFCURVE",
"515 858 CURVE SMOOTH",
"564 858 OFFCURVE",
"604 817 OFFCURVE",
"604 768 CURVE SMOOTH",
"604 719 OFFCURVE",
"564 678 OFFCURVE",
"515 678 CURVE SMOOTH"
);
},
{
closed = 1;
nodes = (
"604 497 OFFCURVE",
"564 538 OFFCURVE",
"515 538 CURVE SMOOTH",
"466 538 OFFCURVE",
"425 497 OFFCURVE",
"425 448 CURVE SMOOTH",
"425 399 OFFCURVE",
"466 358 OFFCURVE",
"515 358 CURVE SMOOTH",
"564 358 OFFCURVE",
"604 399 OFFCURVE",
"604 448 CURVE SMOOTH"
);
},
{
closed = 1;
nodes = (
"604 177 OFFCURVE",
"564 218 OFFCURVE",
"515 218 CURVE SMOOTH",
"466 218 OFFCURVE",
"425 177 OFFCURVE",
"425 128 CURVE SMOOTH",
"425 79 OFFCURVE",
"466 38 OFFCURVE",
"515 38 CURVE SMOOTH",
"564 38 OFFCURVE",
"604 79 OFFCURVE",
"604 128 CURVE SMOOTH"
);
}
);
width = 1024;
}
);
unicode = E9AA;
},
{
glyphname = uniE9AB;
layers = (
{
layerId = "5789BFD8-8569-4DE2-B3C5-6A0ED3E84C22";
name = Regular;
paths = (
{
closed = 1;
nodes = (
"785 630 OFFCURVE",
"736 604 OFFCURVE",
"701 565 CURVE",
"358 735 LINE",
"362 748 OFFCURVE",
"363 762 OFFCURVE",
"363 777 CURVE SMOOTH",
"364 878 OFFCURVE",
"282 960 OFFCURVE",
"182 960 CURVE SMOOTH",
"82 960 OFFCURVE",
"-1 879 OFFCURVE",
"-1 778 CURVE SMOOTH",
"-1 677 OFFCURVE",
"80 596 OFFCURVE",
"181 596 CURVE SMOOTH",
"236 596 OFFCURVE",
"287 621 OFFCURVE",
"320 661 CURVE",
"663 491 LINE",
"660 476 OFFCURVE",
"658 463 OFFCURVE",
"658 448 CURVE SMOOTH",
"658 433 OFFCURVE",
"660 419 OFFCURVE",
"663 407 CURVE",
"320 236 LINE",
"285 276 OFFCURVE",
"236 302 OFFCURVE",
"181 302 CURVE SMOOTH",
"80 302 OFFCURVE",
"-1 220 OFFCURVE",
"-1 119 CURVE SMOOTH",
"-1 19 OFFCURVE",
"80 -63 OFFCURVE",
"181 -63 CURVE SMOOTH",
"281 -63 OFFCURVE",
"363 19 OFFCURVE",
"363 119 CURVE SMOOTH",
"363 134 OFFCURVE",
"362 148 OFFCURVE",
"358 161 CURVE",
"701 331 LINE",
"736 292 OFFCURVE",
"785 266 OFFCURVE",
"841 266 CURVE SMOOTH",
"941 266 OFFCURVE",
"1023 347 OFFCURVE",
"1023 448 CURVE SMOOTH",
"1023 549 OFFCURVE",
"941 630 OFFCURVE",
"841 630 CURVE SMOOTH"
);
}
);
width = 1024;
}
);
unicode = E9AB;
},
{
glyphname = uniE9AC;
layers = (
{
layerId = "5789BFD8-8569-4DE2-B3C5-6A0ED3E84C22";
name = Regular;
paths = (
{
closed = 1;
nodes = (
"1024 841 LINE",
"1 841 LINE",
"1 138 LINE",
"439 138 LINE",
"321 20 LINE",
"704 20 LINE",
"586 138 LINE",
"1024 138 LINE"
);
},
{
closed = 1;
nodes = (
"910 250 LINE",
"115 250 LINE",
"115 727 LINE",
"910 727 LINE"
);
}
);
width = 1024;
}
);
unicode = E9AC;
},
{
glyphname = uniE9AD;
layers = (
{
layerId = "5789BFD8-8569-4DE2-B3C5-6A0ED3E84C22";
name = Regular;
paths = (
{
closed = 1;
nodes = (
"914 47 LINE SMOOTH",
"914 39 OFFCURVE",
"907 31 OFFCURVE",
"899 31 CURVE SMOOTH",
"597 31 LINE",
"597 -13 LINE",
"667 -55 LINE",
"674 -60 OFFCURVE",
"673 -64 OFFCURVE",
"664 -64 CURVE SMOOTH",
"397 -64 LINE SMOOTH",
"388 -64 OFFCURVE",
"387 -60 OFFCURVE",
"394 -55 CURVE",
"461 -13 LINE",
"461 31 LINE",
"161 31 LINE SMOOTH",
"152 31 OFFCURVE",
"145 39 OFFCURVE",
"145 47 CURVE SMOOTH",
"145 593 LINE SMOOTH",
"145 601 OFFCURVE",
"152 609 OFFCURVE",
"161 609 CURVE SMOOTH",
"215 609 LINE",
"216 608 OFFCURVE",
"217 606 OFFCURVE",
"218 605 CURVE",
"219 603 OFFCURVE",
"219 601 OFFCURVE",
"220 600 CURVE",
"267 545 LINE",
"225 545 LINE SMOOTH",
"216 545 OFFCURVE",
"209 537 OFFCURVE",
"209 529 CURVE SMOOTH",
"209 186 LINE SMOOTH",
"209 178 OFFCURVE",
"216 171 OFFCURVE",
"225 171 CURVE SMOOTH",
"833 171 LINE SMOOTH",
"842 171 OFFCURVE",
"849 178 OFFCURVE",
"849 186 CURVE SMOOTH",
"849 529 LINE SMOOTH",
"849 537 OFFCURVE",
"842 545 OFFCURVE",
"833 545 CURVE SMOOTH",
"771 545 LINE",
"818 600 LINE",
"819 601 OFFCURVE",
"821 603 OFFCURVE",
"822 605 CURVE",
"823 606 OFFCURVE",
"824 608 OFFCURVE",
"825 609 CURVE",
"899 609 LINE",
"907 608 OFFCURVE",
"914 601 OFFCURVE",
"914 593 CURVE SMOOTH"
);
},
{
closed = 1;
nodes = (
"499 400 OFFCURVE",
"510 395 OFFCURVE",
"519 395 CURVE SMOOTH",
"530 395 OFFCURVE",
"539 400 OFFCURVE",
"546 408 CURVE SMOOTH",
"754 654 LINE SMOOTH",
"770 673 OFFCURVE",
"762 687 OFFCURVE",
"738 687 CURVE SMOOTH",
"630 687 LINE SMOOTH",
"625 687 OFFCURVE",
"618 687 OFFCURVE",
"611 687 CURVE SMOOTH",
"603 687 OFFCURVE",
"595 687 OFFCURVE",
"587 687 CURVE",
"587 960 LINE",
"587 960 OFFCURVE",
"583 960 OFFCURVE",
"575 960 CURVE SMOOTH",
"567 960 OFFCURVE",
"557 960 OFFCURVE",
"545 960 CURVE SMOOTH",
"495 960 LINE SMOOTH",
"484 960 OFFCURVE",
"474 960 OFFCURVE",
"465 960 CURVE SMOOTH",
"456 960 OFFCURVE",
"452 960 OFFCURVE",
"452 960 CURVE",
"452 687 LINE",
"445 687 OFFCURVE",
"437 687 OFFCURVE",
"430 687 CURVE SMOOTH",
"422 687 OFFCURVE",
"415 687 OFFCURVE",
"410 687 CURVE SMOOTH",
"302 687 LINE SMOOTH",
"278 687 OFFCURVE",
"271 673 OFFCURVE",
"286 654 CURVE SMOOTH",
"492 408 LINE SMOOTH"
);
}
);
width = 1024;
}
);
unicode = E9AD;
},
{
glyphname = uniE9AE;
layers = (
{
layerId = "5789BFD8-8569-4DE2-B3C5-6A0ED3E84C22";
name = Regular;
paths = (
{
closed = 1;
nodes = (
"900 519 LINE",
"806 519 LINE",
"806 448 LINE",
"869 448 LINE",
"957 350 LINE",
"957 78 LINE",
"75 78 LINE",
"75 350 LINE",
"165 448 LINE",
"228 448 LINE",
"228 519 LINE",
"132 519 LINE",
"4 377 LINE",
"4 7 LINE",
"1028 7 LINE",
"1028 377 LINE"
);
},
{
closed = 1;
nodes = (
"808 361 LINE",
"808 895 LINE",
"395 895 LINE",
"228 727 LINE",
"228 361 LINE"
);
},
{
closed = 1;
nodes = (
"461 660 LINE",
"461 828 LINE",
"740 828 LINE",
"740 428 LINE",
"293 428 LINE",
"293 660 LINE"
);
}
);
width = 1024;
}
);
unicode = E9AE;
},
{
glyphname = uniE9AF;
layers = (
{
layerId = "5789BFD8-8569-4DE2-B3C5-6A0ED3E84C22";
name = Regular;
paths = (
{
closed = 1;
nodes = (
"805 722 LINE",
"805 923 LINE",
"225 923 LINE",
"225 722 LINE",
"3 722 LINE",
"3 196 LINE",
"225 196 LINE",
"225 -36 LINE",
"637 -36 LINE",
"805 132 LINE",
"805 198 LINE",
"1027 198 LINE",
"1027 724 LINE",
"805 724 LINE"
);
},
{
closed = 1;
nodes = (
"956 587 LINE",
"826 587 LINE",
"826 653 LINE",
"956 653 LINE"
);
},
{
closed = 1;
nodes = (
"738 856 LINE",
"738 722 LINE",
"292 722 LINE",
"292 856 LINE"
);
},
{
closed = 1;
nodes = (
"292 31 LINE",
"292 427 LINE",
"225 427 LINE",
"225 269 LINE",
"145 269 LINE",
"145 511 LINE",
"887 511 LINE",
"887 269 LINE",
"805 269 LINE",
"805 427 LINE",
"738 427 LINE",
"738 199 LINE",
"570 199 LINE",
"570 31 LINE"
);
}
);
width = 1024;
}
);
unicode = E9AF;
},
{
glyphname = uniE9B0;
layers = (
{
layerId = "5789BFD8-8569-4DE2-B3C5-6A0ED3E84C22";
name = Regular;
paths = (
{
closed = 1;
nodes = (
"250 629 LINE",
"420 629 LINE",
"420 366 LINE",
"614 366 LINE",
"614 629 LINE",
"784 629 LINE",
"518 879 LINE"
);
},
{
closed = 1;
nodes = (
"832 397 LINE",
"731 397 LINE",
"906 263 LINE",
"725 263 LINE SMOOTH",
"720 263 OFFCURVE",
"716 260 OFFCURVE",
"713 256 CURVE",
"671 141 LINE",
"364 141 LINE",
"323 256 LINE",
"320 260 OFFCURVE",
"315 263 OFFCURVE",
"310 263 CURVE SMOOTH",
"128 263 LINE",
"303 397 LINE",
"202 397 LINE",
"38 287 LINE",
"14 274 OFFCURVE",
"-1 240 OFFCURVE",
"6 213 CURVE",
"34 55 LINE",
"41 28 OFFCURVE",
"70 7 OFFCURVE",
"98 7 CURVE SMOOTH",
"934 7 LINE SMOOTH",
"963 7 OFFCURVE",
"993 28 OFFCURVE",
"998 55 CURVE SMOOTH",
"1027 213 LINE",
"1035 240 OFFCURVE",
"1020 274 OFFCURVE",
"996 287 CURVE"
);
}
);
width = 1024;
}
);
unicode = E9B0;
},
{
glyphname = uniE9B1;
layers = (
{
layerId = "5789BFD8-8569-4DE2-B3C5-6A0ED3E84C22";
name = Regular;
paths = (
{
closed = 1;
nodes = (
"828 397 LINE",
"727 397 LINE",
"902 263 LINE",
"720 263 LINE SMOOTH",
"713 263 OFFCURVE",
"710 260 OFFCURVE",
"707 256 CURVE",
"666 141 LINE",
"358 141 LINE",
"317 256 LINE",
"314 260 OFFCURVE",
"311 263 OFFCURVE",
"304 263 CURVE SMOOTH",
"122 263 LINE",
"297 397 LINE",
"196 397 LINE",
"33 287 LINE",
"9 274 OFFCURVE",
"-5 240 OFFCURVE",
"0 213 CURVE SMOOTH",
"28 55 LINE",
"37 28 OFFCURVE",
"66 7 OFFCURVE",
"94 7 CURVE SMOOTH",
"930 7 LINE SMOOTH",
"958 7 OFFCURVE",
"989 28 OFFCURVE",
"994 55 CURVE SMOOTH",
"1023 213 LINE",
"1030 240 OFFCURVE",
"1015 274 OFFCURVE",
"991 287 CURVE"
);
},
{
closed = 1;
nodes = (
"610 616 LINE",
"610 879 LINE",
"415 879 LINE",
"415 616 LINE",
"246 616 LINE",
"512 366 LINE",
"779 616 LINE"
);
}
);
width = 1024;
}
);
unicode = E9B1;
},
{
glyphname = uniE9B2;
layers = (
{
layerId = "5789BFD8-8569-4DE2-B3C5-6A0ED3E84C22";
name = Regular;
paths = (
{
closed = 1;
nodes = (
"742 329 LINE",
"786 393 OFFCURVE",
"811 471 OFFCURVE",
"811 555 CURVE SMOOTH",
"811 666 OFFCURVE",
"765 768 OFFCURVE",
"692 841 CURVE SMOOTH",
"619 914 OFFCURVE",
"518 960 OFFCURVE",
"405 960 CURVE SMOOTH",
"294 960 OFFCURVE",
"192 914 OFFCURVE",
"119 841 CURVE SMOOTH",
"46 768 OFFCURVE",
"0 666 OFFCURVE",
"0 555 CURVE SMOOTH",
"0 443 OFFCURVE",
"46 341 OFFCURVE",
"119 268 CURVE SMOOTH",
"192 195 OFFCURVE",
"294 149 OFFCURVE",
"405 149 CURVE SMOOTH",
"489 149 OFFCURVE",
"567 175 OFFCURVE",
"631 218 CURVE",
"913 -64 LINE",
"1024 47 LINE"
);
},
{
closed = 1;
nodes = (
"329 277 OFFCURVE",
"260 309 OFFCURVE",
"210 359 CURVE SMOOTH",
"160 409 OFFCURVE",
"128 478 OFFCURVE",
"128 555 CURVE SMOOTH",
"128 631 OFFCURVE",
"160 700 OFFCURVE",
"210 751 CURVE SMOOTH",
"260 802 OFFCURVE",
"329 832 OFFCURVE",
"405 832 CURVE SMOOTH",
"481 832 OFFCURVE",
"550 801 OFFCURVE",
"601 751 CURVE SMOOTH",
"652 701 OFFCURVE",
"683 631 OFFCURVE",
"683 555 CURVE SMOOTH",
"683 479 OFFCURVE",
"652 410 OFFCURVE",
"602 359 CURVE SMOOTH",
"552 308 OFFCURVE",
"482 277 OFFCURVE",
"405 277 CURVE SMOOTH"
);
}
);
width = 1024;
}
);
unicode = E9B2;
},
{
glyphname = uniE9B3;
layers = (
{
layerId = "5789BFD8-8569-4DE2-B3C5-6A0ED3E84C22";
name = Regular;
paths = (
{
closed = 1;
nodes = (
"758 353 LINE",
"793 413 OFFCURVE",
"812 480 OFFCURVE",
"812 555 CURVE SMOOTH",
"812 666 OFFCURVE",
"767 768 OFFCURVE",
"693 841 CURVE SMOOTH",
"619 914 OFFCURVE",
"518 960 OFFCURVE",
"405 960 CURVE SMOOTH",
"293 960 OFFCURVE",
"191 914 OFFCURVE",
"118 841 CURVE SMOOTH",
"45 768 OFFCURVE",
"0 666 OFFCURVE",
"0 555 CURVE SMOOTH",
"0 443 OFFCURVE",
"46 341 OFFCURVE",
"119 268 CURVE SMOOTH",
"192 195 OFFCURVE",
"294 149 OFFCURVE",
"405 149 CURVE SMOOTH",
"480 149 OFFCURVE",
"547 170 OFFCURVE",
"607 203 CURVE",
"872 -61 LINE",
"1023 90 LINE"
);
},
{
closed = 1;
nodes = (
"345 334 OFFCURVE",
"290 359 OFFCURVE",
"250 399 CURVE SMOOTH",
"210 438 OFFCURVE",
"185 494 OFFCURVE",
"185 555 CURVE SMOOTH",
"185 616 OFFCURVE",
"210 671 OFFCURVE",
"250 711 CURVE SMOOTH",
"290 751 OFFCURVE",
"345 775 OFFCURVE",
"405 775 CURVE SMOOTH",
"466 775 OFFCURVE",
"521 750 OFFCURVE",
"561 710 CURVE SMOOTH",
"601 670 OFFCURVE",
"626 615 OFFCURVE",
"626 555 CURVE SMOOTH",
"626 494 OFFCURVE",
"601 439 OFFCURVE",
"562 399 CURVE SMOOTH",
"522 359 OFFCURVE",
"466 334 OFFCURVE",
"405 334 CURVE SMOOTH"
);
}
);
width = 1024;
}
);
unicode = E9B3;
},
{
glyphname = uniE9B4;
layers = (
{
layerId = "5789BFD8-8569-4DE2-B3C5-6A0ED3E84C22";
name = Regular;
paths = (
{
closed = 1;
nodes = (
"1024 745 LINE",
"600 745 LINE",
"588 689 OFFCURVE",
"536 646 OFFCURVE",
"475 646 CURVE SMOOTH",
"414 646 OFFCURVE",
"362 689 OFFCURVE",
"350 745 CURVE",
"0 745 LINE",
"0 805 LINE",
"348 805 LINE",
"363 862 OFFCURVE",
"413 905 OFFCURVE",
"474 905 CURVE SMOOTH",
"534 905 OFFCURVE",
"586 862 OFFCURVE",
"599 805 CURVE",
"1024 805 LINE"
);
},
{
closed = 1;
nodes = (
"218 250 OFFCURVE",
"166 207 OFFCURVE",
"154 151 CURVE",
"0 151 LINE",
"0 91 LINE",
"152 91 LINE",
"165 34 OFFCURVE",
"216 -9 OFFCURVE",
"277 -9 CURVE SMOOTH",
"338 -9 OFFCURVE",
"390 34 OFFCURVE",
"402 91 CURVE",
"1024 91 LINE",
"1024 151 LINE",
"404 151 LINE",
"391 207 OFFCURVE",
"340 250 OFFCURVE",
"279 250 CURVE SMOOTH"
);
},
{
closed = 1;
nodes = (
"691 577 OFFCURVE",
"640 535 OFFCURVE",
"627 478 CURVE",
"0 478 LINE",
"0 418 LINE",
"627 418 LINE",
"640 361 OFFCURVE",
"691 319 OFFCURVE",
"752 319 CURVE SMOOTH",
"813 319 OFFCURVE",
"865 361 OFFCURVE",
"878 418 CURVE",
"1024 418 LINE",
"1024 478 LINE",
"879 478 LINE",
"864 535 OFFCURVE",
"813 577 OFFCURVE",
"752 577 CURVE SMOOTH"
);
}
);
width = 1024;
}
);
unicode = E9B4;
},
{
glyphname = uniE9B5;
layers = (
{
layerId = "5789BFD8-8569-4DE2-B3C5-6A0ED3E84C22";
name = Regular;
paths = (
{
closed = 1;
nodes = (
"866 -64 LINE",
"806 -64 LINE",
"806 88 LINE",
"750 103 OFFCURVE",
"707 152 OFFCURVE",
"707 213 CURVE SMOOTH",
"707 274 OFFCURVE",
"750 326 OFFCURVE",
"806 338 CURVE",
"806 960 LINE",
"866 960 LINE",
"866 340 LINE",
"923 327 OFFCURVE",
"966 276 OFFCURVE",
"966 215 CURVE SMOOTH",
"966 154 OFFCURVE",
"925 103 OFFCURVE",
"866 88 CURVE"
);
},
{
closed = 1;
nodes = (
"539 960 LINE",
"479 960 LINE",
"479 815 LINE",
"423 800 OFFCURVE",
"380 751 OFFCURVE",
"380 690 CURVE SMOOTH",
"380 629 OFFCURVE",
"423 577 OFFCURVE",
"479 565 CURVE",
"479 -64 LINE",
"539 -64 LINE",
"539 563 LINE",
"596 576 OFFCURVE",
"639 627 OFFCURVE",
"639 688 CURVE SMOOTH",
"639 749 OFFCURVE",
"598 800 OFFCURVE",
"539 815 CURVE"
);
},
{
closed = 1;
nodes = (
"212 960 LINE",
"152 960 LINE",
"152 536 LINE",
"96 523 OFFCURVE",
"53 472 OFFCURVE",
"53 411 CURVE SMOOTH",
"53 350 OFFCURVE",
"96 298 OFFCURVE",
"152 286 CURVE",
"152 -64 LINE",
"212 -64 LINE",
"212 284 LINE",
"269 297 OFFCURVE",
"311 349 OFFCURVE",
"311 410 CURVE SMOOTH",
"311 473 OFFCURVE",
"271 524 OFFCURVE",
"212 536 CURVE"
);
}
);
width = 1024;
}
);
unicode = E9B5;
},
{
glyphname = uniE9B6;
layers = (
{
layerId = "5789BFD8-8569-4DE2-B3C5-6A0ED3E84C22";
name = Regular;
paths = (
{
closed = 1;
nodes = (
"926 512 OFFCURVE",
"965 562 OFFCURVE",
"1024 597 CURVE",
"1015 633 OFFCURVE",
"1000 667 OFFCURVE",
"981 700 CURVE",
"914 683 OFFCURVE",
"861 709 OFFCURVE",
"816 754 CURVE SMOOTH",
"771 799 OFFCURVE",
"758 854 OFFCURVE",
"775 919 CURVE",
"743 936 OFFCURVE",
"708 950 OFFCURVE",
"673 961 CURVE",
"638 901 OFFCURVE",
"576 862 OFFCURVE",
"512 862 CURVE SMOOTH",
"448 862 OFFCURVE",
"386 901 OFFCURVE",
"351 960 CURVE",
"316 951 OFFCURVE",
"281 936 OFFCURVE",
"249 917 CURVE",
"266 850 OFFCURVE",
"252 797 OFFCURVE",
"208 752 CURVE SMOOTH",
"163 707 OFFCURVE",
"108 682 OFFCURVE",
"43 698 CURVE",
"26 666 OFFCURVE",
"12 632 OFFCURVE",
"0 596 CURVE",
"60 561 OFFCURVE",
"98 511 OFFCURVE",
"98 447 CURVE SMOOTH",
"98 383 OFFCURVE",
"60 322 OFFCURVE",
"0 287 CURVE",
"9 252 OFFCURVE",
"24 217 OFFCURVE",
"43 185 CURVE",
"110 202 OFFCURVE",
"163 188 OFFCURVE",
"208 144 CURVE SMOOTH",
"253 99 OFFCURVE",
"266 44 OFFCURVE",
"249 -21 CURVE",
"281 -38 OFFCURVE",
"316 -52 OFFCURVE",
"351 -64 CURVE",
"386 -4 OFFCURVE",
"448 34 OFFCURVE",
"512 34 CURVE SMOOTH",
"576 34 OFFCURVE",
"638 -5 OFFCURVE",
"673 -64 CURVE",
"708 -55 OFFCURVE",
"743 -40 OFFCURVE",
"775 -21 CURVE",
"758 46 OFFCURVE",
"771 99 OFFCURVE",
"816 144 CURVE SMOOTH",
"861 189 OFFCURVE",
"916 214 OFFCURVE",
"981 198 CURVE",
"998 230 OFFCURVE",
"1012 264 OFFCURVE",
"1024 300 CURVE",
"964 335 OFFCURVE",
"926 384 OFFCURVE",
"926 448 CURVE SMOOTH"
);
},
{
closed = 1;
nodes = (
"451 225 OFFCURVE",
"395 250 OFFCURVE",
"355 290 CURVE SMOOTH",
"314 330 OFFCURVE",
"289 387 OFFCURVE",
"289 448 CURVE SMOOTH",
"289 509 OFFCURVE",
"314 565 OFFCURVE",
"354 606 CURVE SMOOTH",
"394 646 OFFCURVE",
"451 671 OFFCURVE",
"512 671 CURVE SMOOTH",
"573 671 OFFCURVE",
"629 646 OFFCURVE",
"670 606 CURVE SMOOTH",
"710 566 OFFCURVE",
"735 509 OFFCURVE",
"735 448 CURVE SMOOTH",
"735 387 OFFCURVE",
"710 331 OFFCURVE",
"670 291 CURVE SMOOTH",
"629 250 OFFCURVE",
"573 225 OFFCURVE",
"512 225 CURVE SMOOTH"
);
}
);
width = 1024;
}
);
unicode = E9B6;
},
{
glyphname = uniE9B7;
layers = (
{
layerId = "5789BFD8-8569-4DE2-B3C5-6A0ED3E84C22";
name = Regular;
paths = (
{
closed = 1;
nodes = (
"622 50 LINE",
"119 50 LINE",
"119 850 LINE",
"622 850 LINE",
"622 707 LINE",
"735 707 LINE",
"735 850 LINE SMOOTH",
"735 913 OFFCURVE",
"683 964 OFFCURVE",
"622 964 CURVE SMOOTH",
"121 964 LINE SMOOTH",
"58 964 OFFCURVE",
"7 913 OFFCURVE",
"7 850 CURVE SMOOTH",
"7 50 LINE SMOOTH",
"7 -13 OFFCURVE",
"58 -64 OFFCURVE",
"121 -64 CURVE SMOOTH",
"622 -64 LINE SMOOTH",
"683 -64 OFFCURVE",
"735 -13 OFFCURVE",
"735 50 CURVE SMOOTH",
"735 192 LINE",
"622 192 LINE"
);
},
{
closed = 1;
nodes = (
"808 674 LINE",
"808 538 LINE",
"293 538 LINE",
"293 366 LINE",
"808 366 LINE",
"808 229 LINE",
"1035 451 LINE"
);
}
);
width = 1024;
}
);
unicode = E9B7;
},
{
glyphname = uniE9B8;
layers = (
{
layerId = "5789BFD8-8569-4DE2-B3C5-6A0ED3E84C22";
name = Regular;
paths = (
{
closed = 1;
nodes = (
"360 960 LINE SMOOTH",
"297 960 OFFCURVE",
"247 909 OFFCURVE",
"247 846 CURVE SMOOTH",
"247 704 LINE",
"360 704 LINE",
"360 846 LINE",
"914 846 LINE",
"914 50 LINE",
"360 50 LINE",
"360 192 LINE",
"247 192 LINE",
"247 50 LINE SMOOTH",
"247 -13 OFFCURVE",
"297 -64 OFFCURVE",
"360 -64 CURVE SMOOTH",
"914 -64 LINE SMOOTH",
"977 -64 OFFCURVE",
"1028 -13 OFFCURVE",
"1028 50 CURVE SMOOTH",
"1028 846 LINE SMOOTH",
"1028 909 OFFCURVE",
"977 960 OFFCURVE",
"914 960 CURVE SMOOTH"
);
},
{
closed = 1;
nodes = (
"744 448 LINE",
"516 670 LINE",
"516 533 LINE",
"4 533 LINE",
"4 363 LINE",
"516 363 LINE",
"516 226 LINE"
);
}
);
width = 1024;
}
);
unicode = E9B8;
},
{
glyphname = uniE9B9;
layers = (
{
layerId = "5789BFD8-8569-4DE2-B3C5-6A0ED3E84C22";
name = Regular;
paths = (
{
closed = 1;
nodes = (
"882 168 OFFCURVE",
"864 177 OFFCURVE",
"845 188 CURVE SMOOTH",
"806 211 OFFCURVE",
"760 236 OFFCURVE",
"702 258 CURVE SMOOTH",
"673 269 OFFCURVE",
"641 277 OFFCURVE",
"607 283 CURVE",
"642 320 OFFCURVE",
"668 379 OFFCURVE",
"695 448 CURVE SMOOTH",
"711 488 OFFCURVE",
"708 522 OFFCURVE",
"708 570 CURVE SMOOTH",
"708 588 OFFCURVE",
"709 610 OFFCURVE",
"711 635 CURVE",
"712 660 OFFCURVE",
"710 680 OFFCURVE",
"705 695 CURVE",
"676 802 OFFCURVE",
"600 832 OFFCURVE",
"511 832 CURVE SMOOTH",
"422 832 OFFCURVE",
"345 802 OFFCURVE",
"316 695 CURVE",
"311 680 OFFCURVE",
"310 660 OFFCURVE",
"312 635 CURVE",
"313 610 OFFCURVE",
"314 589 OFFCURVE",
"314 570 CURVE SMOOTH",
"314 522 OFFCURVE",
"311 488 OFFCURVE",
"327 448 CURVE SMOOTH",
"354 379 OFFCURVE",
"380 320 OFFCURVE",
"415 283 CURVE",
"348 271 OFFCURVE",
"291 247 OFFCURVE",
"244 223 CURVE SMOOTH",
"220 211 OFFCURVE",
"199 199 OFFCURVE",
"180 188 CURVE SMOOTH",
"161 177 OFFCURVE",
"143 168 OFFCURVE",
"128 161 CURVE SMOOTH",
"65 132 OFFCURVE",
"28 105 OFFCURVE",
"17 80 CURVE SMOOTH",
"6 54 OFFCURVE",
"0 41 OFFCURVE",
"0 41 CURVE",
"0 -64 LINE",
"1024 -64 LINE",
"1024 41 LINE",
"1025 41 OFFCURVE",
"1021 54 OFFCURVE",
"1010 80 CURVE SMOOTH",
"999 105 OFFCURVE",
"961 132 OFFCURVE",
"897 161 CURVE SMOOTH"
);
}
);
width = 1024;
}
);
unicode = E9B9;
},
{
glyphname = uniE9BA;
layers = (
{
layerId = "5789BFD8-8569-4DE2-B3C5-6A0ED3E84C22";
name = Regular;
paths = (
{
closed = 1;
nodes = (
"243 137 LINE",
"6 137 LINE",
"6 191 LINE",
"6 191 OFFCURVE",
"9 197 OFFCURVE",
"14 210 CURVE SMOOTH",
"19 223 OFFCURVE",
"38 237 OFFCURVE",
"71 252 CURVE SMOOTH",
"87 259 OFFCURVE",
"107 269 OFFCURVE",
"131 284 CURVE SMOOTH",
"155 298 OFFCURVE",
"184 308 OFFCURVE",
"219 314 CURVE",
"200 333 OFFCURVE",
"187 363 OFFCURVE",
"174 400 CURVE",
"165 420 OFFCURVE",
"166 438 OFFCURVE",
"166 462 CURVE SMOOTH",
"166 471 OFFCURVE",
"166 482 OFFCURVE",
"166 495 CURVE",
"165 508 OFFCURVE",
"166 518 OFFCURVE",
"168 526 CURVE SMOOTH",
"184 582 OFFCURVE",
"222 596 OFFCURVE",
"267 596 CURVE SMOOTH",
"314 596 OFFCURVE",
"352 581 OFFCURVE",
"367 526 CURVE SMOOTH",
"369 518 OFFCURVE",
"370 508 OFFCURVE",
"369 495 CURVE SMOOTH",
"368 482 OFFCURVE",
"368 471 OFFCURVE",
"368 462 CURVE SMOOTH",
"368 449 OFFCURVE",
"368 438 OFFCURVE",
"368 429 CURVE SMOOTH",
"368 420 OFFCURVE",
"366 410 OFFCURVE",
"361 400 CURVE",
"350 369 OFFCURVE",
"339 345 OFFCURVE",
"324 326 CURVE",
"287 302 OFFCURVE",
"265 279 OFFCURVE",
"256 257 CURVE SMOOTH",
"247 234 OFFCURVE",
"243 219 OFFCURVE",
"243 210 CURVE",
"243 210 LINE",
"243 210 LINE"
);
},
{
closed = 1;
nodes = (
"911 306 OFFCURVE",
"884 321 OFFCURVE",
"851 341 CURVE SMOOTH",
"818 360 OFFCURVE",
"777 374 OFFCURVE",
"728 383 CURVE",
"752 410 OFFCURVE",
"771 450 OFFCURVE",
"791 499 CURVE",
"796 514 OFFCURVE",
"799 528 OFFCURVE",
"799 541 CURVE SMOOTH",
"799 554 OFFCURVE",
"799 569 OFFCURVE",
"799 586 CURVE SMOOTH",
"799 599 OFFCURVE",
"800 614 OFFCURVE",
"801 631 CURVE SMOOTH",
"802 648 OFFCURVE",
"801 663 OFFCURVE",
"798 674 CURVE SMOOTH",
"777 750 OFFCURVE",
"723 771 OFFCURVE",
"660 771 CURVE SMOOTH",
"597 771 OFFCURVE",
"543 750 OFFCURVE",
"522 674 CURVE SMOOTH",
"519 663 OFFCURVE",
"519 648 OFFCURVE",
"520 631 CURVE SMOOTH",
"521 614 OFFCURVE",
"521 599 OFFCURVE",
"521 586 CURVE SMOOTH",
"521 551 OFFCURVE",
"519 528 OFFCURVE",
"530 499 CURVE SMOOTH",
"550 451 OFFCURVE",
"568 410 OFFCURVE",
"593 383 CURVE",
"546 374 OFFCURVE",
"506 360 OFFCURVE",
"473 341 CURVE SMOOTH",
"440 321 OFFCURVE",
"412 306 OFFCURVE",
"390 296 CURVE SMOOTH",
"345 276 OFFCURVE",
"318 257 OFFCURVE",
"311 239 CURVE",
"303 221 OFFCURVE",
"299 212 OFFCURVE",
"299 212 CURVE",
"299 138 LINE",
"1024 138 LINE",
"1024 212 LINE",
"1024 211 OFFCURVE",
"1020 220 OFFCURVE",
"1013 238 CURVE",
"1005 256 OFFCURVE",
"978 275 OFFCURVE",
"933 296 CURVE SMOOTH"
);
}
);
width = 1024;
}
);
unicode = E9BA;
},
{
glyphname = uniE9BB;
layers = (
{
layerId = "5789BFD8-8569-4DE2-B3C5-6A0ED3E84C22";
name = Regular;
paths = (
{
closed = 1;
nodes = (
"795 681 LINE SMOOTH",
"795 758 OFFCURVE",
"764 827 OFFCURVE",
"713 878 CURVE SMOOTH",
"662 929 OFFCURVE",
"593 960 OFFCURVE",
"516 960 CURVE SMOOTH",
"515 960 OFFCURVE",
"515 960 OFFCURVE",
"514 960 CURVE SMOOTH",
"513 960 OFFCURVE",
"512 960 OFFCURVE",
"511 960 CURVE SMOOTH",
"510 960 OFFCURVE",
"510 960 OFFCURVE",
"509 960 CURVE SMOOTH",
"508 960 OFFCURVE",
"506 960 OFFCURVE",
"505 960 CURVE SMOOTH",
"428 960 OFFCURVE",
"359 929 OFFCURVE",
"308 878 CURVE SMOOTH",
"257 827 OFFCURVE",
"226 758 OFFCURVE",
"226 681 CURVE SMOOTH",
"226 513 LINE",
"128 513 LINE",
"128 -64 LINE",
"896 -64 LINE",
"896 513 LINE",
"795 513 LINE"
);
},
{
closed = 1;
nodes = (
"366 758 OFFCURVE",
"428 821 OFFCURVE",
"505 821 CURVE SMOOTH",
"506 821 OFFCURVE",
"508 821 OFFCURVE",
"510 821 CURVE SMOOTH",
"511 821 OFFCURVE",
"512 821 OFFCURVE",
"512 821 CURVE SMOOTH",
"512 821 OFFCURVE",
"513 821 OFFCURVE",
"514 821 CURVE SMOOTH",
"515 821 OFFCURVE",
"515 821 OFFCURVE",
"515 821 CURVE",
"591 821 OFFCURVE",
"654 758 OFFCURVE",
"654 681 CURVE SMOOTH",
"654 513 LINE",
"366 513 LINE",
"366 681 LINE SMOOTH"
);
}
);
width = 1024;
}
);
unicode = E9BB;
},
{
glyphname = uniE9BC;
layers = (
{
layerId = "5789BFD8-8569-4DE2-B3C5-6A0ED3E84C22";
name = Regular;
paths = (
{
closed = 1;
nodes = (
"795 513 LINE",
"795 681 LINE SMOOTH",
"795 758 OFFCURVE",
"764 827 OFFCURVE",
"713 878 CURVE SMOOTH",
"662 929 OFFCURVE",
"593 960 OFFCURVE",
"516 960 CURVE SMOOTH",
"515 960 OFFCURVE",
"515 960 OFFCURVE",
"514 960 CURVE SMOOTH",
"513 960 OFFCURVE",
"512 960 OFFCURVE",
"511 960 CURVE SMOOTH",
"510 960 OFFCURVE",
"510 960 OFFCURVE",
"509 960 CURVE SMOOTH",
"508 960 OFFCURVE",
"506 960 OFFCURVE",
"505 960 CURVE SMOOTH",
"428 960 OFFCURVE",
"359 929 OFFCURVE",
"309 878 CURVE SMOOTH",
"259 827 OFFCURVE",
"228 758 OFFCURVE",
"228 681 CURVE SMOOTH",
"228 667 LINE",
"367 667 LINE",
"367 681 LINE SMOOTH",
"367 758 OFFCURVE",
"430 821 OFFCURVE",
"506 821 CURVE SMOOTH",
"507 821 OFFCURVE",
"509 821 OFFCURVE",
"511 821 CURVE SMOOTH",
"512 821 OFFCURVE",
"513 821 OFFCURVE",
"513 821 CURVE SMOOTH",
"513 821 OFFCURVE",
"514 821 OFFCURVE",
"515 821 CURVE SMOOTH",
"516 821 OFFCURVE",
"516 821 OFFCURVE",
"516 821 CURVE",
"593 821 OFFCURVE",
"656 758 OFFCURVE",
"656 681 CURVE SMOOTH",
"656 513 LINE",
"128 513 LINE",
"128 -64 LINE",
"896 -64 LINE",
"896 513 LINE"
);
}
);
width = 1024;
}
);
unicode = E9BC;
},
{
glyphname = uniE9BD;
layers = (
{
layerId = "5789BFD8-8569-4DE2-B3C5-6A0ED3E84C22";
name = Regular;
paths = (
{
closed = 1;
nodes = (
"902 744 LINE",
"894 753 OFFCURVE",
"879 762 OFFCURVE",
"868 762 CURVE SMOOTH",
"778 762 LINE",
"778 841 LINE SMOOTH",
"778 853 OFFCURVE",
"771 869 OFFCURVE",
"762 878 CURVE SMOOTH",
"697 943 LINE",
"688 951 OFFCURVE",
"671 959 OFFCURVE",
"660 959 CURVE SMOOTH",
"390 959 LINE SMOOTH",
"377 959 OFFCURVE",
"361 951 OFFCURVE",
"353 943 CURVE SMOOTH",
"292 882 LINE SMOOTH",
"283 873 OFFCURVE",
"276 856 OFFCURVE",
"276 845 CURVE SMOOTH",
"276 762 LINE",
"182 762 LINE SMOOTH",
"169 762 OFFCURVE",
"155 753 OFFCURVE",
"148 744 CURVE",
"110 687 LINE",
"102 676 OFFCURVE",
"107 668 OFFCURVE",
"119 668 CURVE SMOOTH",
"185 668 LINE",
"242 -43 LINE",
"242 -54 OFFCURVE",
"252 -64 OFFCURVE",
"263 -64 CURVE SMOOTH",
"792 -64 LINE SMOOTH",
"805 -64 OFFCURVE",
"814 -54 OFFCURVE",
"814 -43 CURVE",
"870 668 LINE",
"930 668 LINE SMOOTH",
"943 668 OFFCURVE",
"947 676 OFFCURVE",
"940 687 CURVE SMOOTH"
);
},
{
closed = 1;
nodes = (
"367 806 LINE SMOOTH",
"367 818 OFFCURVE",
"374 835 OFFCURVE",
"383 843 CURVE",
"390 850 LINE",
"398 861 OFFCURVE",
"415 868 OFFCURVE",
"427 868 CURVE SMOOTH",
"622 868 LINE SMOOTH",
"634 868 OFFCURVE",
"650 860 OFFCURVE",
"658 852 CURVE",
"670 841 LINE",
"678 832 OFFCURVE",
"686 815 OFFCURVE",
"686 804 CURVE SMOOTH",
"686 768 LINE SMOOTH",
"686 767 OFFCURVE",
"686 767 OFFCURVE",
"686 766 CURVE SMOOTH",
"686 765 OFFCURVE",
"686 765 OFFCURVE",
"686 764 CURVE",
"367 764 LINE SMOOTH",
"367 764 OFFCURVE",
"367 764 OFFCURVE",
"367 765 CURVE SMOOTH",
"367 766 OFFCURVE",
"367 766 OFFCURVE",
"367 767 CURVE SMOOTH"
);
},
{
closed = 1;
nodes = (
"722 50 LINE",
"722 38 OFFCURVE",
"713 28 OFFCURVE",
"701 28 CURVE SMOOTH",
"354 28 LINE SMOOTH",
"342 28 OFFCURVE",
"333 38 OFFCURVE",
"333 50 CURVE",
"276 647 LINE",
"276 659 OFFCURVE",
"286 668 OFFCURVE",
"297 668 CURVE SMOOTH",
"759 668 LINE",
"771 667 OFFCURVE",
"779 659 OFFCURVE",
"779 647 CURVE"
);
},
{
closed = 1;
nodes = (
"405 585 LINE SMOOTH",
"405 596 OFFCURVE",
"415 606 OFFCURVE",
"427 606 CURVE SMOOTH",
"454 606 LINE SMOOTH",
"466 606 OFFCURVE",
"475 596 OFFCURVE",
"475 585 CURVE SMOOTH",
"475 110 LINE SMOOTH",
"475 98 OFFCURVE",
"465 88 OFFCURVE",
"454 88 CURVE SMOOTH",
"427 88 LINE SMOOTH",
"415 88 OFFCURVE",
"405 97 OFFCURVE",
"405 110 CURVE SMOOTH"
);
},
{
closed = 1;
nodes = (
"586 585 LINE SMOOTH",
"586 596 OFFCURVE",
"596 606 OFFCURVE",
"607 606 CURVE SMOOTH",
"634 606 LINE SMOOTH",
"647 606 OFFCURVE",
"656 596 OFFCURVE",
"656 585 CURVE SMOOTH",
"656 110 LINE SMOOTH",
"656 98 OFFCURVE",
"646 88 OFFCURVE",
"634 88 CURVE SMOOTH",
"607 88 LINE SMOOTH",
"596 88 OFFCURVE",
"586 97 OFFCURVE",
"586 110 CURVE SMOOTH"
);
}
);
width = 1024;
}
);
unicode = E9BD;
},
{
glyphname = uniE9BE;
layers = (
{
layerId = "5789BFD8-8569-4DE2-B3C5-6A0ED3E84C22";
name = Regular;
paths = (
{
closed = 1;
nodes = (
"889 744 LINE",
"882 753 OFFCURVE",
"866 762 OFFCURVE",
"855 762 CURVE SMOOTH",
"765 762 LINE",
"765 841 LINE SMOOTH",
"765 853 OFFCURVE",
"758 869 OFFCURVE",
"750 878 CURVE",
"684 943 LINE SMOOTH",
"676 951 OFFCURVE",
"659 959 OFFCURVE",
"647 959 CURVE SMOOTH",
"377 959 LINE SMOOTH",
"364 959 OFFCURVE",
"348 951 OFFCURVE",
"340 943 CURVE SMOOTH",
"279 882 LINE",
"270 874 OFFCURVE",
"263 857 OFFCURVE",
"263 845 CURVE SMOOTH",
"263 762 LINE",
"169 762 LINE SMOOTH",
"157 762 OFFCURVE",
"142 753 OFFCURVE",
"135 744 CURVE",
"97 687 LINE",
"89 676 OFFCURVE",
"94 668 OFFCURVE",
"107 668 CURVE SMOOTH",
"172 668 LINE",
"229 -43 LINE",
"229 -54 OFFCURVE",
"239 -64 OFFCURVE",
"250 -64 CURVE SMOOTH",
"779 -64 LINE SMOOTH",
"792 -64 OFFCURVE",
"801 -54 OFFCURVE",
"801 -43 CURVE",
"858 668 LINE",
"917 668 LINE SMOOTH",
"930 668 OFFCURVE",
"935 676 OFFCURVE",
"927 687 CURVE"
);
},
{
closed = 1;
nodes = (
"462 110 LINE SMOOTH",
"462 98 OFFCURVE",
"452 88 OFFCURVE",
"441 88 CURVE SMOOTH",
"414 88 LINE SMOOTH",
"401 88 OFFCURVE",
"393 98 OFFCURVE",
"393 110 CURVE SMOOTH",
"393 585 LINE SMOOTH",
"393 596 OFFCURVE",
"402 606 OFFCURVE",
"414 606 CURVE SMOOTH",
"441 606 LINE SMOOTH",
"453 606 OFFCURVE",
"462 596 OFFCURVE",
"462 585 CURVE SMOOTH"
);
},
{
closed = 1;
nodes = (
"644 110 LINE SMOOTH",
"644 98 OFFCURVE",
"634 88 OFFCURVE",
"623 88 CURVE SMOOTH",
"596 88 LINE SMOOTH",
"583 88 OFFCURVE",
"575 98 OFFCURVE",
"575 110 CURVE SMOOTH",
"575 585 LINE SMOOTH",
"575 596 OFFCURVE",
"584 606 OFFCURVE",
"596 606 CURVE SMOOTH",
"623 606 LINE SMOOTH",
"636 606 OFFCURVE",
"644 596 OFFCURVE",
"644 585 CURVE SMOOTH"
);
},
{
closed = 1;
nodes = (
"674 767 LINE",
"674 766 OFFCURVE",
"674 766 OFFCURVE",
"674 765 CURVE SMOOTH",
"674 764 OFFCURVE",
"674 763 OFFCURVE",
"674 762 CURVE",
"354 762 LINE",
"354 763 OFFCURVE",
"354 764 OFFCURVE",
"354 765 CURVE SMOOTH",
"354 766 OFFCURVE",
"354 766 OFFCURVE",
"354 767 CURVE SMOOTH",
"354 806 LINE SMOOTH",
"354 818 OFFCURVE",
"361 835 OFFCURVE",
"370 843 CURVE",
"377 850 LINE",
"385 859 OFFCURVE",
"402 866 OFFCURVE",
"414 866 CURVE SMOOTH",
"609 866 LINE SMOOTH",
"621 866 OFFCURVE",
"637 859 OFFCURVE",
"646 850 CURVE SMOOTH",
"657 839 LINE SMOOTH",
"665 831 OFFCURVE",
"673 814 OFFCURVE",
"673 802 CURVE SMOOTH",
"673 767 LINE"
);
}
);
width = 1024;
}
);
unicode = E9BE;
},
{
glyphname = uniE9BF;
layers = (
{
layerId = "5789BFD8-8569-4DE2-B3C5-6A0ED3E84C22";
name = Regular;
paths = (
{
closed = 1;
nodes = (
"393 -16 OFFCURVE",
"342 -67 OFFCURVE",
"279 -67 CURVE SMOOTH",
"216 -67 OFFCURVE",
"165 -16 OFFCURVE",
"165 47 CURVE SMOOTH",
"165 110 OFFCURVE",
"216 161 OFFCURVE",
"279 161 CURVE SMOOTH",
"342 161 OFFCURVE",
"393 110 OFFCURVE",
"393 47 CURVE SMOOTH"
);
},
{
closed = 1;
nodes = (
"961 -16 OFFCURVE",
"911 -67 OFFCURVE",
"848 -67 CURVE SMOOTH",
"785 -67 OFFCURVE",
"734 -16 OFFCURVE",
"734 47 CURVE SMOOTH",
"734 110 OFFCURVE",
"785 161 OFFCURVE",
"848 161 CURVE SMOOTH",
"911 161 OFFCURVE",
"961 110 OFFCURVE",
"961 47 CURVE SMOOTH"
);
},
{
closed = 1;
nodes = (
"997 496 LINE SMOOTH",
"1009 499 OFFCURVE",
"1018 513 OFFCURVE",
"1018 525 CURVE SMOOTH",
"1018 838 LINE",
"216 838 LINE",
"216 934 LINE SMOOTH",
"216 947 OFFCURVE",
"206 957 OFFCURVE",
"193 957 CURVE SMOOTH",
"17 957 LINE SMOOTH",
"4 957 OFFCURVE",
"-6 946 OFFCURVE",
"-6 934 CURVE SMOOTH",
"-6 843 LINE",
"105 843 LINE",
"218 329 LINE",
"229 274 LINE",
"229 189 LINE SMOOTH",
"229 177 OFFCURVE",
"239 166 OFFCURVE",
"252 166 CURVE SMOOTH",
"996 166 LINE SMOOTH",
"1008 166 OFFCURVE",
"1018 177 OFFCURVE",
"1018 189 CURVE SMOOTH",
"1018 274 LINE",
"378 274 LINE SMOOTH",
"313 274 OFFCURVE",
"311 300 OFFCURVE",
"367 316 CURVE SMOOTH"
);
}
);
width = 1024;
}
);
unicode = E9BF;
},
{
glyphname = uniE9C0;
layers = (
{
layerId = "5789BFD8-8569-4DE2-B3C5-6A0ED3E84C22";
name = Regular;
paths = (
{
closed = 1;
nodes = (
"545 94 OFFCURVE",
"508 57 OFFCURVE",
"461 57 CURVE SMOOTH",
"414 57 OFFCURVE",
"377 94 OFFCURVE",
"377 141 CURVE SMOOTH",
"377 188 OFFCURVE",
"414 225 OFFCURVE",
"461 225 CURVE SMOOTH",
"508 225 OFFCURVE",
"545 188 OFFCURVE",
"545 141 CURVE SMOOTH"
);
},
{
closed = 1;
nodes = (
"729 225 OFFCURVE",
"693 188 OFFCURVE",
"693 141 CURVE SMOOTH",
"693 94 OFFCURVE",
"729 57 OFFCURVE",
"777 57 CURVE SMOOTH",
"824 57 OFFCURVE",
"860 94 OFFCURVE",
"860 141 CURVE SMOOTH",
"860 188 OFFCURVE",
"824 225 OFFCURVE",
"777 225 CURVE SMOOTH"
);
},
{
closed = 1;
nodes = (
"1009 706 OFFCURVE",
"1020 690 OFFCURVE",
"1020 671 CURVE SMOOTH",
"1020 667 OFFCURVE",
"1019 663 OFFCURVE",
"1018 660 CURVE SMOOTH",
"910 302 LINE SMOOTH",
"905 285 OFFCURVE",
"889 272 OFFCURVE",
"870 272 CURVE SMOOTH",
"361 272 LINE SMOOTH",
"342 272 OFFCURVE",
"326 284 OFFCURVE",
"321 303 CURVE SMOOTH",
"223 701 LINE",
"41 701 LINE SMOOTH",
"18 701 OFFCURVE",
"0 719 OFFCURVE",
"0 742 CURVE SMOOTH",
"0 765 OFFCURVE",
"18 784 OFFCURVE",
"41 784 CURVE SMOOTH",
"256 784 LINE SMOOTH",
"275 784 OFFCURVE",
"292 771 OFFCURVE",
"296 752 CURVE SMOOTH",
"317 663 LINE",
"932 663 LINE",
"937 681 LINE",
"944 700 OFFCURVE",
"958 711 OFFCURVE",
"977 711 CURVE",
"979 712 OFFCURVE",
"981 712 OFFCURVE",
"984 712 CURVE SMOOTH",
"986 712 OFFCURVE",
"988 712 OFFCURVE",
"990 711 CURVE"
);
},
{
closed = 1;
nodes = (
"338 582 LINE",
"394 356 LINE",
"839 356 LINE",
"842 364 LINE",
"907 582 LINE"
);
}
);
width = 1024;
}
);
unicode = E9C0;
},
{
glyphname = uniE9C1;
layers = (
{
layerId = "5789BFD8-8569-4DE2-B3C5-6A0ED3E84C22";
name = Regular;
paths = (
{
closed = 1;
nodes = (
"777 957 LINE",
"118 299 LINE",
"0 -64 LINE",
"363 54 LINE",
"1021 713 LINE"
);
},
{
closed = 1;
nodes = (
"168 269 LINE",
"333 104 LINE",
"88 24 LINE"
);
}
);
width = 1024;
}
);
unicode = E9C1;
},
{
glyphname = uniE9C2;
layers = (
{
layerId = "5789BFD8-8569-4DE2-B3C5-6A0ED3E84C22";
name = Regular;
paths = (
{
closed = 1;
nodes = (
"775 601 OFFCURVE",
"784 615 OFFCURVE",
"804 639 CURVE SMOOTH",
"843 687 OFFCURVE",
"886 758 OFFCURVE",
"896 839 CURVE SMOOTH",
"901 880 OFFCURVE",
"888 919 OFFCURVE",
"858 957 CURVE SMOOTH",
"851 966 OFFCURVE",
"839 961 OFFCURVE",
"824 944 CURVE SMOOTH",
"808 927 OFFCURVE",
"789 903 OFFCURVE",
"766 874 CURVE SMOOTH",
"721 814 OFFCURVE",
"662 740 OFFCURVE",
"593 693 CURVE SMOOTH",
"574 680 OFFCURVE",
"550 664 OFFCURVE",
"521 645 CURVE SMOOTH",
"464 607 OFFCURVE",
"406 564 OFFCURVE",
"367 524 CURVE SMOOTH",
"348 504 OFFCURVE",
"338 486 OFFCURVE",
"338 471 CURVE SMOOTH",
"338 78 LINE SMOOTH",
"338 60 OFFCURVE",
"354 42 OFFCURVE",
"386 24 CURVE SMOOTH",
"449 -12 OFFCURVE",
"550 -41 OFFCURVE",
"667 -59 CURVE SMOOTH",
"725 -68 OFFCURVE",
"781 -73 OFFCURVE",
"835 -73 CURVE SMOOTH",
"854 -73 OFFCURVE",
"875 -47 OFFCURVE",
"898 6 CURVE SMOOTH",
"943 110 OFFCURVE",
"983 252 OFFCURVE",
"1008 376 CURVE SMOOTH",
"1021 437 OFFCURVE",
"1027 478 OFFCURVE",
"1027 498 CURVE SMOOTH",
"1027 538 OFFCURVE",
"967 557 OFFCURVE",
"905 569 CURVE SMOOTH",
"874 575 OFFCURVE",
"845 580 OFFCURVE",
"819 583 CURVE SMOOTH",
"792 586 OFFCURVE",
"778 591 OFFCURVE",
"777 596 CURVE"
);
},
{
closed = 1;
nodes = (
"0 569 LINE",
"252 569 LINE",
"252 -7 LINE",
"0 -7 LINE"
);
}
);
width = 1024;
}
);
unicode = E9C2;
},
{
glyphname = uniE9C3;
layers = (
{
layerId = "5789BFD8-8569-4DE2-B3C5-6A0ED3E84C22";
name = Regular;
paths = (
{
closed = 1;
nodes = (
"251 288 OFFCURVE",
"242 274 OFFCURVE",
"223 250 CURVE SMOOTH",
"183 202 OFFCURVE",
"141 131 OFFCURVE",
"131 50 CURVE SMOOTH",
"126 9 OFFCURVE",
"138 -30 OFFCURVE",
"169 -68 CURVE SMOOTH",
"176 -77 OFFCURVE",
"188 -73 OFFCURVE",
"203 -55 CURVE SMOOTH",
"218 -38 OFFCURVE",
"237 -14 OFFCURVE",
"260 16 CURVE SMOOTH",
"305 75 OFFCURVE",
"365 149 OFFCURVE",
"434 196 CURVE SMOOTH",
"473 221 OFFCURVE",
"536 262 OFFCURVE",
"590 304 CURVE SMOOTH",
"644 346 OFFCURVE",
"688 387 OFFCURVE",
"688 418 CURVE SMOOTH",
"688 811 LINE SMOOTH",
"688 829 OFFCURVE",
"672 847 OFFCURVE",
"641 865 CURVE SMOOTH",
"578 900 OFFCURVE",
"477 930 OFFCURVE",
"361 947 CURVE SMOOTH",
"302 956 OFFCURVE",
"246 960 OFFCURVE",
"192 960 CURVE SMOOTH",
"173 960 OFFCURVE",
"152 934 OFFCURVE",
"129 882 CURVE SMOOTH",
"84 778 OFFCURVE",
"44 637 OFFCURVE",
"19 513 CURVE SMOOTH",
"6 451 OFFCURVE",
"0 410 OFFCURVE",
"0 391 CURVE SMOOTH",
"0 352 OFFCURVE",
"61 333 OFFCURVE",
"122 321 CURVE SMOOTH",
"153 315 OFFCURVE",
"181 310 OFFCURVE",
"207 307 CURVE",
"233 303 OFFCURVE",
"247 298 OFFCURVE",
"249 293 CURVE SMOOTH"
);
},
{
closed = 1;
nodes = (
"1027 321 LINE",
"774 321 LINE",
"774 897 LINE",
"1025 897 LINE",
"1025 321 LINE"
);
}
);
width = 1024;
}
);
unicode = E9C3;
},
{
glyphname = uniE9C4;
lastChange = "2018-07-21 08:24:08 +0000";
layers = (
{
layerId = "5789BFD8-8569-4DE2-B3C5-6A0ED3E84C22";
name = Regular;
paths = (
{
closed = 1;
nodes = (
"1024 828 OFFCURVE",
"906 959 OFFCURVE",
"760 959 CURVE SMOOTH",
"646 959 OFFCURVE",
"549 878 OFFCURVE",
"512 765 CURVE",
"475 878 OFFCURVE",
"378 959 OFFCURVE",
"264 959 CURVE SMOOTH",
"118 959 OFFCURVE",
"0 828 OFFCURVE",
"0 666 CURVE SMOOTH",
"0 631 OFFCURVE",
"6 598 OFFCURVE",
"16 567 CURVE",
"16 567 LINE",
"54 438 OFFCURVE",
"144 199 OFFCURVE",
"511 -64 CURVE",
"877 199 OFFCURVE",
"970 438 OFFCURVE",
"1009 567 CURVE",
"1008 567 LINE",
"1018 598 OFFCURVE",
"1024 631 OFFCURVE",
"1024 666 CURVE SMOOTH"
);
}
);
width = 1024;
}
);
unicode = E9C4;
},
{
glyphname = uniE9C5;
layers = (
{
layerId = "5789BFD8-8569-4DE2-B3C5-6A0ED3E84C22";
name = Regular;
paths = (
{
closed = 1;
nodes = (
"814 887 OFFCURVE",
"862 863 OFFCURVE",
"898 823 CURVE SMOOTH",
"933 782 OFFCURVE",
"954 726 OFFCURVE",
"954 666 CURVE SMOOTH",
"954 639 OFFCURVE",
"950 613 OFFCURVE",
"942 589 CURVE",
"941 588 OFFCURVE",
"940 586 OFFCURVE",
"940 585 CURVE SMOOTH",
"940 583 OFFCURVE",
"940 581 OFFCURVE",
"939 579 CURVE",
"918 512 OFFCURVE",
"885 430 OFFCURVE",
"821 335 CURVE SMOOTH",
"756 240 OFFCURVE",
"659 135 OFFCURVE",
"511 23 CURVE",
"347 147 OFFCURVE",
"249 263 OFFCURVE",
"186 360 CURVE SMOOTH",
"123 457 OFFCURVE",
"98 534 OFFCURVE",
"85 579 CURVE",
"85 580 OFFCURVE",
"85 582 OFFCURVE",
"85 583 CURVE",
"84 584 OFFCURVE",
"84 586 OFFCURVE",
"84 587 CURVE",
"76 614 OFFCURVE",
"71 639 OFFCURVE",
"71 664 CURVE SMOOTH",
"71 725 OFFCURVE",
"93 781 OFFCURVE",
"128 821 CURVE SMOOTH",
"163 861 OFFCURVE",
"212 886 OFFCURVE",
"265 886 CURVE SMOOTH",
"344 886 OFFCURVE",
"417 828 OFFCURVE",
"445 741 CURVE",
"456 712 OFFCURVE",
"482 691 OFFCURVE",
"513 691 CURVE SMOOTH",
"545 691 OFFCURVE",
"571 712 OFFCURVE",
"582 741 CURVE",
"609 829 OFFCURVE",
"681 887 OFFCURVE",
"761 887 CURVE SMOOTH"
);
},
{
closed = 1;
nodes = (
"704 959 OFFCURVE",
"651 939 OFFCURVE",
"608 904 CURVE SMOOTH",
"564 869 OFFCURVE",
"531 821 OFFCURVE",
"512 765 CURVE",
"495 821 OFFCURVE",
"461 869 OFFCURVE",
"418 904 CURVE SMOOTH",
"374 939 OFFCURVE",
"321 959 OFFCURVE",
"265 959 CURVE SMOOTH",
"192 959 OFFCURVE",
"125 925 OFFCURVE",
"77 872 CURVE SMOOTH",
"29 819 OFFCURVE",
"0 745 OFFCURVE",
"0 664 CURVE SMOOTH",
"0 629 OFFCURVE",
"5 596 OFFCURVE",
"16 565 CURVE",
"16 565 LINE",
"35 501 OFFCURVE",
"67 409 OFFCURVE",
"140 300 CURVE SMOOTH",
"213 191 OFFCURVE",
"327 65 OFFCURVE",
"511 -67 CURVE",
"694 65 OFFCURVE",
"810 191 OFFCURVE",
"884 300 CURVE SMOOTH",
"958 409 OFFCURVE",
"990 501 OFFCURVE",
"1010 565 CURVE",
"1010 565 LINE",
"1019 596 OFFCURVE",
"1025 629 OFFCURVE",
"1025 664 CURVE SMOOTH",
"1025 745 OFFCURVE",
"996 819 OFFCURVE",
"948 872 CURVE SMOOTH",
"900 925 OFFCURVE",
"834 959 OFFCURVE",
"761 959 CURVE SMOOTH",
"761 959 LINE SMOOTH"
);
}
);
width = 1024;
}
);
unicode = E9C5;
},
{
glyphname = uniE9C6;
layers = (
{
layerId = "5789BFD8-8569-4DE2-B3C5-6A0ED3E84C22";
name = Regular;
paths = (
{
closed = 1;
nodes = (
"891 830 OFFCURVE",
"826 853 OFFCURVE",
"760 853 CURVE SMOOTH",
"694 853 OFFCURVE",
"628 830 OFFCURVE",
"579 785 CURVE SMOOTH",
"512 724 LINE",
"444 786 LINE SMOOTH",
"393 833 OFFCURVE",
"328 855 OFFCURVE",
"263 855 CURVE SMOOTH",
"198 855 OFFCURVE",
"133 833 OFFCURVE",
"82 786 CURVE SMOOTH",
"26 735 OFFCURVE",
"-2 668 OFFCURVE",
"-2 601 CURVE SMOOTH",
"-2 533 OFFCURVE",
"26 465 OFFCURVE",
"82 414 CURVE SMOOTH",
"512 20 LINE",
"940 414 LINE SMOOTH",
"996 465 OFFCURVE",
"1024 532 OFFCURVE",
"1024 600 CURVE SMOOTH",
"1024 667 OFFCURVE",
"996 734 OFFCURVE",
"940 785 CURVE SMOOTH"
);
}
);
width = 1024;
}
);
unicode = E9C6;
},
{
glyphname = uniE9C7;
layers = (
{
layerId = "5789BFD8-8569-4DE2-B3C5-6A0ED3E84C22";
name = Regular;
paths = (
{
closed = 1;
nodes = (
"891 830 OFFCURVE",
"826 853 OFFCURVE",
"760 853 CURVE SMOOTH",
"694 853 OFFCURVE",
"628 830 OFFCURVE",
"579 785 CURVE SMOOTH",
"512 724 LINE",
"444 786 LINE SMOOTH",
"393 833 OFFCURVE",
"328 855 OFFCURVE",
"263 855 CURVE SMOOTH",
"198 855 OFFCURVE",
"133 833 OFFCURVE",
"82 786 CURVE SMOOTH",
"26 735 OFFCURVE",
"-2 668 OFFCURVE",
"-2 601 CURVE SMOOTH",
"-2 533 OFFCURVE",
"26 465 OFFCURVE",
"82 414 CURVE SMOOTH",
"512 20 LINE",
"940 414 LINE SMOOTH",
"996 465 OFFCURVE",
"1024 532 OFFCURVE",
"1024 600 CURVE SMOOTH",
"1024 667 OFFCURVE",
"996 734 OFFCURVE",
"940 785 CURVE SMOOTH"
);
},
{
closed = 1;
nodes = (
"512 134 LINE",
"146 475 LINE SMOOTH",
"110 510 OFFCURVE",
"95 553 OFFCURVE",
"95 600 CURVE SMOOTH",
"95 647 OFFCURVE",
"104 685 OFFCURVE",
"141 720 CURVE SMOOTH",
"173 749 OFFCURVE",
"218 767 OFFCURVE",
"263 767 CURVE SMOOTH",
"310 767 OFFCURVE",
"354 739 OFFCURVE",
"387 708 CURVE",
"512 599 LINE",
"637 708 LINE",
"670 739 OFFCURVE",
"714 767 OFFCURVE",
"761 767 CURVE SMOOTH",
"808 767 OFFCURVE",
"852 749 OFFCURVE",
"885 720 CURVE",
"921 685 OFFCURVE",
"930 647 OFFCURVE",
"930 600 CURVE",
"927 552 OFFCURVE",
"913 507 OFFCURVE",
"876 474 CURVE SMOOTH"
);
}
);
width = 1024;
}
);
unicode = E9C7;
},
{
glyphname = uniE9C8;
layers = (
{
layerId = "5789BFD8-8569-4DE2-B3C5-6A0ED3E84C22";
name = Regular;
paths = (
{
closed = 1;
nodes = (
"708 340 LINE",
"1033 553 LINE",
"633 553 LINE",
"519 960 LINE",
"407 553 LINE",
"7 553 LINE",
"331 338 LINE",
"209 -64 LINE",
"521 202 LINE",
"846 -64 LINE"
);
}
);
width = 1024;
}
);
unicode = E9C8;
},
{
glyphname = uniE9C9;
layers = (
{
layerId = "5789BFD8-8569-4DE2-B3C5-6A0ED3E84C22";
name = Regular;
paths = (
{
closed = 1;
nodes = (
"1002 585 OFFCURVE",
"991 589 OFFCURVE",
"983 592 CURVE",
"978 593 OFFCURVE",
"974 594 OFFCURVE",
"970 594 CURVE SMOOTH",
"966 594 OFFCURVE",
"962 594 OFFCURVE",
"957 594 CURVE SMOOTH",
"670 594 LINE SMOOTH",
"667 594 OFFCURVE",
"661 596 OFFCURVE",
"656 600 CURVE",
"649 604 OFFCURVE",
"647 609 OFFCURVE",
"647 612 CURVE",
"563 910 LINE SMOOTH",
"560 921 OFFCURVE",
"557 929 OFFCURVE",
"552 937 CURVE",
"547 946 OFFCURVE",
"534 960 OFFCURVE",
"511 960 CURVE SMOOTH",
"488 960 OFFCURVE",
"476 946 OFFCURVE",
"469 937 CURVE",
"464 928 OFFCURVE",
"459 919 OFFCURVE",
"458 910 CURVE",
"374 612 LINE",
"374 608 OFFCURVE",
"370 603 OFFCURVE",
"366 600 CURVE",
"359 596 OFFCURVE",
"354 594 OFFCURVE",
"351 594 CURVE SMOOTH",
"64 594 LINE SMOOTH",
"52 594 OFFCURVE",
"42 593 OFFCURVE",
"30 589 CURVE",
"25 586 OFFCURVE",
"17 582 OFFCURVE",
"10 575 CURVE",
"3 567 OFFCURVE",
"-1 554 OFFCURVE",
"-1 545 CURVE SMOOTH",
"-1 528 OFFCURVE",
"6 518 OFFCURVE",
"11 511 CURVE",
"18 503 OFFCURVE",
"24 498 OFFCURVE",
"31 494 CURVE",
"263 341 LINE",
"267 340 OFFCURVE",
"274 327 OFFCURVE",
"274 319 CURVE SMOOTH",
"274 318 OFFCURVE",
"274 317 OFFCURVE",
"274 316 CURVE SMOOTH",
"274 315 OFFCURVE",
"274 314 OFFCURVE",
"274 313 CURVE",
"185 18 LINE",
"182 10 OFFCURVE",
"181 2 OFFCURVE",
"181 -9 CURVE SMOOTH",
"181 -17 OFFCURVE",
"182 -28 OFFCURVE",
"191 -40 CURVE",
"199 -52 OFFCURVE",
"217 -61 OFFCURVE",
"229 -60 CURVE",
"253 -59 OFFCURVE",
"263 -49 OFFCURVE",
"274 -40 CURVE SMOOTH",
"501 149 LINE",
"502 150 OFFCURVE",
"508 154 OFFCURVE",
"512 154 CURVE SMOOTH",
"517 154 OFFCURVE",
"522 152 OFFCURVE",
"523 151 CURVE",
"762 -44 LINE",
"768 -48 OFFCURVE",
"774 -52 OFFCURVE",
"780 -56 CURVE SMOOTH",
"786 -60 OFFCURVE",
"795 -62 OFFCURVE",
"806 -63 CURVE",
"806 -63 OFFCURVE",
"806 -63 OFFCURVE",
"807 -63 CURVE SMOOTH",
"808 -63 OFFCURVE",
"808 -63 OFFCURVE",
"808 -63 CURVE",
"819 -63 OFFCURVE",
"836 -55 OFFCURVE",
"845 -43 CURVE",
"853 -30 OFFCURVE",
"855 -20 OFFCURVE",
"855 -11 CURVE SMOOTH",
"855 0 OFFCURVE",
"852 9 OFFCURVE",
"849 17 CURVE SMOOTH",
"748 314 LINE",
"748 315 OFFCURVE",
"748 316 OFFCURVE",
"748 317 CURVE",
"747 318 OFFCURVE",
"747 319 OFFCURVE",
"747 320 CURVE SMOOTH",
"747 328 OFFCURVE",
"752 340 OFFCURVE",
"757 341 CURVE",
"988 491 LINE",
"996 495 OFFCURVE",
"1003 500 OFFCURVE",
"1008 508 CURVE",
"1015 515 OFFCURVE",
"1021 525 OFFCURVE",
"1021 542 CURVE SMOOTH",
"1021 553 OFFCURVE",
"1016 565 OFFCURVE",
"1011 573 CURVE"
);
}
);
width = 1024;
}
);
unicode = E9C9;
},
{
glyphname = uniE9CA;
layers = (
{
layerId = "5789BFD8-8569-4DE2-B3C5-6A0ED3E84C22";
name = Regular;
paths = (
{
closed = 1;
nodes = (
"216 368 OFFCURVE",
"216 402 OFFCURVE",
"216 437 CURVE SMOOTH",
"216 472 OFFCURVE",
"216 506 OFFCURVE",
"216 540 CURVE SMOOTH",
"216 572 OFFCURVE",
"217 602 OFFCURVE",
"228 631 CURVE",
"245 686 OFFCURVE",
"284 719 OFFCURVE",
"337 734 CURVE SMOOTH",
"352 738 OFFCURVE",
"366 740 OFFCURVE",
"381 741 CURVE SMOOTH",
"419 743 OFFCURVE",
"457 744 OFFCURVE",
"494 743 CURVE SMOOTH",
"531 742 OFFCURVE",
"568 742 OFFCURVE",
"606 742 CURVE SMOOTH",
"634 742 OFFCURVE",
"663 741 OFFCURVE",
"691 732 CURVE SMOOTH",
"750 715 OFFCURVE",
"785 676 OFFCURVE",
"798 616 CURVE",
"799 609 OFFCURVE",
"800 603 OFFCURVE",
"801 597 CURVE SMOOTH",
"802 590 OFFCURVE",
"803 584 OFFCURVE",
"804 577 CURVE",
"806 545 OFFCURVE",
"807 513 OFFCURVE",
"806 481 CURVE SMOOTH",
"805 449 OFFCURVE",
"805 417 OFFCURVE",
"806 385 CURVE SMOOTH",
"806 380 OFFCURVE",
"806 374 OFFCURVE",
"806 368 CURVE SMOOTH",
"806 361 OFFCURVE",
"806 355 OFFCURVE",
"806 350 CURVE",
"805 336 OFFCURVE",
"805 322 OFFCURVE",
"804 308 CURVE SMOOTH",
"803 293 OFFCURVE",
"801 279 OFFCURVE",
"796 265 CURVE",
"779 205 OFFCURVE",
"736 169 OFFCURVE",
"676 156 CURVE SMOOTH",
"659 152 OFFCURVE",
"642 151 OFFCURVE",
"623 151 CURVE SMOOTH",
"588 151 OFFCURVE",
"554 151 OFFCURVE",
"519 150 CURVE SMOOTH",
"484 149 OFFCURVE",
"449 149 OFFCURVE",
"415 149 CURVE SMOOTH",
"384 149 OFFCURVE",
"352 151 OFFCURVE",
"321 162 CURVE SMOOTH",
"270 181 OFFCURVE",
"238 218 OFFCURVE",
"225 270 CURVE SMOOTH",
"223 277 OFFCURVE",
"222 285 OFFCURVE",
"221 293 CURVE SMOOTH",
"220 300 OFFCURVE",
"219 307 OFFCURVE",
"218 314 CURVE",
"218 323 OFFCURVE",
"217 329 OFFCURVE",
"216 334 CURVE",
"217 334 OFFCURVE",
"217 334 OFFCURVE",
"217 334 CURVE SMOOTH",
"216 334 OFFCURVE",
"216 334 OFFCURVE",
"216 334 CURVE"
);
},
{
closed = 1;
nodes = (
"268 353 OFFCURVE",
"268 353 OFFCURVE",
"268 353 CURVE SMOOTH",
"268 353 OFFCURVE",
"268 353 OFFCURVE",
"267 353 CURVE",
"268 349 OFFCURVE",
"268 345 OFFCURVE",
"269 341 CURVE",
"269 337 OFFCURVE",
"269 333 OFFCURVE",
"270 330 CURVE",
"271 323 OFFCURVE",
"271 317 OFFCURVE",
"272 310 CURVE",
"272 303 OFFCURVE",
"273 297 OFFCURVE",
"274 290 CURVE",
"281 262 OFFCURVE",
"296 239 OFFCURVE",
"321 223 CURVE",
"340 212 OFFCURVE",
"362 207 OFFCURVE",
"383 206 CURVE",
"394 205 OFFCURVE",
"406 205 OFFCURVE",
"417 204 CURVE SMOOTH",
"428 203 OFFCURVE",
"440 203 OFFCURVE",
"451 203 CURVE SMOOTH",
"481 203 OFFCURVE",
"511 203 OFFCURVE",
"541 204 CURVE SMOOTH",
"571 205 OFFCURVE",
"601 205 OFFCURVE",
"631 206 CURVE SMOOTH",
"644 206 OFFCURVE",
"657 207 OFFCURVE",
"670 210 CURVE",
"695 217 OFFCURVE",
"717 229 OFFCURVE",
"732 250 CURVE SMOOTH",
"747 270 OFFCURVE",
"753 294 OFFCURVE",
"754 319 CURVE SMOOTH",
"755 335 OFFCURVE",
"757 354 OFFCURVE",
"757 371 CURVE SMOOTH",
"757 403 OFFCURVE",
"757 435 OFFCURVE",
"757 468 CURVE SMOOTH",
"757 501 OFFCURVE",
"756 533 OFFCURVE",
"754 565 CURVE",
"753 571 OFFCURVE",
"753 577 OFFCURVE",
"753 584 CURVE",
"752 590 OFFCURVE",
"751 596 OFFCURVE",
"750 603 CURVE",
"741 640 OFFCURVE",
"720 665 OFFCURVE",
"684 680 CURVE",
"664 687 OFFCURVE",
"641 689 OFFCURVE",
"620 690 CURVE",
"613 691 OFFCURVE",
"606 691 OFFCURVE",
"600 691 CURVE SMOOTH",
"593 691 OFFCURVE",
"586 691 OFFCURVE",
"579 691 CURVE SMOOTH",
"548 691 OFFCURVE",
"518 691 OFFCURVE",
"487 692 CURVE SMOOTH",
"456 692 OFFCURVE",
"426 691 OFFCURVE",
"395 688 CURVE",
"389 687 OFFCURVE",
"383 687 OFFCURVE",
"376 687 CURVE",
"369 686 OFFCURVE",
"362 685 OFFCURVE",
"356 684 CURVE SMOOTH",
"327 679 OFFCURVE",
"304 664 OFFCURVE",
"289 639 CURVE",
"276 619 OFFCURVE",
"273 597 OFFCURVE",
"270 576 CURVE",
"269 566 OFFCURVE",
"269 556 OFFCURVE",
"269 547 CURVE",
"268 538 OFFCURVE",
"268 528 OFFCURVE",
"267 518 CURVE",
"267 491 OFFCURVE",
"267 463 OFFCURVE",
"267 436 CURVE SMOOTH",
"267 408 OFFCURVE",
"267 380 OFFCURVE",
"267 353 CURVE"
);
},
{
closed = 1;
nodes = (
"428 297 OFFCURVE",
"360 362 OFFCURVE",
"361 449 CURVE SMOOTH",
"361 532 OFFCURVE",
"428 600 OFFCURVE",
"515 600 CURVE SMOOTH",
"598 600 OFFCURVE",
"665 534 OFFCURVE",
"664 447 CURVE SMOOTH",
"663 363 OFFCURVE",
"597 297 OFFCURVE",
"512 296 CURVE SMOOTH"
);
},
{
closed = 1;
nodes = (
"613 502 OFFCURVE",
"567 543 OFFCURVE",
"519 546 CURVE SMOOTH",
"456 549 OFFCURVE",
"417 501 OFFCURVE",
"414 454 CURVE SMOOTH",
"411 391 OFFCURVE",
"461 351 OFFCURVE",
"508 348 CURVE SMOOTH",
"568 345 OFFCURVE",
"613 395 OFFCURVE",
"612 447 CURVE"
);
},
{
closed = 1;
nodes = (
"653 640 OFFCURVE",
"636 627 OFFCURVE",
"636 610 CURVE SMOOTH",
"636 589 OFFCURVE",
"649 572 OFFCURVE",
"666 572 CURVE SMOOTH",
"690 572 OFFCURVE",
"704 585 OFFCURVE",
"704 606 CURVE",
"705 625 OFFCURVE",
"689 640 OFFCURVE",
"674 640 CURVE SMOOTH"
);
}
);
width = 1024;
}
);
unicode = E9CA;
},
{
glyphname = uniE9CB;
layers = (
{
layerId = "5789BFD8-8569-4DE2-B3C5-6A0ED3E84C22";
name = Regular;
paths = (
{
closed = 1;
nodes = (
"843 660 OFFCURVE",
"815 652 OFFCURVE",
"786 649 CURVE",
"817 666 OFFCURVE",
"840 695 OFFCURVE",
"852 730 CURVE",
"824 713 OFFCURVE",
"793 701 OFFCURVE",
"758 694 CURVE",
"731 722 OFFCURVE",
"693 741 OFFCURVE",
"650 741 CURVE SMOOTH",
"569 741 OFFCURVE",
"502 676 OFFCURVE",
"502 593 CURVE SMOOTH",
"502 582 OFFCURVE",
"503 570 OFFCURVE",
"506 559 CURVE",
"445 562 OFFCURVE",
"388 578 OFFCURVE",
"337 605 CURVE SMOOTH",
"285 632 OFFCURVE",
"240 668 OFFCURVE",
"203 713 CURVE",
"191 692 OFFCURVE",
"183 666 OFFCURVE",
"183 639 CURVE SMOOTH",
"183 587 OFFCURVE",
"209 541 OFFCURVE",
"249 516 CURVE",
"225 517 OFFCURVE",
"202 523 OFFCURVE",
"182 535 CURVE",
"182 535 OFFCURVE",
"182 535 OFFCURVE",
"182 534 CURVE SMOOTH",
"182 533 OFFCURVE",
"182 533 OFFCURVE",
"182 533 CURVE",
"182 462 OFFCURVE",
"233 403 OFFCURVE",
"300 388 CURVE",
"287 385 OFFCURVE",
"274 383 OFFCURVE",
"262 383 CURVE SMOOTH",
"251 383 OFFCURVE",
"243 384 OFFCURVE",
"235 385 CURVE",
"254 328 OFFCURVE",
"308 284 OFFCURVE",
"373 283 CURVE",
"322 243 OFFCURVE",
"258 220 OFFCURVE",
"189 220 CURVE SMOOTH",
"178 220 OFFCURVE",
"165 221 OFFCURVE",
"154 222 CURVE",
"219 181 OFFCURVE",
"296 155 OFFCURVE",
"380 155 CURVE SMOOTH",
"515 155 OFFCURVE",
"620 211 OFFCURVE",
"691 292 CURVE SMOOTH",
"762 372 OFFCURVE",
"799 478 OFFCURVE",
"799 575 CURVE SMOOTH",
"799 578 OFFCURVE",
"799 581 OFFCURVE",
"799 584 CURVE SMOOTH",
"799 587 OFFCURVE",
"799 590 OFFCURVE",
"799 593 CURVE",
"827 616 OFFCURVE",
"853 642 OFFCURVE",
"870 671 CURVE"
);
}
);
width = 1024;
}
);
unicode = E9CB;
},
{
glyphname = uniE9CC;
layers = (
{
layerId = "5789BFD8-8569-4DE2-B3C5-6A0ED3E84C22";
name = Regular;
paths = (
{
closed = 1;
nodes = (
"589 681 LINE SMOOTH",
"576 681 OFFCURVE",
"560 664 OFFCURVE",
"560 640 CURVE SMOOTH",
"560 558 LINE",
"703 558 LINE",
"703 441 LINE",
"560 441 LINE",
"560 90 LINE",
"427 90 LINE",
"427 441 LINE",
"304 441 LINE",
"304 558 LINE",
"427 558 LINE",
"427 626 LINE SMOOTH",
"427 723 OFFCURVE",
"494 805 OFFCURVE",
"589 805 CURVE SMOOTH",
"703 805 LINE",
"703 681 LINE"
);
}
);
width = 1024;
}
);
unicode = E9CC;
},
